#N canvas 494 144 731 664 12;
#X obj 18 14 loadbang;
#X text 93 95 On doit fournir le chemin où se trouve le patch pour récupérer son fichier de configuration.;
#X obj 382 140 r musician;
#X obj 18 218 noteout;
#X msg 18 195 60 64;
#X text 63 197 calibrage;
#X msg 64 388 66 0;
#N canvas 150 175 450 300 setMessage 0;
#X obj 102 40 inlet;
#X obj 100 76 list prepend set;
#X obj 100 100 list trim;
#X obj 100 124 outlet;
#X connect 0 0 1 0;
#X connect 1 0 2 0;
#X connect 2 0 3 0;
#X restore 64 366 pd setMessage;
#X text 18 315 filtrage: qtouch <canal MIDI \, defaut=1> <temps antirebond(ms) defaut=100>, f 74;
#X obj 312 463 print QTOUCH;
#X obj 312 393 r qtouch;
#X obj 19 342 incredis/qtouch 1 250;
#X obj 312 437 spigot;
#X text 192 343 durée entre noteOn et noteOff = 2 x antirebond;
#N canvas 172 288 494 363 note2zone 0;
#X obj 18 95 incredis/note2hexagone 60 61 62 63 64 65 66;
#X text 48 31 Change les 7 notes MIDI en argument vers des positions sur l'hexagone. Par exemple la note 63 est au centre donc ça devient 'c' \, la note 60 devient 'so' car elle est au sud ouest.;
#X msg 46 145 n 0;
#N canvas 150 175 450 300 setMessage 0;
#X obj 102 40 inlet;
#X obj 100 76 list prepend set;
#X obj 100 100 list trim;
#X obj 100 124 outlet;
#X connect 0 0 1 0;
#X connect 1 0 2 0;
#X connect 2 0 3 0;
#X restore 46 123 pd setMessage;
#X obj 18 176 t a a;
#X text 72 175 on envoie la position dans un message global;
#X obj 50 198 s qtouch;
#X obj 18 275 s qtouch;
#X text 43 227 hexagone2multizone <antirebond entre les zones(ms)>;
#X obj 18 248 incredis/hexagone2multizone 300;
#X obj 18 10 inlet;
#X connect 0 0 3 0;
#X connect 0 0 4 0;
#X connect 3 0 2 0;
#X connect 4 0 9 0;
#X connect 4 1 6 0;
#X connect 9 0 7 0;
#X connect 10 0 0 0;
#X restore 19 465 pd note2zone;
#X obj 18 144 init_track-new;
#X obj 232 140 r computer_number;
#X obj 18 39 t b b;
#X obj 50 65 s callback;
#X text 132 64 On récupère les info de la machine.;
#X text 31 414 Transforme la note en zone \, entrer dans le sous-patch pour plus de détails, f 37;
#X obj 231 192 r cue_name;
#X text 23 518 logique:;
#N canvas 92 117 450 300 logique 0;
#X restore 125 518 pd logique;
#X text 17 555 instruments:;
#N canvas 121 146 295 367 samplers 0;
#X obj 44 51 sampler sampler1;
#X obj 43 75 sampler sampler2;
#X obj 43 100 sampler sampler3;
#X obj 42 124 sampler sampler4;
#X obj 43 150 sampler sampler5;
#X obj 43 175 sampler sampler6;
#X obj 42 199 sampler sampler7;
#X restore 166 554 pd samplers;
#X obj 385 191 r maxPlayTime;
#N canvas 67 431 613 296 globalSettings 0;
#X obj 37 37 r globalSettings;
#X obj 37 59 json-decode;
#X obj 74 105 route maxPlayTime;
#X obj 74 129 symbol;
#X obj 74 153 float;
#X obj 74 177 s maxPlayTime;
#X obj 74 83 list trim;
#X obj 190 225 s midiDevices;
#X obj 192 188 list prepend in;
#X obj 307 188 list prepend out;
#X obj 37 240 outlet;
#X obj 190 131 route midiDeviceIn midiDeviceOut;
#X obj 464 171 route volume;
#X obj 464 196 s \$0volume;
#X connect 0 0 1 0;
#X connect 1 0 10 0;
#X connect 1 1 6 0;
#X connect 2 0 3 0;
#X connect 2 1 11 0;
#X connect 3 0 4 0;
#X connect 4 0 5 0;
#X connect 6 0 2 0;
#X connect 8 0 7 0;
#X connect 9 0 7 0;
#X connect 11 0 8 0;
#X connect 11 1 9 0;
#X connect 11 2 12 0;
#X connect 12 0 13 0;
#X restore 17 244 pd globalSettings;
#X msg 17 269 \; cue 0;
#N canvas 430 117 601 341 aconnect 0;
#X obj 234 236 shell;
#X msg 249 133 aconnect -i;
#X msg 233 106 aconnect 128:1 20;
#X msg 110 157 aconnect 20 128;
#X obj 110 17 loadbang;
#X obj 110 72 t b b;
#X obj 110 40 delay 1000;
#X obj 110 117 delay 1000;
#X connect 1 0 0 0;
#X connect 2 0 0 0;
#X connect 3 0 0 0;
#X connect 4 0 6 0;
#X connect 5 0 7 0;
#X connect 5 1 2 0;
#X connect 6 0 5 0;
#X connect 7 0 3 0;
#X restore 412 25 pd aconnect;
#X obj 424 578 *~;
#X obj 424 603 throw~ L_out;
#X obj 425 391 catch~ qtouch_out;
#N canvas 385 484 450 300 getVolume 0;
#X obj 174 235 outlet;
#X obj 174 207 f;
#X obj 174 161 symbol;
#X obj 174 114 r \$0volume;
#X connect 1 0 0 0;
#X connect 2 0 1 0;
#X connect 3 0 2 0;
#X restore 442 418 pd getVolume;
#X obj 442 504 dbtorms;
#X obj 18 119 getdir;
#X listbox 230 163 20 0 0 0 - - - 0;
#X listbox 381 163 20 0 0 0 - - - 0;
#X listbox 231 217 20 0 0 0 - - - 0;
#X floatatom 385 216 5 0 0 0 - - - 0;
#X obj 378 419 tgl 20 0 empty empty empty 0 -10 0 12 #fcfcfc #000000 #000000 0 1;
#X obj 87 16 bng 20 250 50 0 empty empty empty 0 -10 0 12 #fcfcfc #000000 #000000;
#N canvas 53 411 545 293 OSC 0;
#X obj 22 11 r OSC_for_composition;
#X obj 22 139 route;
#X obj 22 61 route fader;
#X obj 22 164 s \$0fader;
#X obj 314 258 s sendOSC;
#X obj 314 43 r \$0fader-s;
#X obj 314 186 list prepend;
#X obj 395 151 r module_number;
#X msg 314 233 fader \$1 \$2;
#X obj 54 114 r module_number;
#X connect 0 0 2 0;
#X connect 1 0 3 0;
#X connect 2 0 1 0;
#X connect 5 0 6 0;
#X connect 6 0 8 0;
#X connect 7 0 6 1;
#X connect 8 0 4 0;
#X connect 9 0 1 1;
#X restore 175 598 pd OSC;
#X obj 442 553 line~;
#X obj 442 528 pack f 50;
#X obj 454 474 r \$0fader;
#X obj 454 450 s \$0fader-s;
#N canvas 39 290 450 300 calibrate 1;
#X obj 54 245 outlet;
#X obj 54 44 r OSC_for_composition;
#X obj 54 94 route calibrateAll calibrate;
#X obj 150 173 route;
#X obj 182 148 r module_number;
#X connect 1 0 2 0;
#X connect 2 0 0 0;
#X connect 2 1 3 0;
#X connect 3 0 0 0;
#X connect 4 0 3 1;
#X restore 33 169 pd calibrate;
#X obj 555 29 r computer_number;
#X obj 555 54 t a b;
#X msg 587 78 symbol _;
#X obj 555 142 list split 1;
#X obj 555 117 s2l;
#X obj 595 180 s module_number;
#X floatatom 547 518 5 0 0 0 - - - 0;
#X connect 0 0 17 0;
#X connect 2 0 37 0;
#X connect 4 0 3 0;
#X connect 7 0 6 0;
#X connect 10 0 12 0;
#X connect 11 0 7 0;
#X connect 11 0 14 0;
#X connect 12 0 9 0;
#X connect 15 0 4 0;
#X connect 16 0 36 0;
#X connect 17 0 35 0;
#X connect 17 1 18 0;
#X connect 21 0 38 0;
#X connect 26 0 39 0;
#X connect 27 0 28 0;
#X connect 30 0 31 0;
#X connect 32 0 30 0;
#X connect 33 0 34 0;
#X connect 33 0 46 0;
#X connect 34 0 44 0;
#X connect 35 0 15 0;
#X connect 40 0 12 1;
#X connect 41 0 17 0;
#X connect 43 0 30 1;
#X connect 44 0 43 0;
#X connect 45 0 34 0;
#X connect 45 0 54 0;
#X connect 47 0 4 0;
#X connect 48 0 49 0;
#X connect 49 0 52 0;
#X connect 49 1 50 0;
#X connect 50 0 52 1;
#X connect 51 1 53 0;
#X connect 52 0 51 0;
