#N canvas 681 93 354 288 12;
#X obj 18 14 loadbang;
#X obj 23 173 notein;
#X obj 23 197 pack f f;
#X obj 23 221 s \$0note;
#X obj 96 229 pack f f;
#X obj 96 173 polytouchin;
#X obj 96 253 s \$0touch;
#X obj 220 88 touche \$0 36 0;
#X obj 220 111 touche \$0 38 1;
#X obj 220 134 touche \$0 40 2;
#X obj 220 157 touche \$0 41 3;
#X obj 220 180 touche \$0 43 4;
#X obj 220 203 touche \$0 45 5;
#X obj 220 225 touche \$0 47 6;
#X obj 96 202 swap;
#X obj 85 14 cue_list;
#X obj 51 61 init_track qTouch;
#X obj 19 38 t b b;
#N canvas 92 117 587 298 setupQtouch 1;
#X obj 111 21 inlet;
#X obj 111 125 t b b;
#X obj 122 259 ctlout;
#X msg 142 182 0;
#X msg 89 188 1;
#X msg 177 91 midi-dialog 1 0 0 0 0 0 0 0 0 1 0 0 0 0 0 0 0 0 1 1;
#X obj 112 46 t b b;
#X obj 50 162 delay 1000;
#X obj 86 93 delay 1000;
#X connect 0 0 6 0;
#X connect 1 0 7 0;
#X connect 1 1 3 0;
#X connect 3 0 2 0;
#X connect 4 0 2 0;
#X connect 6 0 8 0;
#X connect 6 1 5 0;
#X connect 7 0 4 0;
#X connect 8 0 1 0;
#X restore 19 124 pd setupQtouch;
#X connect 0 0 17 0;
#X connect 1 0 2 0;
#X connect 1 1 2 1;
#X connect 2 0 3 0;
#X connect 4 0 6 0;
#X connect 5 0 14 0;
#X connect 5 1 14 1;
#X connect 14 0 4 0;
#X connect 14 1 4 1;
#X connect 17 0 18 0;
#X connect 17 1 16 0;
