#N canvas 293 98 566 622 12;
#X obj 18 14 loadbang;
#X msg 18 99 dir;
#X obj 18 121 pdcontrol;
#X text 93 95 On doit fournir le chemin où se trouve le patch pour récupérer son fichier de configuration.;
#X obj 382 140 r musician;
#X listbox 382 162 20 0 0 0 - - - 0;
#X obj 18 198 noteout;
#X msg 18 175 60 64;
#X text 63 177 calibrage;
#X msg 63 328 66 0;
#N canvas 150 175 450 300 setMessage 0;
#X obj 102 40 inlet;
#X obj 100 76 list prepend set;
#X obj 100 100 list trim;
#X obj 100 124 outlet;
#X connect 0 0 1 0;
#X connect 1 0 2 0;
#X connect 2 0 3 0;
#X restore 63 306 pd setMessage;
#X text 18 255 filtrage: qtouch <canal MIDI \, defaut=1> <temps antirebond(ms) defaut=100>, f 74;
#X obj 312 403 print QTOUCH;
#X obj 312 333 r qtouch;
#X obj 18 282 incredis/qtouch 1 250;
#X obj 312 377 spigot;
#X obj 351 355 tgl 19 0 empty empty empty 0 -10 0 12 #fcfcfc #000000 #000000 0 1;
#X text 192 283 durée entre noteOn et noteOff = 2 x antirebond;
#N canvas 172 288 494 363 note2zone 0;
#X obj 18 95 incredis/note2hexagone 60 61 62 63 64 65 66;
#X text 48 31 Change les 7 notes MIDI en argument vers des positions sur l'hexagone. Par exemple la note 63 est au centre donc ça devient 'c' \, la note 60 devient 'so' car elle est au sud ouest.;
#X msg 46 145 n 0;
#N canvas 150 175 450 300 setMessage 0;
#X obj 102 40 inlet;
#X obj 100 76 list prepend set;
#X obj 100 100 list trim;
#X obj 100 124 outlet;
#X connect 0 0 1 0;
#X connect 1 0 2 0;
#X connect 2 0 3 0;
#X restore 46 123 pd setMessage;
#X obj 18 176 t a a;
#X text 72 175 on envoie la position dans un message global;
#X obj 50 198 s qtouch;
#X obj 18 275 s qtouch;
#X text 43 227 hexagone2multizone <antirebond entre les zones(ms)>;
#X obj 18 248 incredis/hexagone2multizone 300;
#X obj 18 10 inlet;
#X connect 0 0 3 0;
#X connect 0 0 4 0;
#X connect 3 0 2 0;
#X connect 4 0 9 0;
#X connect 4 1 6 0;
#X connect 9 0 7 0;
#X connect 10 0 0 0;
#X restore 19 405 pd note2zone;
#X obj 18 144 init_track-new;
#X listbox 232 164 20 0 0 0 - - - 0;
#X obj 232 140 r computer_number;
#X obj 18 39 t b b;
#X obj 50 65 s callback;
#X text 132 64 On récupère les info de la machine.;
#X text 31 354 Transforme la note en zone \, entrer dans le sous-patch pour plus de détails, f 37;
#X obj 231 192 r cue_name;
#X listbox 231 216 20 0 0 0 - - - 0;
#X obj 92 13 bng 19 250 50 0 empty empty empty 0 -10 0 12 #fcfcfc #000000 #000000;
#X text 23 458 logique:;
#N canvas 92 117 450 300 logique 0;
#X restore 125 458 pd logique;
#X text 27 529 instruments:;
#N canvas 121 146 249 279 samplers 0;
#X obj 44 51 sampler sampler1;
#X obj 43 75 sampler sampler2;
#X obj 43 100 sampler sampler3;
#X obj 42 124 sampler sampler4;
#X obj 43 150 sampler sampler5;
#X obj 43 175 sampler sampler6;
#X obj 42 199 sampler sampler7;
#X restore 176 528 pd samplers;
#X obj 385 191 r maxPlayTime;
#X floatatom 385 215 0 0 0 0 - - - 0;
#N canvas 67 431 450 300 globalSettings 1;
#X obj 37 37 r globalSettings;
#X obj 37 59 json-decode;
#X obj 74 105 route maxPlayTime;
#X obj 74 129 symbol;
#X obj 74 153 float;
#X obj 74 177 s maxPlayTime;
#X obj 74 83 list trim;
#X connect 0 0 1 0;
#X connect 1 1 6 0;
#X connect 2 0 3 0;
#X connect 3 0 4 0;
#X connect 4 0 5 0;
#X connect 6 0 2 0;
#X restore 17 224 pd globalSettings;
#X connect 0 0 22 0;
#X connect 1 0 2 0;
#X connect 2 0 19 0;
#X connect 4 0 5 0;
#X connect 7 0 6 0;
#X connect 10 0 9 0;
#X connect 13 0 15 0;
#X connect 14 0 10 0;
#X connect 14 0 18 0;
#X connect 15 0 12 0;
#X connect 16 0 15 1;
#X connect 19 0 7 0;
#X connect 21 0 20 0;
#X connect 22 0 1 0;
#X connect 22 1 23 0;
#X connect 26 0 27 0;
#X connect 28 0 22 0;
#X connect 33 0 34 0;
