#N canvas 194 182 567 618 12;
#X obj 266 340 readsf~;
#X obj 368 20 r track_param;
#X obj 368 44 route \$1;
#X obj 368 68 s \$0param;
#X obj 108 159 sel 0;
#X obj 265 276 list;
#X obj 247 500 throw~ L_out;
#X msg 108 231 0;
#X obj 140 182 b, f 2;
#N canvas 681 287 450 300 getSound 0;
#X obj 165 82 r \$0param;
#X obj 165 106 route son;
#X msg 165 153 symbol sons/\$1;
#X obj 165 130 symbol;
#X obj 165 177 outlet;
#X connect 0 0 1 0;
#X connect 1 0 3 0;
#X connect 2 0 4 0;
#X connect 3 0 2 0;
#X restore 290 228 pd getSound;
#N canvas 722 357 450 300 playSound 0;
#X obj 170 113 list trim;
#X obj 170 89 list prepend open;
#X msg 170 180 1;
#X obj 170 137 t b a;
#X obj 168 61 inlet;
#X obj 202 223 outlet;
#X connect 0 0 3 0;
#X connect 1 0 0 0;
#X connect 2 0 5 0;
#X connect 3 0 2 0;
#X connect 3 1 5 0;
#X connect 4 0 1 0;
#X restore 266 298 pd playSound;
#N canvas 652 272 450 300 soundParam 0;
#X obj 196 116 soundfiler;
#X obj 276 116 table \$0dummy;
#X obj 196 65 list append \$0;
#X obj 263 140 list split 1;
#X msg 196 90 read -resize \$1 \$2dummy;
#X obj 303 163 list prepend 0;
#X obj 131 6 inlet;
#X obj 80 259 outlet;
#X obj 131 30 t a a;
#X obj 80 204 list prepend;
#X connect 0 1 3 0;
#X connect 2 0 4 0;
#X connect 3 1 5 0;
#X connect 4 0 0 0;
#X connect 5 0 9 0;
#X connect 6 0 8 0;
#X connect 8 0 2 0;
#X connect 8 1 9 1;
#X connect 9 0 7 0;
#X restore 290 250 pd soundParam;
#X obj 312 362 spigot;
#N canvas 734 349 450 300 getLoopMode 0;
#X obj 174 114 r \$0param;
#X obj 174 138 route loop;
#X obj 174 162 symbol;
#X obj 174 208 outlet;
#X obj 174 184 f;
#X connect 0 0 1 0;
#X connect 1 0 2 0;
#X connect 2 0 4 0;
#X connect 4 0 3 0;
#X restore 351 337 pd getLoopMode;
#N canvas 295 320 450 300 getTrigger 0;
#X obj 104 107 r qtouch;
#X obj 104 131 route symbol;
#X obj 185 59 r \$0param;
#X obj 185 83 route trigger;
#X obj 185 107 symbol;
#X obj 104 155 outlet;
#X connect 0 0 1 0;
#X connect 1 0 5 0;
#X connect 2 0 3 0;
#X connect 3 0 4 0;
#X connect 4 0 1 1;
#X restore 108 39 pd getTrigger;
#X obj 43 380 line~;
#X msg 140 255 1;
#X msg 42 307 0 \$1;
#N canvas 385 484 450 300 getFadeOut 0;
#X obj 174 114 r \$0param;
#X obj 174 235 outlet;
#X obj 174 138 route fadeOut;
#X obj 174 207 f;
#X obj 174 161 symbol;
#X connect 0 0 2 0;
#X connect 2 0 4 0;
#X connect 3 0 1 0;
#X connect 4 0 3 0;
#X restore 59 12 pd getFadeOut;
#X obj 247 433 *~;
#X obj 75 274 pipe;
#X obj 41 275 f;
#N canvas 385 484 450 300 getGain 0;
#X obj 174 114 r \$0param;
#X obj 174 235 outlet;
#X obj 174 207 f;
#X obj 174 161 symbol;
#X obj 174 138 route gain;
#X connect 0 0 4 0;
#X connect 2 0 1 0;
#X connect 3 0 2 0;
#X connect 4 0 3 0;
#X restore 282 421 pd getGain;
#X obj 247 468 *~;
#X obj 282 444 dbtorms;
#N canvas 150 175 450 408 maxPlayTime 0;
#X obj 172 230 r maxPlayTime;
#X obj 158 152 metro 100;
#X obj 53 6 inlet;
#X msg 158 129 1;
#X obj 126 207 timer;
#X obj 126 252 > 10000;
#X obj 126 276 sel 1;
#X obj 53 337 outlet;
#X obj 53 99 t b b;
#X obj 53 307 t b b;
#X msg 118 130 0;
#X obj 126 300 bng 19 250 50 0 empty empty empty 0 -10 0 12 #fcfcfc #000000 #000000;
#X obj 53 31 > 0;
#X obj 53 55 sel 1;
#X connect 0 0 5 1;
#X connect 1 0 4 1;
#X connect 2 0 12 0;
#X connect 3 0 1 0;
#X connect 4 0 5 0;
#X connect 5 0 6 0;
#X connect 6 0 9 0;
#X connect 6 0 11 0;
#X connect 8 0 3 0;
#X connect 8 1 4 0;
#X connect 9 0 7 0;
#X connect 9 1 10 0;
#X connect 10 0 1 0;
#X connect 12 0 13 0;
#X connect 13 0 8 0;
#X connect 13 1 10 0;
#X restore 151 73 pd maxPlayTime;
#X obj 312 384 s \$0play;
#X obj 181 230 s \$0play;
#X obj 265 200 r \$0play;
#X msg 152 129 0;
#X obj 261 165 bng 19 250 50 0 empty empty empty 0 -10 0 12 #fcfcfc #000000 #000000;
#X obj 125 120 bng 19 250 50 0 empty empty empty 0 -10 0 12 #fcfcfc #000000 #000000;
#X floatatom 14 207 5 0 0 0 - - - 0;
#X connect 0 0 19 1;
#X connect 0 1 12 0;
#X connect 1 0 2 0;
#X connect 2 0 3 0;
#X connect 4 0 7 0;
#X connect 4 0 21 0;
#X connect 4 1 8 0;
#X connect 5 0 10 0;
#X connect 7 0 20 0;
#X connect 8 0 27 0;
#X connect 8 0 16 0;
#X connect 9 0 11 0;
#X connect 10 0 0 0;
#X connect 11 0 5 1;
#X connect 12 0 26 0;
#X connect 13 0 12 1;
#X connect 14 0 4 0;
#X connect 14 0 31 0;
#X connect 14 0 25 0;
#X connect 15 0 19 0;
#X connect 16 0 15 0;
#X connect 17 0 15 0;
#X connect 18 0 21 1;
#X connect 18 0 20 1;
#X connect 18 0 32 0;
#X connect 19 0 23 0;
#X connect 20 0 0 0;
#X connect 21 0 17 0;
#X connect 22 0 24 0;
#X connect 23 0 6 0;
#X connect 24 0 23 1;
#X connect 25 0 29 0;
#X connect 25 0 30 0;
#X connect 28 0 5 0;
#X connect 29 0 4 0;
