#N canvas 817 377 599 491 12;
#X obj 33 16 r \$1note;
#X obj 33 40 route \$2;
#X obj 139 43 route \$2;
#X obj 139 19 r \$1touch;
#X obj 31 461 throw~ L_out;
#X obj 318 17 table \$0son;
#X obj 318 41 loadbang;
#X obj 318 115 soundfiler;
#X obj 318 65 list prepend \$3 \$0;
#X obj 31 435 hip~ 5;
#X obj 31 359 *~;
#X obj 49 334 tabread4~ \$0son;
#X msg 318 90 read -resize sons/son\$1.wav \$2son;
#X obj 92 271 +~ 1;
#X obj 183 271 line~;
#X obj 183 223 * 441;
#X floatatom 183 200 0 0 0 0 - - - 0;
#X obj 183 247 pack 0 100;
#X obj 92 300 +~;
#X obj 31 243 -~ 0.5;
#X obj 31 271 *~ 0.5;
#X obj 31 300 cos~;
#X text 217 201 <= read point (100ths of a second);
#X obj 92 243 *~ 44100;
#X obj 31 191 phasor~ 1;
#X obj 33 78 > 1;
#X obj 33 102 s \$0sonOn;
#X obj 31 411 *~;
#X obj 49 388 line~;
#X msg 211 335 \$1 50;
#X obj 211 312 r \$0sonOn;
#X obj 451 349 switch~;
#X obj 363 255 r \$0sonOn;
#X obj 363 279 moses 1;
#X obj 363 309 pipe 50;
#X obj 139 101 s \$0vel;
#X obj 183 171 r \$0vel;
#X connect 0 0 1 0;
#X connect 1 0 25 0;
#X connect 1 0 35 0;
#X connect 2 0 35 0;
#X connect 3 0 2 0;
#X connect 6 0 8 0;
#X connect 8 0 12 0;
#X connect 9 0 4 0;
#X connect 10 0 27 0;
#X connect 11 0 10 1;
#X connect 12 0 7 0;
#X connect 13 0 18 0;
#X connect 14 0 18 1;
#X connect 15 0 17 0;
#X connect 16 0 15 0;
#X connect 17 0 14 0;
#X connect 18 0 11 0;
#X connect 19 0 20 0;
#X connect 20 0 21 0;
#X connect 21 0 10 0;
#X connect 23 0 13 0;
#X connect 24 0 19 0;
#X connect 24 0 23 0;
#X connect 25 0 26 0;
#X connect 27 0 9 0;
#X connect 28 0 27 1;
#X connect 29 0 28 0;
#X connect 30 0 29 0;
#X connect 32 0 33 0;
#X connect 33 0 34 0;
#X connect 33 1 31 0;
#X connect 34 0 31 0;
#X connect 36 0 16 0;
