#N canvas 755 65 664 706 12;
#X obj 18 14 loadbang;
#X obj 307 456 throw~ L_out;
#X obj 50 216 shell;
#N canvas 343 76 464 841 removeDevice 0;
#X obj 155 10 inlet;
#X obj 155 63 shell;
#X msg 155 38 bluetoothctl devices;
#X obj 187 112 list split 2;
#X obj 227 137 symbol;
#X obj 155 88 t a a;
#X obj 227 161 select MODULE_PRE_BLE;
#X obj 194 222 spigot;
#X msg 227 186 1;
#X msg 269 187 0;
#X obj 164 332 shell;
#X obj 195 246 list;
#X msg 164 307 bluetoothctl info \$2;
#X obj 164 378 symbol;
#X obj 164 355 route Connected:;
#X obj 294 278 t a a;
#X obj 259 429 list;
#X msg 162 467 bluetoothctl disconnect \$2, f 13;
#X obj 162 506 shell;
#X obj 162 531 list split 1;
#X obj 162 556 select Successful;
#X obj 123 670 shell;
#X obj 349 589 list;
#X msg 123 630 bluetoothctl remove \$2, f 14;
#X obj 43 798 outlet;
#X obj 164 401 sel no yes;
#X obj 324 701 print REMOVE;
#X obj 364 459 print DISCONNECT;
#X obj 341 320 print CONNECTED;
#X obj 322 101 print DEVICES;
#X obj 123 695 route Device;
#X obj 123 720 route has;
#X obj 123 745 route been;
#X obj 123 770 route removed;
#X connect 0 0 2 0;
#X connect 1 0 5 0;
#X connect 1 0 29 0;
#X connect 2 0 1 0;
#X connect 3 1 4 0;
#X connect 4 0 6 0;
#X connect 5 0 7 0;
#X connect 5 1 3 0;
#X connect 6 0 8 0;
#X connect 6 1 9 0;
#X connect 7 0 11 0;
#X connect 8 0 7 1;
#X connect 9 0 7 1;
#X connect 10 0 14 0;
#X connect 10 0 28 0;
#X connect 11 0 15 0;
#X connect 12 0 10 0;
#X connect 13 0 25 0;
#X connect 14 0 13 0;
#X connect 15 0 12 0;
#X connect 15 1 16 1;
#X connect 15 1 22 1;
#X connect 16 0 17 0;
#X connect 17 0 18 0;
#X connect 18 0 19 0;
#X connect 18 0 27 0;
#X connect 19 0 20 0;
#X connect 20 0 22 0;
#X connect 21 0 26 0;
#X connect 21 0 30 0;
#X connect 22 0 23 0;
#X connect 23 0 21 0;
#X connect 25 0 24 0;
#X connect 25 1 16 0;
#X connect 30 0 31 0;
#X connect 31 0 32 0;
#X connect 32 0 33 0;
#X connect 33 0 24 0;
#X restore 18 292 pd removeDevice;
#X obj 152 273 bng 15 250 50 0 empty empty empty 17 7 0 10 #fcfcfc #000000 #000000;
#X obj 18 161 t b b;
#X obj 137 298 r BLTMIDI;
#X obj 18 374 list;
#X obj 18 440 shell;
#X msg 18 413 bluetoothctl connect \$1;
#X symbolatom 99 391 15 0 0 0 - - - 0;
#X obj 137 353 symbol;
#X obj 137 323 route device;
#N canvas 0 54 549 449 classicSynth 0;
#N canvas 456 54 579 692 16x 0;
#X obj 84 387 *~ 0.064;
#X obj 84 412 rpole~ 0.93538;
#X obj 84 439 *~ 0.00431;
#X obj 84 465 cpole~ 0.96559 0.05592;
#X obj 84 505 cpole~ 0.96559 -0.05592;
#X obj 84 532 *~ 0.125;
#X obj 84 559 rzero~ -1;
#X obj 84 585 rzero~ -1;
#X obj 83 613 rzero~ -1;
#X obj 82 133 phasor~;
#X obj 83 647 outlet~;
#X obj 100 202 wrap~;
#X obj 100 172 -~;
#X obj 101 246 *~;
#X obj 83 275 +~;
#X obj 169 267 phasor~;
#X obj 205 321 wrap~;
#X obj 205 297 -~;
#X obj 227 355 *~;
#X obj 169 362 +~;
#X obj 84 347 +~;
#X obj 296 469 block~ 1024 1 16;
#X obj 169 30 inlet;
#X obj 208 81 r osc-params;
#X obj 169 211 *~;
#X obj 169 239 +~;
#X msg 293 409 \; osc-params 0.5 -0.5 0.5 0.5 1 0.5;
#X obj 293 383 loadbang;
#X obj 208 108 unpack f f f f f f;
#X connect 0 0 1 0;
#X connect 1 0 2 0;
#X connect 2 0 3 0;
#X connect 3 0 4 0;
#X connect 3 1 4 1;
#X connect 4 0 5 0;
#X connect 5 0 6 0;
#X connect 6 0 7 0;
#X connect 7 0 8 0;
#X connect 8 0 10 0;
#X connect 9 0 12 0;
#X connect 9 0 14 0;
#X connect 11 0 13 0;
#X connect 12 0 11 0;
#X connect 13 0 14 1;
#X connect 14 0 20 0;
#X connect 15 0 17 0;
#X connect 15 0 19 0;
#X connect 16 0 18 0;
#X connect 17 0 16 0;
#X connect 18 0 19 1;
#X connect 19 0 20 1;
#X connect 20 0 0 0;
#X connect 22 0 9 0;
#X connect 22 0 24 0;
#X connect 23 0 28 0;
#X connect 24 0 25 0;
#X connect 25 0 15 0;
#X connect 27 0 26 0;
#X connect 28 0 12 1;
#X connect 28 1 13 1;
#X connect 28 2 17 1;
#X connect 28 3 18 1;
#X connect 28 4 24 1;
#X connect 28 5 25 1;
#X restore 108 224 pd 16x;
#X obj 189 196 *~;
#X obj 188 166 +~ 0.2;
#X obj 175 296 *~;
#X obj 108 292 *~;
#X obj 108 186 mtof;
#X obj 68 66 r \$0-note;
#X obj 68 121 makenote 1;
#X obj 379 233 + 20;
#X obj 379 160 tgl 15 0 empty empty empty 0 -6 0 8 #fcfcfc #000000 #000000 0 1;
#X obj 379 291 s \$0-note;
#X obj 379 205 random 70;
#X obj 108 256 vcf~ 3;
#X floatatom 265 176 3 0 0 0 - - - 0;
#X floatatom 265 221 7 0 0 0 - - - 0;
#X obj 265 197 mtof;
#X obj 175 260 adsr 2 30 200 50 500;
#X obj 188 91 adsr 1 10 200 50 500;
#X obj 379 265 pack 0 200;
#X obj 82 151 poly 1 1;
#X floatatom 439 158 3 0 0 0 - - - 0;
#X floatatom 446 241 3 0 0 0 - - - 0;
#X obj 68 92 unpack f f;
#X obj 379 19 inlet;
#X obj 108 317 outlet~;
#X obj 379 94 route 48;
#X obj 379 119 > 1;
#X obj 429 20 inlet;
#X obj 379 182 metro 250;
#X obj 188 220 *~ 10;
#X connect 0 0 12 0;
#X connect 1 0 29 0;
#X connect 2 0 1 0;
#X connect 2 0 1 1;
#X connect 3 0 4 1;
#X connect 4 0 24 0;
#X connect 5 0 0 0;
#X connect 6 0 22 0;
#X connect 7 0 19 0;
#X connect 7 1 19 1;
#X connect 8 0 18 0;
#X connect 9 0 28 0;
#X connect 11 0 8 0;
#X connect 12 0 4 0;
#X connect 13 0 15 0;
#X connect 14 0 29 1;
#X connect 15 0 14 0;
#X connect 16 0 3 0;
#X connect 16 0 3 1;
#X connect 17 0 2 0;
#X connect 18 0 10 0;
#X connect 19 1 5 0;
#X connect 19 2 17 0;
#X connect 19 2 16 0;
#X connect 20 0 28 1;
#X connect 21 0 18 1;
#X connect 22 0 7 0;
#X connect 22 1 7 2;
#X connect 23 0 25 0;
#X connect 25 0 26 0;
#X connect 26 0 9 0;
#X connect 27 0 13 0;
#X connect 28 0 11 0;
#X connect 29 0 12 1;
#X restore 308 355 pd classicSynth;
#X obj 383 159 r BLTMIDI;
#X obj 383 184 route channel;
#X obj 307 258 notein;
#X obj 308 323 spigot;
#X obj 307 298 pack;
#X obj 347 299 ==;
#X obj 491 192 swap;
#X obj 492 164 ctlin;
#X obj 410 329 route 1;
#X obj 492 242 list prepend;
#X obj 491 217 pack;
#X obj 492 267 list trim;
#X obj 411 303 route;
#X obj 307 413 *~ 0.1;
#X obj 18 663 noteout;
#X msg 18 638 1;
#X obj 53 345 bng 15 250 50 0 empty empty empty 17 7 0 10 #fcfcfc #000000 #000000;
#X obj 200 487 print CONNECTION;
#X msg 50 189 bluetoothctl scan on &;
#X obj 18 556 route Connection;
#X obj 18 581 route successful;
#X obj 18 610 delay 5000;
#X obj 18 322 delay 20000;
#X obj 18 242 delay 5000;
#X obj 213 13 r BLTMIDI;
#X obj 213 38 route device;
#X obj 18 137 spigot;
#X msg 213 65 1;
#X msg 171 64 0;
#X obj 180 156 shell;
#X msg 180 129 bluetoothctl power off &;
#X obj 76 83 spigot 1;
#X connect 0 0 40 0;
#X connect 0 0 45 0;
#X connect 3 0 36 0;
#X connect 4 0 3 0;
#X connect 5 0 37 0;
#X connect 5 1 32 0;
#X connect 6 0 12 0;
#X connect 7 0 9 0;
#X connect 8 0 31 0;
#X connect 8 0 33 0;
#X connect 9 0 8 0;
#X connect 11 0 7 1;
#X connect 11 0 10 0;
#X connect 12 0 11 0;
#X connect 13 0 27 0;
#X connect 14 0 15 0;
#X connect 15 0 19 1;
#X connect 15 0 26 1;
#X connect 16 0 18 0;
#X connect 16 1 18 1;
#X connect 16 2 19 0;
#X connect 17 0 13 0;
#X connect 18 0 17 0;
#X connect 19 0 17 1;
#X connect 20 0 24 0;
#X connect 20 1 24 1;
#X connect 21 0 20 0;
#X connect 21 1 20 1;
#X connect 21 2 23 1;
#X connect 22 0 13 1;
#X connect 23 0 25 0;
#X connect 24 0 23 0;
#X connect 25 0 26 0;
#X connect 26 0 22 0;
#X connect 27 0 1 0;
#X connect 29 0 28 0;
#X connect 30 0 7 0;
#X connect 32 0 2 0;
#X connect 33 0 34 0;
#X connect 34 0 35 0;
#X connect 35 0 29 0;
#X connect 36 0 7 0;
#X connect 37 0 3 0;
#X connect 38 0 39 0;
#X connect 39 0 41 0;
#X connect 39 0 42 0;
#X connect 40 0 5 0;
#X connect 41 0 40 1;
#X connect 42 0 45 1;
#X connect 44 0 43 0;
#X connect 45 0 44 0;
