#N canvas 150 175 450 300 12;
#X obj 16 9 r cue_list;
#X msg 356 95 1;
#X msg 356 120 2;
#X msg 356 144 3;
#X msg 356 168 4;
#X msg 356 71 0;
#X text 349 53 test;
#X msg 356 191 5;
#N canvas 463 23 714 534 list-drip 0;
#X obj 63 84 t a a;
#X obj 63 241 spigot;
#X obj 102 149 bang;
#X obj 102 168 1;
#X obj 223 149 route bang;
#X obj 183 150 bang;
#X obj 183 169 0;
#X obj 102 114 list split 2;
#X obj 232 379 list split;
#X obj 299 328 list length;
#X obj 299 350 >> 1;
#X obj 63 260 t a a a a;
#X obj 63 446 list split;
#X obj 130 398 list length;
#X obj 130 423 >> 1;
#X obj 31 19 inlet;
#X obj 290 175 outlet;
#X text 73 19 Copyright 2009 by Mathieu Bouchard;
#X obj 31 53 t b a;
#X obj 465 119 outlet;
#X text 520 121 signal end of list;
#X text 381 23 made compatible with [list-drip]: fbar 2009;
#X connect 0 0 1 0;
#X connect 0 1 7 0;
#X connect 1 0 11 0;
#X connect 2 0 3 0;
#X connect 3 0 1 1;
#X connect 4 1 16 0;
#X connect 5 0 6 0;
#X connect 6 0 1 1;
#X connect 7 0 2 0;
#X connect 7 2 4 0;
#X connect 7 2 5 0;
#X connect 8 0 0 0;
#X connect 9 0 10 0;
#X connect 10 0 8 1;
#X connect 11 0 12 0;
#X connect 11 1 13 0;
#X connect 11 2 8 0;
#X connect 11 3 9 0;
#X connect 12 1 0 0;
#X connect 13 0 14 0;
#X connect 14 0 12 1;
#X connect 15 0 18 0;
#X connect 18 0 19 0;
#X connect 18 1 0 0;
#X restore 16 110 pd list-drip;
#X obj 16 198 route symbol;
#X msg 47 62 clear;
#X obj 16 35 t a b;
#X obj 288 3 r PED;
#N canvas 222 445 177 196 count_7 0;
#X floatatom 59 106 2 0 0 0 - - - 0;
#X obj 94 70 + 1;
#X obj 59 13 inlet;
#X obj 59 131 outlet;
#X obj 59 38 sel 1;
#X obj 59 69 f;
#X obj 124 70 mod 7;
#X connect 0 0 3 0;
#X connect 1 0 6 0;
#X connect 2 0 4 0;
#X connect 4 0 5 0;
#X connect 5 0 1 0;
#X connect 5 0 0 0;
#X connect 6 0 5 1;
#X restore 288 29 pd count_7;
#X floatatom 264 217 5 0 0 0 - - - 0;
#X obj 119 48 s PED;
#X msg 119 24 1;
#X obj 306 217 s cue;
#X obj 16 232 text set cue_list_buffer;
#X obj 69 137 text size cue_list_buffer;
#X obj 69 162 s cueListSize;
#X obj 47 86 text define cue_list_buffer;
#X connect 0 0 11 0;
#X connect 1 0 17 0;
#X connect 2 0 17 0;
#X connect 3 0 17 0;
#X connect 4 0 17 0;
#X connect 5 0 17 0;
#X connect 7 0 17 0;
#X connect 8 0 9 0;
#X connect 8 1 19 0;
#X connect 9 0 18 0;
#X connect 9 1 18 1;
#X connect 10 0 21 0;
#X connect 11 0 8 0;
#X connect 11 1 10 0;
#X connect 12 0 13 0;
#X connect 13 0 14 0;
#X connect 13 0 17 0;
#X connect 16 0 15 0;
#X connect 19 0 20 0;
