#N canvas 736 317 1144 568 12;
#X obj 107 102 netreceive -u -b 5006;
#X obj 74 184 bng 15 250 50 0 empty empty empty 17 7 0 10 #fcfcfc #000000 #000000;
#X obj 75 233 bng 15 250 50 0 empty empty empty 17 7 0 10 #fcfcfc #000000 #000000;
#X obj 221 227 bng 15 250 50 0 empty empty empty 17 7 0 10 #fcfcfc #000000 #000000;
#X obj 221 185 bng 15 250 50 0 empty empty empty 17 7 0 10 #fcfcfc #000000 #000000;
#X text 7 185 up left;
#X text 3 231 down left;
#X text 269 185 up right;
#X text 265 231 down right;
#X text 105 61 buttons receive;
#X text 518 13 set "display" : "mopidy" in config.json computerInfo to enable python server;
#X msg 681 390 connect localhost 5005;
#X msg 117 221 upLeft;
#X msg 138 260 downLeft;
#X msg 270 258 upRight;
#X msg 270 307 downRight;
#X obj 527 391 list prepend send;
#X obj 527 416 list trim;
#X obj 537 484 netsend -u;
#X msg 584 305 list cue \$1;
#X floatatom 584 274 5 0 0 0 - - - 0;
#X obj 823 313 shell;
#X obj 823 212 getdir;
#X obj 681 180 bng 15 250 50 0 empty empty empty 17 7 0 10 #fcfcfc #000000 #000000;
#X msg 823 237 python3 \$1/../script/python/display.py;
#X msg 542 215 track 1 helloWorld;
#X obj 681 268 delay 5000;
#X obj 560 514 tgl 15 0 empty empty empty 17 7 0 10 #fcfcfc #000000 #000000 0 1;
#X text 834 279 python server is launched by shell object;
#X obj 27 490 outlet;
#X obj 27 414 r \$0button;
#X obj 27 439 list prepend button;
#X obj 27 465 list trim;
#X text 551 187 send to screen;
#X msg 553 240 track foo bar;
#X text 731 172 launch python server and connect Pd client;
#X text 15 10 patko2022;
#X obj 681 77 bng 20 250 50 0 empty empty empty 0 -10 0 12 #fcfcfc #000000 #000000;
#X obj 681 52 loadbang;
#X obj 367 61 inlet;
#X obj 367 86 route track cue;
#X obj 367 133 list split 2;
#X obj 464 131 list split 1;
#X obj 367 162 list prepend track, f 7;
#X obj 464 162 list prepend cue, f 7;
#N canvas 283 425 450 359 getDisplayConfig 0;
#X obj 3 6 inlet;
#X obj 3 29 s callback;
#X obj 3 57 r computer_ID;
#X obj 3 82 list split 1;
#X text 115 81 get mac address;
#X obj 3 108 text search machineConfig 2;
#X obj 56 159 text get machineConfig 0;
#X obj 56 184 list append display;
#X obj 56 209 text search machineConfig 0 1;
#X obj 3 133 route -1;
#X obj 56 232 route -1;
#X obj 109 256 text get machineConfig 2;
#X obj 109 301 route mopidy;
#X obj 109 326 outlet;
#X obj 109 278 list trim;
#X connect 0 0 1 0;
#X connect 2 0 3 0;
#X connect 3 0 5 0;
#X connect 5 0 9 0;
#X connect 6 0 7 0;
#X connect 7 0 8 0;
#X connect 8 0 10 0;
#X connect 9 1 6 0;
#X connect 10 1 11 0;
#X connect 11 0 14 0;
#X connect 12 0 13 0;
#X connect 14 0 12 0;
#X restore 681 102 pd getDisplayConfig;
#X obj 117 360 s \$0button;
#X obj 109 127 route 65 66 89 88;
#X connect 0 0 47 0;
#X connect 1 0 12 0;
#X connect 2 0 13 0;
#X connect 3 0 15 0;
#X connect 4 0 14 0;
#X connect 11 0 18 0;
#X connect 12 0 46 0;
#X connect 13 0 46 0;
#X connect 14 0 46 0;
#X connect 15 0 46 0;
#X connect 16 0 17 0;
#X connect 17 0 18 0;
#X connect 18 0 27 0;
#X connect 19 0 16 0;
#X connect 20 0 19 0;
#X connect 22 0 24 0;
#X connect 23 0 22 0;
#X connect 23 0 26 0;
#X connect 24 0 21 0;
#X connect 25 0 16 0;
#X connect 26 0 11 0;
#X connect 30 0 31 0;
#X connect 31 0 32 0;
#X connect 32 0 29 0;
#X connect 34 0 16 0;
#X connect 37 0 45 0;
#X connect 38 0 37 0;
#X connect 39 0 40 0;
#X connect 40 0 41 0;
#X connect 40 1 42 0;
#X connect 41 0 43 0;
#X connect 42 0 44 0;
#X connect 43 0 16 0;
#X connect 44 0 16 0;
#X connect 45 0 23 0;
#X connect 47 0 1 0;
#X connect 47 1 2 0;
#X connect 47 2 3 0;
#X connect 47 3 4 0;
