#N canvas 572 93 801 707 12;
#X declare -path else;
#X msg 515 114 q \$1;
#X floatatom 440 94 6 0 0 0 - - - 0;
#X floatatom 515 93 4 0 1000 0 - - - 0;
#X obj 440 72 mtof;
#X floatatom 440 51 5 0 256 0 - - - 0;
#X obj 589 73 tgl 15 0 empty empty empty 17 7 0 10 #fcfcfc #000000 #000000 0 1;
#X msg 537 234 q \$1;
#X floatatom 440 214 6 0 0 0 - - - 0;
#X floatatom 537 213 4 0 1000 0 - - - 0;
#X obj 440 192 mtof;
#X floatatom 440 171 5 0 256 0 - - - 0;
#X obj 582 171 hsl 128 15 0 1 0 0 empty empty empty -2 -8 0 10 #fcfcfc #000000 #000000 0 1;
#X floatatom 579 191 5 0 0 0 - - - 0;
#X msg 536 358 q \$1;
#X floatatom 439 338 6 0 0 0 - - - 0;
#X floatatom 536 337 4 0 1000 0 - - - 0;
#X obj 439 316 mtof;
#X floatatom 439 295 5 0 256 0 - - - 0;
#X obj 581 300 hsl 128 15 0 1 0 0 empty empty empty -2 -8 0 10 #fcfcfc #000000 #000000 0 1;
#X floatatom 578 340 5 0 0 0 - - - 0;
#X msg 536 482 q \$1;
#X floatatom 439 462 6 0 0 0 - - - 0;
#X floatatom 536 461 4 0 1000 0 - - - 0;
#X obj 439 440 mtof;
#X floatatom 439 419 5 0 256 0 - - - 0;
#X obj 581 434 hsl 128 15 0 1 0 0 empty empty empty -2 -8 0 10 #fcfcfc #000000 #000000 0 1;
#X floatatom 578 454 5 0 0 0 - - - 0;
#X msg 537 610 q \$1;
#X floatatom 440 590 6 0 0 0 - - - 0;
#X floatatom 537 589 4 0 1000 0 - - - 0;
#X obj 440 568 mtof;
#X floatatom 440 547 5 0 256 0 - - - 0;
#X obj 582 552 hsl 128 15 0 1 0 0 empty empty empty -2 -8 0 10 #fcfcfc #000000 #000000 0 1;
#X floatatom 579 572 5 0 0 0 - - - 0;
#X text 143 59 Patko2022;
#X obj 123 103 inlet~;
#X obj 123 508 outlet~;
#N canvas 121 146 450 300 DSP~ 0;
#X obj 52 15 inlet~;
#X obj 52 263 outlet~;
#X obj 383 165 switch~;
#X obj 343 12 inlet switch;
#X obj 236 61 r \$0f1;
#X obj 248 92 r \$0f2;
#X obj 251 124 r \$0f3;
#X obj 257 152 r \$0f4;
#X obj 254 179 r \$0f5;
#X obj 52 93 peakFilter 200 0.5 0;
#X obj 52 124 peakFilter 400 0.5 0;
#X obj 52 154 peakFilter 800 0.5 0;
#X obj 52 183 peakFilter 1600 0.5 0;
#X obj 52 210 peakFilter 3200 1 0.5;
#X obj 234 24 r \$0f0;
#X obj 52 62 highpassFilter 50 0.5;
#X obj 343 51 sel 0 1;
#X msg 330 128 0;
#X msg 383 101 1;
#X obj 330 100 del 50;
#X connect 0 0 15 0;
#X connect 3 0 16 0;
#X connect 4 0 9 1;
#X connect 5 0 10 1;
#X connect 6 0 11 1;
#X connect 7 0 12 1;
#X connect 8 0 13 1;
#X connect 9 0 10 0;
#X connect 10 0 11 0;
#X connect 11 0 12 0;
#X connect 12 0 13 0;
#X connect 13 0 1 0;
#X connect 14 0 15 1;
#X connect 15 0 9 0;
#X connect 16 0 19 0;
#X connect 16 1 18 0;
#X connect 17 0 2 0;
#X connect 18 0 2 0;
#X connect 19 0 17 0;
#X restore 123 278 pd DSP~;
#X obj 123 243 *~;
#X obj 272 197 line~;
#X obj 272 106 route onOff;
#X obj 362 166 == 0;
#X obj 212 292 *~;
#X obj 362 220 line~;
#N canvas 73 478 450 300 OSC 0;
#X obj 98 209 s \$0f1;
#X obj 125 187 s \$0f2;
#X obj 152 165 s \$0f3;
#X obj 180 144 s \$0f4;
#X obj 207 122 s \$0f5;
#X obj 98 35 r filter\$1;
#X obj 98 59 route f1 f2 f3 f4 f5 f0;
#X obj 231 92 s \$0f0;
#X connect 5 0 6 0;
#X connect 6 0 0 0;
#X connect 6 1 1 0;
#X connect 6 2 2 0;
#X connect 6 3 3 0;
#X connect 6 4 4 0;
#X connect 6 5 7 0;
#X restore 29 102 pd OSC;
#X obj 203 153 tgl 19 0 empty empty empty 0 -10 0 12 #fcfcfc #000000 #000000 0 1;
#X text 323 12 parametric equalizer with q;
#X obj 146 18 declare -path else;
#X text 143 40 Please install else;
#X msg 579 237 level \$1;
#X msg 578 361 level \$1;
#X msg 578 485 level \$1;
#X msg 579 613 level \$1;
#X obj 272 82 r filter\$1;
#X obj 272 168 pack 0 50;
#X obj 362 191 pack 0 50;
#X obj 439 147 s \$0f0;
#X obj 439 267 s \$0f1;
#X obj 438 391 s \$0f2;
#X obj 438 515 s \$0f3;
#X obj 439 643 s \$0f4;
#X msg 440 115 freq \$1;
#X msg 589 117 onOff \$1;
#N canvas 63 88 450 300 num2bool 0;
#X obj 122 26 inlet;
#X obj 120 82 route 0 1;
#X obj 122 178 symbol;
#X msg 137 137 true;
#X msg 85 139 false;
#X obj 122 202 outlet;
#X connect 0 0 1 0;
#X connect 1 0 4 0;
#X connect 1 1 3 0;
#X connect 2 0 5 0;
#X connect 3 0 2 0;
#X connect 4 0 2 0;
#X restore 589 92 pd num2bool;
#X msg 440 235 freq \$1;
#X msg 439 359 freq \$1;
#X msg 439 483 freq \$1;
#X msg 440 611 freq \$1;
#X obj 664 191 tgl 15 0 empty empty empty 17 7 0 10 #fcfcfc #000000 #000000 0 1;
#X msg 664 235 onOff \$1;
#N canvas 63 88 450 300 num2bool 0;
#X obj 122 26 inlet;
#X obj 120 82 route 0 1;
#X obj 122 178 symbol;
#X msg 137 137 true;
#X msg 85 139 false;
#X obj 122 202 outlet;
#X connect 0 0 1 0;
#X connect 1 0 4 0;
#X connect 1 1 3 0;
#X connect 2 0 5 0;
#X connect 3 0 2 0;
#X connect 4 0 2 0;
#X restore 664 210 pd num2bool;
#X obj 657 322 tgl 15 0 empty empty empty 17 7 0 10 #fcfcfc #000000 #000000 0 1;
#X msg 657 366 onOff \$1;
#N canvas 63 88 450 300 num2bool 0;
#X obj 122 26 inlet;
#X obj 120 82 route 0 1;
#X obj 122 178 symbol;
#X msg 137 137 true;
#X msg 85 139 false;
#X obj 122 202 outlet;
#X connect 0 0 1 0;
#X connect 1 0 4 0;
#X connect 1 1 3 0;
#X connect 2 0 5 0;
#X connect 3 0 2 0;
#X connect 4 0 2 0;
#X restore 657 341 pd num2bool;
#X obj 670 453 tgl 15 0 empty empty empty 17 7 0 10 #fcfcfc #000000 #000000 0 1;
#X msg 670 497 onOff \$1;
#N canvas 63 88 450 300 num2bool 0;
#X obj 122 26 inlet;
#X obj 120 82 route 0 1;
#X obj 122 178 symbol;
#X msg 137 137 true;
#X msg 85 139 false;
#X obj 122 202 outlet;
#X connect 0 0 1 0;
#X connect 1 0 4 0;
#X connect 1 1 3 0;
#X connect 2 0 5 0;
#X connect 3 0 2 0;
#X connect 4 0 2 0;
#X restore 670 472 pd num2bool;
#X obj 667 572 tgl 15 0 empty empty empty 17 7 0 10 #fcfcfc #000000 #000000 0 1;
#X msg 667 616 onOff \$1;
#N canvas 63 88 450 300 num2bool 0;
#X obj 122 26 inlet;
#X obj 120 82 route 0 1;
#X obj 122 178 symbol;
#X msg 137 137 true;
#X msg 85 139 false;
#X obj 122 202 outlet;
#X connect 0 0 1 0;
#X connect 1 0 4 0;
#X connect 1 1 3 0;
#X connect 2 0 5 0;
#X connect 3 0 2 0;
#X connect 4 0 2 0;
#X restore 667 591 pd num2bool;
#X connect 0 0 56 0;
#X connect 1 0 61 0;
#X connect 2 0 0 0;
#X connect 3 0 1 0;
#X connect 4 0 3 0;
#X connect 5 0 63 0;
#X connect 6 0 57 0;
#X connect 7 0 64 0;
#X connect 8 0 6 0;
#X connect 9 0 7 0;
#X connect 10 0 9 0;
#X connect 11 0 12 0;
#X connect 12 0 49 0;
#X connect 13 0 58 0;
#X connect 14 0 65 0;
#X connect 15 0 13 0;
#X connect 16 0 14 0;
#X connect 17 0 16 0;
#X connect 18 0 19 0;
#X connect 19 0 50 0;
#X connect 20 0 59 0;
#X connect 21 0 66 0;
#X connect 22 0 20 0;
#X connect 23 0 21 0;
#X connect 24 0 23 0;
#X connect 25 0 26 0;
#X connect 26 0 51 0;
#X connect 27 0 60 0;
#X connect 28 0 67 0;
#X connect 29 0 27 0;
#X connect 30 0 28 0;
#X connect 31 0 30 0;
#X connect 32 0 33 0;
#X connect 33 0 52 0;
#X connect 35 0 38 0;
#X connect 35 0 42 0;
#X connect 37 0 36 0;
#X connect 38 0 37 0;
#X connect 39 0 38 1;
#X connect 40 0 41 0;
#X connect 40 0 45 0;
#X connect 40 0 54 0;
#X connect 40 0 37 1;
#X connect 41 0 55 0;
#X connect 42 0 36 0;
#X connect 43 0 42 1;
#X connect 49 0 57 0;
#X connect 50 0 58 0;
#X connect 51 0 59 0;
#X connect 52 0 60 0;
#X connect 53 0 40 0;
#X connect 54 0 39 0;
#X connect 55 0 43 0;
#X connect 61 0 56 0;
#X connect 62 0 56 0;
#X connect 63 0 62 0;
#X connect 64 0 57 0;
#X connect 65 0 58 0;
#X connect 66 0 59 0;
#X connect 67 0 60 0;
#X connect 68 0 70 0;
#X connect 69 0 57 0;
#X connect 70 0 69 0;
#X connect 71 0 73 0;
#X connect 72 0 58 0;
#X connect 73 0 72 0;
#X connect 74 0 76 0;
#X connect 75 0 59 0;
#X connect 76 0 75 0;
#X connect 77 0 79 0;
#X connect 78 0 60 0;
#X connect 79 0 78 0;
