#N canvas 63 88 450 300 12;
#X msg 136 99 1;
#X msg 251 71 0;
#X obj 198 48 sel \$1;
#X obj 205 169 outlet;
#X obj 198 6 r Group;
#X connect 0 0 3 0;
#X connect 1 0 3 0;
#X connect 2 0 0 0;
#X connect 2 1 1 0;
#X connect 4 0 2 0;
