#N canvas 190 179 477 438 12;
#X obj 39 13 inlet~;
#X obj 39 404 outlet~;
#X obj 38 314 *~;
#X obj 140 314 *~;
#X obj 363 22 loadbang;
#X obj 360 267 line~;
#X obj 238 267 line~;
#X msg 362 45 0;
#N canvas 524 188 450 300 highpass 0;
#X obj 23 13 inlet~;
#X obj 86 12 inlet;
#X obj 23 254 outlet~;
#X obj 384 176 switch~;
#X obj 330 14 inlet;
#X obj 23 152 else/highpass~ \$1 \$2 \$3;
#X obj 103 106 route freq q;
#X obj 330 52 sel 0 1;
#X msg 330 128 0;
#X msg 383 101 1;
#X obj 330 100 del 50;
#X connect 0 0 5 0;
#X connect 1 0 6 0;
#X connect 4 0 7 0;
#X connect 5 0 2 0;
#X connect 6 0 5 1;
#X connect 6 1 5 2;
#X connect 7 0 10 0;
#X connect 7 1 9 0;
#X connect 8 0 3 0;
#X connect 9 0 3 0;
#X connect 10 0 8 0;
#X restore 141 196 pd highpass;
#X obj 177 48 route onOff;
#X obj 238 218 -;
#X msg 238 193 1 \$1;
#X obj 238 243 pack f 50;
#X obj 360 243 pack f 50;
#X obj 177 17 inlet;
#X obj 241 133 f;
#X obj 109 75 route true false;
#X msg 109 101 1;
#X msg 163 101 0;
#X connect 0 0 2 0;
#X connect 0 0 8 0;
#X connect 2 0 1 0;
#X connect 3 0 1 0;
#X connect 4 0 7 0;
#X connect 5 0 3 1;
#X connect 6 0 2 1;
#X connect 7 0 15 0;
#X connect 8 0 3 0;
#X connect 9 0 16 0;
#X connect 9 1 8 1;
#X connect 10 0 12 0;
#X connect 11 0 10 0;
#X connect 12 0 6 0;
#X connect 13 0 5 0;
#X connect 14 0 9 0;
#X connect 15 0 11 0;
#X connect 15 0 13 0;
#X connect 15 0 8 2;
#X connect 16 0 17 0;
#X connect 16 1 18 0;
#X connect 17 0 15 0;
#X connect 18 0 15 0;
