#N canvas 42 189 478 523 12;
#X obj 39 13 inlet~;
#X obj 39 454 outlet~;
#X obj 177 15 inlet;
#X obj 38 364 *~;
#X obj 361 269 -;
#X msg 361 244 1 \$1;
#X obj 140 364 *~;
#X obj 363 22 loadbang;
#X obj 360 293 pack f 200;
#X obj 360 317 line~;
#X obj 267 290 pack f 200;
#X obj 267 314 line~;
#X msg 362 45 0;
#X obj 177 43 route bypass;
#N canvas 524 188 450 300 parametric 1;
#X obj 23 13 inlet~;
#X obj 184 14 inlet;
#X obj 30 253 outlet~;
#X obj 309 111 switch~;
#X obj 309 13 inlet;
#X connect 4 0 3 0;
#X restore 141 246 pd parametric;
#X connect 0 0 3 0;
#X connect 0 0 14 0;
#X connect 2 0 13 0;
#X connect 3 0 1 0;
#X connect 4 0 8 0;
#X connect 5 0 4 0;
#X connect 6 0 1 0;
#X connect 7 0 12 0;
#X connect 8 0 9 0;
#X connect 9 0 6 1;
#X connect 10 0 11 0;
#X connect 11 0 3 1;
#X connect 12 0 5 0;
#X connect 13 0 10 0;
#X connect 13 0 5 0;
#X connect 13 0 14 2;
#X connect 13 1 14 1;
#X connect 14 0 6 0;
