#N canvas 363 45 1054 520 12;
#X obj 13 402 outlet;
#N canvas 337 42 585 711 getCue 0;
#X obj 275 107 r cue;
#X obj 321 163 s init_cue;
#X obj 34 27 inlet;
#X obj 34 51 t a b;
#X msg 66 75 -1;
#N canvas 806 95 286 357 cuelistToText 0;
#X obj 16 5 inlet;
#X obj 17 315 outlet;
#X obj 48 53 json-decode;
#X obj 102 241 t a b;
#X msg 134 264 1e+15;
#X obj 102 289 text set cueList;
#X obj 56 175 list append;
#X obj 102 204 list append;
#X obj 85 80 list trim;
#X obj 16 29 t b a;
#X obj 48 152 f;
#X obj 85 111 route id name triggers;
#X connect 0 0 9 0;
#X connect 2 0 10 0;
#X connect 2 1 8 0;
#X connect 3 0 5 0;
#X connect 3 1 4 0;
#X connect 4 0 5 1;
#X connect 6 0 7 0;
#X connect 7 0 3 0;
#X connect 8 0 11 0;
#X connect 9 0 1 0;
#X connect 9 1 2 0;
#X connect 10 0 6 0;
#X connect 11 0 10 1;
#X connect 11 1 6 1;
#X connect 11 2 7 1;
#X restore 34 126 pd cuelistToText;
#X obj 275 141 t b a b;
#X obj 34 401 outlet;
#X obj 66 97 text delete cueList;
#X obj 275 85 text define cueList;
#X obj 298 186 text search cueList;
#X obj 250 668 s cue_param;
#X obj 298 210 text get cueList;
#X obj 209 269 list split 2;
#X obj 250 591 list prepend;
#X obj 331 569 list split 2;
#X obj 298 234 t a a;
#X obj 249 345 route id;
#X obj 169 548 list prepend;
#X obj 212 296 json-decode;
#X obj 249 321 list trim;
#X obj 213 460 list;
#X obj 349 363 list;
#X obj 348 431 list prepend;
#X obj 428 409 t l;
#X obj 92 491 list-abs/list-drip;
#X obj 250 624 list trim;
#X obj 64 515 list-abs/list-group 2;
#X obj 199 372 t b b;
#X text 165 13 Les parametres de cues sont stockés dans un buffer texte pour éviter de réouvrir le fichier json et provoquer des glitches \, on peut stocker des objets json dans les parametres mais il faudra ensuite les décoder.;
#X connect 0 0 6 0;
#X connect 2 0 3 0;
#X connect 3 0 5 0;
#X connect 3 1 4 0;
#X connect 4 0 8 0;
#X connect 5 0 7 0;
#X connect 6 1 10 0;
#X connect 6 2 1 0;
#X connect 10 0 12 0;
#X connect 12 0 16 0;
#X connect 13 1 19 0;
#X connect 14 0 26 0;
#X connect 15 0 14 1;
#X connect 16 0 13 0;
#X connect 16 1 15 0;
#X connect 17 0 18 1;
#X connect 17 1 22 0;
#X connect 18 0 14 0;
#X connect 19 0 28 0;
#X connect 19 1 20 0;
#X connect 20 0 17 0;
#X connect 21 0 25 0;
#X connect 22 0 23 0;
#X connect 23 0 24 0;
#X connect 23 0 21 1;
#X connect 24 0 23 1;
#X connect 25 0 27 0;
#X connect 26 0 11 0;
#X connect 27 0 18 0;
#X connect 28 0 21 0;
#X connect 28 1 24 0;
#X restore 13 269 pd getCue;
#X obj 45 198 s \$0configFile;
#N canvas 570 415 457 301 getGlobals 0;
#X obj 26 240 outlet;
#N canvas 63 334 669 510 decodeJSON 0;
#X obj 7 6 inlet;
#X obj 139 173 json-decode;
#X obj 7 63 json-encode;
#X obj 7 86 json-decode;
#X obj 324 479 outlet;
#X obj 380 232 r computer_number;
#X obj 81 355 s globalSettings;
#X obj 412 480 s computer_param;
#X obj 44 151 route globalSettings modules;
#X obj 7 30 t a b;
#X msg 360 77 0;
#X obj 176 217 route computerID;
#X obj 176 286 select symbol;
#X obj 324 403 spigot;
#X msg 176 239 computer_\$1;
#X msg 177 309 1;
#X obj 44 173 json-decode;
#X obj 44 128 list trim;
#X obj 176 196 list trim;
#X obj 176 263 list;
#X msg 248 310 0;
#X obj 324 456 route cueList;
#X obj 288 374 list;
#X obj 320 342 t b a;
#X obj 324 429 list trim;
#X text 378 344 remove order sensitive computerID;
#X obj 81 323 list trim;
#X connect 0 0 9 0;
#X connect 1 1 18 0;
#X connect 2 0 3 0;
#X connect 3 1 17 0;
#X connect 5 0 12 1;
#X connect 8 0 16 0;
#X connect 8 1 1 0;
#X connect 9 0 2 0;
#X connect 9 1 10 0;
#X connect 10 0 13 1;
#X connect 11 0 14 0;
#X connect 11 1 22 0;
#X connect 12 0 15 0;
#X connect 12 1 20 0;
#X connect 13 0 24 0;
#X connect 14 0 19 0;
#X connect 15 0 23 0;
#X connect 16 1 26 0;
#X connect 17 0 8 0;
#X connect 18 0 11 0;
#X connect 19 0 12 0;
#X connect 20 0 23 0;
#X connect 21 0 4 0;
#X connect 21 1 7 0;
#X connect 22 0 13 0;
#X connect 23 0 22 0;
#X connect 23 1 13 1;
#X connect 24 0 21 0;
#X connect 26 0 6 0;
#X restore 27 160 pd decodeJSON;
#X obj 27 28 inlet dir;
#X text 140 157 Récupère le nom du musicien dans le fichier de config de la composition, f 38;
#X obj 27 88 list prepend;
#X msg 27 110 read \$1 \, bang;
#X obj 108 65 r \$0configFile;
#X connect 1 0 0 0;
#X connect 2 0 4 0;
#X connect 4 0 5 0;
#X connect 5 0 1 0;
#X connect 6 0 4 1;
#X restore 13 228 pd getGlobals;
#X text 108 302 pour récupérer les parametres par cue \, utiliser:;
#X obj 173 226 r globalSettings;
#X obj 757 49 r computer_param;
#X obj 757 77 list split 1;
#X obj 772 144 list;
#X obj 757 103 t b a;
#X obj 854 196 send;
#X text 658 26 converti les parametres JSON vers PureData FUDI;
#X obj 114 326 r cue_param;
#X text 174 204 pour récupérer les réglages de tout l'ensemble utiliser:;
#X text 12 2 trackConfig.json est le fichier de configuration où sont inscrits les parametres de composition \, et d'interface O-S-C., f 62;
#X text 641 235 Les clés qui ne sont pas filtrées servent de symbole global où la valeur est envoyée, f 43;
#X msg 45 176 ../compositions/\$1/trackConfig.json;
#X obj 13 154 t a a;
#X obj 13 39 loadbang;
#X obj 104 39 bng 19 250 50 0 empty empty empty 0 -10 0 12 #fcfcfc #000000 #000000;
#X text 99 266 <-- filtre l'objet "cueList" qui doit contenir un objet \, plus de détails dans le sous-patch;
#X text 609 283 exemple: si le nom du musicien est défini dans l'objet 'module' il apparait ici;
#X obj 752 316 r Musician;
#X text 410 51 pour récupérer les autres parametres du module:;
#X obj 772 168 list trim;
#X obj 752 338 symbol;
#X obj 481 423 text define samples_listing;
#N canvas 312 254 450 435 setSamplesListing 0;
#X obj 123 15 r computer_param;
#X obj 123 37 route samples;
#X obj 123 137 json-decode;
#X obj 177 282 t a b;
#X msg 209 305 1e+15;
#X obj 131 233 list append;
#X obj 177 260 list append;
#X obj 160 160 list trim;
#X obj 123 210 f;
#X obj 177 330 text set samples_listing;
#X obj 123 60 t a b;
#X msg 155 82 -1;
#X obj 155 106 text delete samples_listing;
#X obj 160 182 route id sampleDir sampleName;
#X obj 132 364 s \$0checkMissingSamples;
#X obj 132 306 t a a;
#X connect 0 0 1 0;
#X connect 1 0 10 0;
#X connect 2 0 8 0;
#X connect 2 1 7 0;
#X connect 3 0 15 0;
#X connect 3 1 4 0;
#X connect 4 0 9 1;
#X connect 5 0 6 0;
#X connect 6 0 3 0;
#X connect 7 0 13 0;
#X connect 8 0 5 0;
#X connect 10 0 2 0;
#X connect 10 1 11 0;
#X connect 11 0 12 0;
#X connect 13 0 8 1;
#X connect 13 1 5 1;
#X connect 13 2 6 1;
#X connect 15 0 14 0;
#X connect 15 1 9 0;
#X restore 205 468 pd setSamplesListing;
#X text 199 449 si des samples sont déclarés dans un tableau 'samples':;
#N canvas 411 356 718 499 getSampleFromListing 0;
#X obj 19 20 r getSamplePathFromName;
#X obj 59 119 text get samples_listing;
#X obj 59 95 text search samples_listing 1;
#X obj 59 67 symbol;
#X obj 350 96 text get samples_listing;
#X obj 319 14 r getSamplePathFromID;
#X obj 350 72 text search samples_listing;
#X obj 389 350 list prepend;
#X obj 84 410 list append;
#X obj 84 459 s samplePath;
#X obj 84 434 list trim;
#X obj 318 45 list split 1;
#X obj 19 43 list split 1;
#X obj 562 196 r globalSettings;
#X obj 562 220 list trim;
#X obj 562 244 route soundPath;
#X obj 350 152 list split 1;
#X obj 408 186 r moduleID;
#X obj 408 219 symbol;
#X msg 409 296 symbol \$1/\$2;
#X obj 409 273 list prepend;
#X msg 389 374 symbol \$1/\$2/\$3;
#X connect 0 0 12 0;
#X connect 2 0 1 0;
#X connect 3 0 2 0;
#X connect 4 0 16 0;
#X connect 5 0 11 0;
#X connect 6 0 4 0;
#X connect 7 0 21 0;
#X connect 8 0 10 0;
#X connect 10 0 9 0;
#X connect 11 0 8 0;
#X connect 11 1 6 0;
#X connect 12 1 3 0;
#X connect 13 0 14 0;
#X connect 14 0 15 0;
#X connect 15 0 7 1;
#X connect 16 1 7 0;
#X connect 18 0 20 0;
#X connect 20 0 19 0;
#X connect 21 0 8 1;
#X restore 711 470 pd getSampleFromListing;
#X text 614 448 on récupère le chemin vers le sample avec le nom associé ou l'id;
#X text 884 470 < voir ici;
#X obj 45 86 s callback;
#X text 10 478 patko2024;
#X obj 13 130 symbol;
#X obj 52 109 r composition_name;
#X obj 13 64 t b b;
#X msg 368 111 \; computer_number symbol computer_80;
#X text 374 88 simulation du module 80;
#X text 38 353 <float> numéro de cue <symbol> nom de cue <float> numero de trigger <symbol> parametre <anything> valeur, f 79;
#X msg 752 362 set \$1;
#X msg 752 386;
#X connect 1 0 0 0;
#X connect 3 0 1 0;
#X connect 6 0 7 0;
#X connect 7 0 9 0;
#X connect 7 1 8 1;
#X connect 8 0 24 0;
#X connect 9 0 8 0;
#X connect 9 1 10 1;
#X connect 16 0 2 0;
#X connect 17 0 3 0;
#X connect 17 1 16 0;
#X connect 18 0 36 0;
#X connect 19 0 36 0;
#X connect 22 0 25 0;
#X connect 24 0 10 0;
#X connect 25 0 40 0;
#X connect 34 0 17 0;
#X connect 35 0 34 1;
#X connect 36 0 34 0;
#X connect 36 1 32 0;
#X connect 40 0 41 0;
