#N canvas 208 54 599 792 12;
#N canvas 463 25 714 534 list-drip 0;
#X obj 63 84 t a a;
#X obj 63 241 spigot;
#X obj 102 149 bang;
#X obj 102 168 1;
#X obj 223 149 route bang;
#X obj 183 150 bang;
#X obj 183 169 0;
#X obj 102 114 list split 2;
#X obj 232 379 list split;
#X obj 299 328 list length;
#X obj 299 350 >> 1;
#X obj 63 260 t a a a a;
#X obj 63 446 list split;
#X obj 130 398 list length;
#X obj 130 423 >> 1;
#X obj 31 19 inlet;
#X obj 290 175 outlet;
#X text 73 19 Copyright 2009 by Mathieu Bouchard;
#X obj 31 53 t b a;
#X obj 465 119 outlet;
#X text 520 121 signal end of list;
#X text 381 23 made compatible with [list-drip]: fbar 2009;
#X connect 0 0 1 0;
#X connect 0 1 7 0;
#X connect 1 0 11 0;
#X connect 2 0 3 0;
#X connect 3 0 1 1;
#X connect 4 1 16 0;
#X connect 5 0 6 0;
#X connect 6 0 1 1;
#X connect 7 0 2 0;
#X connect 7 2 4 0;
#X connect 7 2 5 0;
#X connect 8 0 0 0;
#X connect 9 0 10 0;
#X connect 10 0 8 1;
#X connect 11 0 12 0;
#X connect 11 1 13 0;
#X connect 11 2 8 0;
#X connect 11 3 9 0;
#X connect 12 1 0 0;
#X connect 13 0 14 0;
#X connect 14 0 12 1;
#X connect 15 0 18 0;
#X connect 18 0 19 0;
#X connect 18 1 0 0;
#X restore 6 190 pd list-drip;
#X obj 220 509 list trim;
#X obj 220 486 list prepend add2;
#X obj 6 343 spigot;
#X msg 79 316 1;
#X msg 45 316 0;
#X obj 45 261 sel #;
#X msg 147 510 addsemi;
#X obj 6 214 t a a a;
#X obj 6 367 sel / //;
#X msg 221 457 comment;
#X obj 73 416 t b b;
#X msg 6 142 0;
#X obj 6 166 text get \$0-init_pd;
#X obj 6 2 inlet;
#X text 350 486 add send;
#X obj 97 266 sel symbol;
#X text 246 58 Charge la config du patch.;
#X text 242 27 Récupère les info de la machine.;
#X text 245 177 Parse la config du patch;
#X msg 129 314 \; trackMessageBox set \, addsemi;
#X obj 17 511 r trackMessageBox;
#X obj 97 291 t b b;
#X text 212 265 Le numéro de machine ouvre la porte et initialise la boite de message \, # ferme la porte, f 30;
#N canvas 0 54 450 300 trkParsed 0;
#X obj 36 37 inlet;
#X obj 59 144 s cue;
#X msg 59 122 0;
#X obj 36 74 t b b b;
#X obj 82 96 s trackMessageBox;
#X text 115 15 Quand le parsing est fini \, les messages sont envoyés \, le premier cue est envoyé \, et le son général est démuté., f 30;
#X obj 36 198 s mute;
#X msg 36 175 0;
#X connect 0 0 3 0;
#X connect 2 0 1 0;
#X connect 3 0 7 0;
#X connect 3 1 2 0;
#X connect 3 2 4 0;
#X connect 7 0 6 0;
#X restore 87 214 pd trkParsed;
#X text 130 368 Lorsque '/' est détecté \, un point virgule est ajouté \, et l'argument suivant devient un symbole de send. Lorsque '//' est détecté 'comment' est ajouté en entête comme symbole de send.;
#X text 178 214 Quand le parsing est fini(ouvrir sous-patch pour détails).;
#X obj 83 26 s callback;
#X obj 164 244 r computer_number;
#X obj 29 121 text define \$0-init_pd;
#X obj 11 643 outlet;
#X obj 17 539 t a a;
#X msg 93 596, f 66;
#X obj 5 594 route bang;
#X obj 6 26 t b a b;
#X msg 29 96 read \$1/_load.txt;
#X connect 0 0 8 0;
#X connect 0 1 24 0;
#X connect 1 0 32 0;
#X connect 2 0 1 0;
#X connect 3 0 9 0;
#X connect 4 0 3 1;
#X connect 5 0 3 1;
#X connect 6 0 5 0;
#X connect 7 0 32 0;
#X connect 8 0 3 0;
#X connect 8 1 6 0;
#X connect 8 2 16 0;
#X connect 9 0 7 0;
#X connect 9 1 11 0;
#X connect 9 2 2 0;
#X connect 10 0 2 0;
#X connect 11 0 10 0;
#X connect 11 1 7 0;
#X connect 12 0 13 0;
#X connect 13 0 0 0;
#X connect 14 0 34 0;
#X connect 16 0 22 0;
#X connect 21 0 31 0;
#X connect 22 0 4 0;
#X connect 22 1 20 0;
#X connect 28 0 16 1;
#X connect 31 0 33 0;
#X connect 31 1 32 0;
#X connect 33 0 30 0;
#X connect 34 0 12 0;
#X connect 34 1 35 0;
#X connect 34 2 27 0;
#X connect 35 0 29 0;
