#N canvas 142 29 992 448 12;
#X obj 13 49 inlet dir;
#X obj 13 276 outlet;
#N canvas 337 188 629 475 getCue 0;
#X obj 334 144 r cue;
#X obj 380 190 s init_cue;
#X obj 34 27 inlet;
#X obj 34 51 t a b;
#X msg 66 75 -1;
#N canvas 806 95 279 348 cuelistToText 0;
#X obj 16 28 json-decode;
#X obj 16 5 inlet;
#X obj 53 52 list split 1;
#X obj 106 169 list prepend;
#X obj 69 124 list;
#X obj 69 147 json-decode;
#X obj 53 78 t b a;
#X obj 106 193 t a b;
#X msg 138 216 1e+15;
#X obj 106 254 text set cueList;
#X obj 17 295 outlet;
#X connect 0 0 10 0;
#X connect 0 1 2 0;
#X connect 1 0 0 0;
#X connect 2 0 6 0;
#X connect 2 1 4 1;
#X connect 3 0 7 0;
#X connect 4 0 5 0;
#X connect 5 1 3 0;
#X connect 6 0 4 0;
#X connect 6 1 3 1;
#X connect 7 0 9 0;
#X connect 7 1 8 0;
#X connect 8 0 9 1;
#X restore 34 126 pd cuelistToText;
#X obj 334 168 t b a b;
#X obj 34 401 outlet;
#X obj 276 307 route symbol;
#X msg 357 250 symbol cue\$1;
#X obj 66 97 text delete cueList;
#X obj 275 95 text define cueList;
#X obj 196 248 text sequence cueList;
#X msg 233 218 line 0 \, bang;
#X obj 276 331 s cue_param;
#X obj 276 284 list trim;
#X text 165 13 Les parametres de cues sont stockés dans un buffer texte pour éviter de réouvrir le fichier json et provoquer des glitches \, on peut stocker des objets json dans les parametres mais il faudra ensuite les décrypter.;
#X connect 0 0 6 0;
#X connect 2 0 3 0;
#X connect 3 0 5 0;
#X connect 3 1 4 0;
#X connect 4 0 10 0;
#X connect 5 0 7 0;
#X connect 6 0 13 0;
#X connect 6 1 9 0;
#X connect 6 2 1 0;
#X connect 8 0 14 0;
#X connect 9 0 8 1;
#X connect 12 0 15 0;
#X connect 13 0 12 0;
#X connect 15 0 8 0;
#X restore 13 233 pd getCue;
#X obj 13 102 t a a;
#X obj 45 147 s \$0configFile;
#X msg 45 124 \$1/trackConfig.json;
#N canvas 635 263 457 301 getGlobals 0;
#X obj 16 226 outlet;
#N canvas 63 322 672 448 decodeJSON 0;
#X obj 7 6 inlet;
#X obj 139 153 json-decode;
#X obj 7 63 json-encode;
#X obj 7 86 json-decode;
#X obj 285 367 outlet;
#X obj 341 211 r computer_number;
#X obj 81 335 s globalSettings;
#X obj 373 368 s computer_param;
#X obj 44 131 route globalSettings modules;
#X obj 7 30 t a b;
#X msg 323 76 0;
#X obj 176 197 route computerID;
#X obj 176 266 select symbol;
#X obj 285 320 spigot;
#X msg 176 219 computer_\$1;
#X msg 177 289 1;
#X obj 44 153 json-decode;
#X obj 44 108 list trim;
#X obj 176 176 list trim;
#X obj 176 243 list;
#X msg 248 290 0;
#X obj 285 344 route cueList;
#X connect 0 0 9 0;
#X connect 1 1 18 0;
#X connect 2 0 3 0;
#X connect 3 1 17 0;
#X connect 5 0 12 1;
#X connect 8 0 16 0;
#X connect 8 1 1 0;
#X connect 9 0 2 0;
#X connect 9 1 10 0;
#X connect 10 0 13 1;
#X connect 11 0 14 0;
#X connect 11 1 13 0;
#X connect 12 0 15 0;
#X connect 12 1 20 0;
#X connect 13 0 21 0;
#X connect 14 0 19 0;
#X connect 15 0 13 1;
#X connect 16 1 6 0;
#X connect 17 0 8 0;
#X connect 18 0 11 0;
#X connect 19 0 12 0;
#X connect 20 0 13 1;
#X connect 21 0 4 0;
#X connect 21 1 7 0;
#X restore 16 180 pd decodeJSON;
#X obj 16 47 inlet dir;
#X text 12 2 trackConfig.json est le fichier de configuration où est inscrit le nom de la machine \, le nom du musicien \, et une liste d'objets cue contenant les parametres de jeu., f 60;
#X text 129 177 Récupère le nom du musicien dans le fichier de config de la composition, f 38;
#X obj 16 98 list prepend;
#X msg 16 130 read \$1 \, bang;
#X obj 97 75 r \$0configFile;
#X connect 1 0 0 0;
#X connect 2 0 5 0;
#X connect 5 0 6 0;
#X connect 6 0 1 0;
#X connect 7 0 5 1;
#X restore 13 192 pd getGlobals;
#X text 213 118 pour récupérer les parametres par cue \, utiliser:;
#X obj 219 142 r track_param;
#X text 133 271 pour récupérer les réglage de la machine utiliser:;
#X obj 132 301 r computer_param;
#X text 75 400 Attention \, les messages ne sont pas typés \, il faudra utiliser, f 41;
#X text 133 330 pour récupérer les réglage de tout l'ensemble utiliser:;
#X obj 132 352 r globalSettings;
#X text 91 230 <-- plus de détails dans le sous-patch;
#X obj 13 73 t a b;
#X obj 60 102 s callback;
#X text 12 2 trackConfig.json est le fichier de configuration où sont inscrits les parametres de composition.;
#X obj 262 419 s2l;
#X text 292 415 pour les listes;
#X obj 620 75 r computer_param;
#X obj 620 103 list split 1;
#X obj 635 170 list;
#X obj 620 129 t b a;
#X obj 674 204 send;
#X text 593 54 envoie computer Param:;
#X text 571 20 converti les parametres JSON vers PureData FUDI;
#X connect 0 0 15 0;
#X connect 2 0 1 0;
#X connect 3 0 6 0;
#X connect 3 1 5 0;
#X connect 5 0 4 0;
#X connect 6 0 2 0;
#X connect 15 0 3 0;
#X connect 15 1 16 0;
#X connect 20 0 21 0;
#X connect 21 0 23 0;
#X connect 21 1 22 1;
#X connect 22 0 24 0;
#X connect 23 0 22 0;
#X connect 23 1 24 1;
