#N canvas 797 51 438 269 12;
#X obj 13 49 inlet dir;
#X obj 13 217 outlet;
#N canvas 337 188 469 463 getCue 0;
#X obj 34 23 r cue;
#N canvas 282 141 471 585 decodeJSON 0;
#X obj 53 231 json-decode;
#X obj 53 185 list trim;
#X obj 16 163 json-decode;
#X obj 176 185 r computer_number;
#X obj 53 208 route computerName;
#X obj 90 255 list trim;
#X obj 90 278 route cueList;
#X obj 127 322 list trim;
#X obj 90 300 json-decode;
#X obj 254 14 inlet cue;
#X obj 237 355 route cue0;
#X msg 318 148 symbol cue\$1;
#X obj 274 401 list trim;
#X obj 237 379 json-decode;
#X obj 274 482 s cue_name;
#X obj 274 450 symbol;
#X obj 274 424 route cueName;
#X obj 254 38 t b a;
#X obj 16 95 list prepend;
#X msg 16 117 read \$1 \, bang;
#X obj 97 38 r \$0configFile;
#X obj 16 141 json-encode;
#X obj 362 487 outlet;
#X connect 0 1 5 0;
#X connect 1 0 4 0;
#X connect 2 1 1 0;
#X connect 3 0 4 1;
#X connect 4 0 0 0;
#X connect 5 0 6 0;
#X connect 6 0 8 0;
#X connect 7 0 10 0;
#X connect 8 1 7 0;
#X connect 9 0 17 0;
#X connect 10 0 13 0;
#X connect 11 0 10 1;
#X connect 12 0 16 0;
#X connect 13 1 12 0;
#X connect 15 0 14 0;
#X connect 16 0 15 0;
#X connect 16 1 22 0;
#X connect 17 0 18 0;
#X connect 17 1 11 0;
#X connect 18 0 19 0;
#X connect 19 0 21 0;
#X connect 20 0 18 1;
#X connect 21 0 2 0;
#X restore 34 159 pd decodeJSON;
#X obj 35 229 list split 1;
#X obj 74 253 json-decode;
#X text 111 23 converti les parametres JSON vers PureData FUDI;
#X text 68 62 dans le fichier json la clé "instrument" et l'objet "parametre" : "valeur" deviennent 'mon_intrument 'mon_parametre' 'ma valeur' et sont envoyés via l'objet [send track_param] récupérables via [receive track_param]-[route 'mon instrument']-[route 'mon parametre'], f 50;
#X obj 111 346 s track_param;
#X obj 111 321 list trim;
#X obj 34 183 t a a;
#X obj 192 239 list split 1;
#X obj 111 297 list prepend;
#X text 40 389 ATTENTION!;
#X text 39 416 utiliser [symbol]-[float] pour convertir une valeur en float;
#X connect 0 0 1 0;
#X connect 1 0 8 0;
#X connect 2 1 3 0;
#X connect 3 1 10 0;
#X connect 7 0 6 0;
#X connect 8 0 2 0;
#X connect 8 1 9 0;
#X connect 9 0 10 1;
#X connect 10 0 7 0;
#X restore 140 163 pd getCue;
#X obj 13 72 t a a;
#X text 12 2 trackConfig.json est le fichier de configuration où est inscrit le nom de la machine \, le nom du musicien \, et une liste d'objets cue contenant les parametres de jeu., f 57;
#X obj 45 117 s \$0configFile;
#X msg 45 94 \$1/trackConfig.json;
#N canvas 635 263 457 301 getGlobals 1;
#X obj 16 226 outlet;
#N canvas 282 276 366 295 decodeJSON 0;
#X obj 7 9 inlet;
#X obj 44 124 json-decode;
#X obj 44 78 list trim;
#X obj 7 33 json-encode;
#X obj 7 56 json-decode;
#X obj 8 263 outlet;
#X obj 167 78 r computer_number;
#X obj 44 101 route computerName;
#X obj 81 148 list trim;
#X obj 81 171 route musician;
#X obj 81 195 symbol;
#X obj 81 219 s musician;
#X obj 209 136 route globalSettings;
#X obj 209 208 s globalSettings;
#X connect 0 0 3 0;
#X connect 1 1 8 0;
#X connect 2 0 7 0;
#X connect 3 0 4 0;
#X connect 4 0 5 0;
#X connect 4 1 2 0;
#X connect 6 0 7 1;
#X connect 7 0 1 0;
#X connect 7 1 12 0;
#X connect 8 0 9 0;
#X connect 9 0 10 0;
#X connect 10 0 11 0;
#X connect 12 0 13 0;
#X restore 16 180 pd decodeJSON;
#X obj 16 47 inlet dir;
#X text 12 2 trackConfig.json est le fichier de configuration où est inscrit le nom de la machine \, le nom du musicien \, et une liste d'objets cue contenant les parametres de jeu., f 60;
#X text 129 177 Récupère le nom du musicien dans le fichier de config de la composition, f 38;
#X obj 16 98 list prepend;
#X msg 16 130 read \$1 \, bang;
#X obj 97 75 r \$0configFile;
#X connect 1 0 0 0;
#X connect 2 0 5 0;
#X connect 5 0 6 0;
#X connect 6 0 1 0;
#X connect 7 0 5 1;
#X restore 13 162 pd getGlobals;
#X connect 0 0 3 0;
#X connect 3 0 7 0;
#X connect 3 1 6 0;
#X connect 6 0 5 0;
#X connect 7 0 1 0;
