#N canvas 42 189 478 523 12;
#X obj 39 13 inlet~;
#X obj 39 454 outlet~;
#X obj 177 15 inlet;
#X obj 38 364 *~;
#X obj 140 364 *~;
#X obj 363 22 loadbang;
#X obj 360 317 line~;
#X obj 267 314 line~;
#X msg 362 45 0;
#N canvas 524 188 450 300 peak 0;
#X obj 23 13 inlet~;
#X obj 86 12 inlet;
#X obj 23 254 outlet~;
#X obj 321 212 switch~;
#X obj 309 13 inlet;
#X obj 23 152 else/eq~ \$1 \$2 \$3;
#X obj 62 104 route freq q level;
#X obj 309 46 sel 0 1;
#X msg 296 123 0;
#X msg 349 96 1;
#X obj 296 95 del 50;
#X connect 0 0 5 0;
#X connect 1 0 6 0;
#X connect 4 0 7 0;
#X connect 5 0 2 0;
#X connect 6 0 5 1;
#X connect 6 1 5 2;
#X connect 6 2 5 3;
#X connect 7 0 10 0;
#X connect 7 1 9 0;
#X connect 8 0 3 0;
#X connect 9 0 3 0;
#X connect 10 0 8 0;
#X restore 141 246 pd peak;
#X obj 267 260 -;
#X msg 267 235 1 \$1;
#X obj 177 43 route onOff;
#X obj 142 159 tgl 19 0 empty empty empty 0 -10 0 12 #fcfcfc #000000 #000000 0 1;
#X obj 267 290 pack f 50;
#X obj 360 293 pack f 50;
#X connect 0 0 3 0;
#X connect 0 0 9 0;
#X connect 2 0 12 0;
#X connect 3 0 1 0;
#X connect 4 0 1 0;
#X connect 5 0 8 0;
#X connect 6 0 4 1;
#X connect 7 0 3 1;
#X connect 8 0 11 0;
#X connect 8 0 15 0;
#X connect 9 0 4 0;
#X connect 10 0 14 0;
#X connect 11 0 10 0;
#X connect 12 0 9 2;
#X connect 12 0 11 0;
#X connect 12 0 13 0;
#X connect 12 0 15 0;
#X connect 12 1 9 1;
#X connect 14 0 7 0;
#X connect 15 0 6 0;
