#N canvas 558 74 509 498 12;
#X obj 24 10 inlet;
#X obj 15 440 outlet~;
#X obj 15 414 catch~ \$0sampleOut;
#X obj 24 92 s \$0noteIn;
#X obj 24 62 pack f f f;
#X obj 34 146 sampleVoice 1 \$1 \$0noteIn \$0sampleOut;
#X obj 24 33 poly 1;
#X connect 0 0 6 0;
#X connect 2 0 1 0;
#X connect 4 0 3 0;
#X connect 6 0 4 0;
#X connect 6 1 4 1;
#X connect 6 2 4 2;
