#N canvas 179 204 450 300 12;
#X msg 219 150 0;
#X msg 185 151 1;
#X obj 66 7 inlet;
#X obj 135 270 outlet;
#X obj 190 216 spigot 1;
#X obj 22 123 del 200;
#X obj 147 7 loadbang;
#X obj 147 31 \$1;
#X obj 147 55 sel 0;
#X obj 22 94 t b b b;
#X msg 152 155 1;
#X obj 66 34 change;
#X obj 66 61 sel 1 0;
#X msg 117 158 0;
#X obj 135 246 change;
#X connect 0 0 4 1;
#X connect 1 0 4 1;
#X connect 2 0 11 0;
#X connect 4 0 14 0;
#X connect 5 0 1 0;
#X connect 6 0 7 0;
#X connect 7 0 8 0;
#X connect 8 1 5 1;
#X connect 9 0 5 0;
#X connect 9 1 0 0;
#X connect 9 2 10 0;
#X connect 10 0 4 0;
#X connect 11 0 12 0;
#X connect 12 0 9 0;
#X connect 12 1 13 0;
#X connect 13 0 14 0;
#X connect 14 0 3 0;
