#N canvas 434 155 417 495 12;
#X obj 156 16 r \$3;
#X obj 156 40 route \$1;
#X obj 256 443 throw~ \$4;
#X obj 156 64 unpack;
#X obj 258 395 *~;
#X obj 310 270 dbtorms;
#X obj 229 97 moses 1;
#X obj 154 326 readsf~;
#X msg 154 285 1;
#X obj 14 190 list;
#X obj 156 85 sel 1;
#X obj 217 365 *~;
#X obj 310 298 sig~;
#X obj 234 298 dbtorms;
#X obj 234 326 sig~;
#X obj 14 251 list prepend;
#X obj 27 222 r patchDir;
#X msg 14 274 open \$1/sons/\$2;
#X obj 199 182 switch~;
#X msg 174 152 1;
#X obj 155 111 t b b b;
#X msg 226 151 0;
#X obj 23 85 r \$2;
#X obj 23 109 route path gain;
#X connect 0 0 1 0;
#X connect 1 0 3 0;
#X connect 3 0 10 0;
#X connect 3 1 6 0;
#X connect 4 0 2 0;
#X connect 5 0 12 0;
#X connect 6 0 21 0;
#X connect 6 1 5 0;
#X connect 7 0 11 0;
#X connect 8 0 7 0;
#X connect 9 0 15 0;
#X connect 10 0 20 0;
#X connect 11 0 4 0;
#X connect 12 0 4 1;
#X connect 13 0 14 0;
#X connect 14 0 11 1;
#X connect 15 0 17 0;
#X connect 16 0 15 1;
#X connect 17 0 7 0;
#X connect 19 0 18 0;
#X connect 20 0 8 0;
#X connect 20 1 9 0;
#X connect 20 2 19 0;
#X connect 21 0 18 0;
#X connect 22 0 23 0;
#X connect 23 0 9 1;
#X connect 23 1 13 0;
