#N canvas 233 157 543 506 12;
#X obj 18 14 loadbang;
#X obj 29 437 throw~ L_out;
#X text 121 436 audio out;
#X obj 85 14 cue_list;
#X obj 29 411 *~;
#X obj 18 84 init_track;
#X obj 18 55 getdir;
#X connect 0 0 6 0;
#X connect 4 0 1 0;
#X connect 6 0 5 0;
