#N canvas 73 102 1098 523 12;
#X obj 18 14 loadbang;
#X text 28 141 initialisation du patch;
#X obj 18 161 init_track;
#X obj 18 62 pdcontrol;
#X msg 18 40 dir;
#N canvas 121 146 450 300 pedal 0;
#X obj 97 73 r PED;
#X obj 97 138 spigot;
#X obj 180 201 r cueNum;
#X obj 97 226 f;
#X obj 129 227 + 1;
#X obj 162 226 mod;
#X obj 97 260 s cue;
#X obj 40 133 inlet;
#X msg 40 170 0;
#X obj 97 97 t a b;
#X connect 0 0 9 0;
#X connect 1 0 3 0;
#X connect 2 0 5 1;
#X connect 3 0 4 0;
#X connect 3 0 6 0;
#X connect 4 0 5 0;
#X connect 5 0 3 1;
#X connect 7 0 8 0;
#X connect 8 0 3 0;
#X connect 9 0 1 1;
#X connect 9 1 1 0;
#X restore 18 211 pd pedal;
#N canvas 358 106 851 355 Gametrak 0;
#N canvas 150 171 1269 670 mode_de_jeu_1 0;
#X obj 274 417 readsf~;
#X msg 274 376 1;
#X msg 326 361 0;
#X obj 275 292 t b b;
#X obj 370 60 r LZ;
#X obj 292 167 < 4000;
#X obj 292 189 tgl 15 0 empty empty empty 17 7 0 10 #fcfcfc #000000 #000000 0 1;
#X obj 293 266 sel 1;
#X obj 292 207 change;
#X obj 420 459 *~;
#X floatatom 389 254 5 0 0 0 - - - 0;
#X obj 369 140 moses 200;
#X obj 369 168 moses 2000;
#X obj 369 194 - 200;
#X obj 369 219 / 1800;
#X obj 780 371 readsf~;
#X msg 727 325 1;
#X msg 812 326 0;
#X obj 727 282 t b b;
#X obj 686 275 bng 15 250 50 0 empty empty empty 17 7 0 10 #fcfcfc #000000 #000000;
#X obj 780 145 < 4000;
#X obj 780 166 tgl 15 0 empty empty empty 17 7 0 10 #fcfcfc #000000 #000000 0 1;
#X obj 780 246 sel 1;
#X obj 780 184 change;
#X obj 828 477 *~;
#X floatatom 958 295 5 0 0 0 - - - 0;
#X obj 938 181 moses 200;
#X obj 938 209 moses 2000;
#X obj 938 235 - 200;
#X obj 938 260 / 1800;
#X obj 938 18 r RZ;
#X obj 1044 404 hsl 128 15 0 127 0 1 \$0-chorus-rate-s \$0-chorus-rate-r DEPTH 133 7 0 10 #fcfcfc #000000 #000000 607 1;
#X obj 1045 426 hsl 128 15 0 127 0 1 \$0-chorus-depth-s \$0-chorus-depth-r RATE 133 7 0 10 #fcfcfc #000000 #000000 1406 1;
#X obj 1067 381 cnv 5 5 5 empty empty CHORUS 0 0 0 12 #fcfcfc #404040 0;
#X obj 1114 381 cnv 5 5 5 empty \$0-instance-num 0 0 0 0 12 #fcfcfc #404040 0;
#X obj 1060 207 r RX;
#X obj 1057 255 * 127;
#X obj 1071 329 * 127;
#X obj 1140 251 r RY;
#X obj 505 162 moses 4095;
#X obj 525 289 * 127;
#X obj 505 134 moses 2200;
#X obj 505 189 - 2200;
#X obj 505 218 / 1895;
#N canvas 89 120 505 378 curve_exp 0;
#X obj 68 36 inlet;
#X obj 68 300 outlet;
#X obj 68 143 exp;
#X obj 68 115 *;
#X obj 144 32 inlet;
#X obj 68 165 - 1;
#X obj 68 196 /;
#X obj 106 133 exp;
#X obj 106 155 - 1;
#X obj 195 17 loadbang;
#X obj 195 55 log;
#X msg 195 36 100000;
#X obj 144 94 f 11.5129;
#X obj 68 60 t f f;
#X obj 68 82 abs;
#X obj 104 216 * 2;
#X obj 104 236 - 1;
#X obj 104 196 > 0;
#X obj 68 268 *;
#X connect 0 0 13 0;
#X connect 2 0 5 0;
#X connect 3 0 2 0;
#X connect 4 0 12 0;
#X connect 5 0 6 0;
#X connect 6 0 18 0;
#X connect 7 0 8 0;
#X connect 8 0 6 1;
#X connect 9 0 11 0;
#X connect 10 0 12 0;
#X connect 11 0 10 0;
#X connect 12 0 3 1;
#X connect 12 0 7 0;
#X connect 13 0 14 0;
#X connect 13 1 17 0;
#X connect 14 0 3 0;
#X connect 15 0 16 0;
#X connect 16 0 18 1;
#X connect 17 0 15 0;
#X connect 18 0 1 0;
#X restore 505 260 pd curve_exp;
#X obj 586 206 loadbang;
#X msg 586 233 -6;
#X obj 505 58 r LY;
#N canvas 35 58 1077 703 chorus 0;
#X obj 321 19 inlet~;
#X obj 321 308 phasor~;
#X obj 321 330 +~;
#X obj 321 352 cos~;
#X obj 321 374 +~ 1;
#X obj 321 396 *~ 0.5;
#X obj 321 261 mtof~;
#X obj 321 603 outlet~;
#X obj 390 229 / 127;
#X obj 390 293 pack f 50;
#X obj 390 352 line~;
#X obj 321 418 *~;
#X obj 746 310 phasor~;
#X obj 746 354 cos~;
#X obj 746 376 +~ 1;
#X obj 746 398 *~ 0.5;
#X obj 746 420 *~;
#X obj 746 279 mtof~;
#X obj 746 332 +~ 0.25;
#X obj 811 229 / 127;
#X obj 811 326 pack f 50;
#X obj 811 354 line~;
#X obj 458 304 phasor~;
#X obj 458 348 cos~;
#X obj 458 370 +~ 1;
#X obj 458 392 *~ 0.5;
#X obj 458 257 mtof~;
#X obj 746 603 outlet~;
#X obj 527 229 / 127;
#X obj 527 289 pack f 50;
#X obj 527 348 line~;
#X obj 458 414 *~;
#X obj 610 301 phasor~;
#X obj 610 345 cos~;
#X obj 610 367 +~ 1;
#X obj 610 389 *~ 0.5;
#X obj 610 411 *~;
#X obj 610 270 mtof~;
#X obj 675 229 / 127;
#X obj 675 317 pack f 50;
#X obj 675 345 line~;
#X obj 458 326 +~ 0.5;
#X obj 610 323 +~ 0.75;
#X obj 321 90 / 127;
#X obj 458 81 / 127;
#X obj 610 81 / 127;
#X obj 746 81 / 127;
#X obj 390 271 * 5;
#X obj 527 267 * 5;
#X obj 675 295 * 5;
#X obj 811 304 * 5;
#X obj 321 440 vd~ \$0-pe-chorus;
#X obj 458 533 vd~ \$0-pe-chorus;
#X obj 610 494 vd~ \$0-pe-chorus;
#X obj 746 442 vd~ \$0-pe-chorus;
#X obj 321 41 delwrite~ \$0-pe-chorus 100;
#X obj 321 64 t f f f f;
#X obj 118 212 t f f f f;
#X obj 321 511 *~ 0.5;
#X obj 746 550 *~ 0.5;
#X obj 321 547 +~;
#X obj 746 575 +~;
#X obj 321 134 - 64;
#X obj 458 137 - 64;
#X obj 610 131 - 64;
#X obj 746 136 - 64;
#X obj 321 112 * 96;
#X obj 458 115 * 96;
#X obj 610 109 * 96;
#X obj 746 114 * 96;
#X obj 321 156 sig~;
#X obj 458 159 sig~;
#X obj 610 153 sig~;
#X obj 746 158 sig~;
#X obj 321 192 +~;
#X obj 458 192 +~;
#X obj 610 192 +~;
#X obj 746 192 +~;
#X obj 518 20 inlet~;
#X text 495 0 RATE CV IN;
#X text 249 18 SIGNAL IN;
#X obj 390 401 +~;
#X obj 527 397 +~;
#X obj 675 394 +~;
#X obj 811 403 +~;
#X obj 792 127 inlet~;
#X text 790 108 DEPTH CV IN;
#X obj 792 150 *~ 5;
#X obj 518 42 *~ 96;
#X obj 383 13 inlet;
#X obj 435 13 inlet;
#X connect 0 0 55 0;
#X connect 1 0 2 0;
#X connect 2 0 3 0;
#X connect 3 0 4 0;
#X connect 4 0 5 0;
#X connect 5 0 11 0;
#X connect 6 0 1 0;
#X connect 8 0 47 0;
#X connect 9 0 10 0;
#X connect 10 0 81 0;
#X connect 11 0 51 0;
#X connect 12 0 18 0;
#X connect 13 0 14 0;
#X connect 14 0 15 0;
#X connect 15 0 16 0;
#X connect 16 0 54 0;
#X connect 17 0 12 0;
#X connect 18 0 13 0;
#X connect 19 0 50 0;
#X connect 20 0 21 0;
#X connect 21 0 84 0;
#X connect 22 0 41 0;
#X connect 23 0 24 0;
#X connect 24 0 25 0;
#X connect 25 0 31 0;
#X connect 26 0 22 0;
#X connect 28 0 48 0;
#X connect 29 0 30 0;
#X connect 30 0 82 0;
#X connect 31 0 52 0;
#X connect 32 0 42 0;
#X connect 33 0 34 0;
#X connect 34 0 35 0;
#X connect 35 0 36 0;
#X connect 36 0 53 0;
#X connect 37 0 32 0;
#X connect 38 0 49 0;
#X connect 39 0 40 0;
#X connect 40 0 83 0;
#X connect 41 0 23 0;
#X connect 42 0 33 0;
#X connect 43 0 66 0;
#X connect 44 0 67 0;
#X connect 45 0 68 0;
#X connect 46 0 69 0;
#X connect 47 0 9 0;
#X connect 48 0 29 0;
#X connect 49 0 39 0;
#X connect 50 0 20 0;
#X connect 51 0 58 0;
#X connect 52 0 59 0;
#X connect 53 0 58 0;
#X connect 54 0 59 0;
#X connect 56 0 43 0;
#X connect 56 1 44 0;
#X connect 56 2 45 0;
#X connect 56 3 46 0;
#X connect 57 0 8 0;
#X connect 57 1 28 0;
#X connect 57 2 38 0;
#X connect 57 3 19 0;
#X connect 58 0 60 0;
#X connect 59 0 61 0;
#X connect 60 0 7 0;
#X connect 61 0 27 0;
#X connect 62 0 70 0;
#X connect 63 0 71 0;
#X connect 64 0 72 0;
#X connect 65 0 73 0;
#X connect 66 0 62 0;
#X connect 67 0 63 0;
#X connect 68 0 64 0;
#X connect 69 0 65 0;
#X connect 70 0 74 0;
#X connect 71 0 75 0;
#X connect 72 0 76 0;
#X connect 73 0 77 0;
#X connect 74 0 6 0;
#X connect 75 0 26 0;
#X connect 76 0 37 0;
#X connect 77 0 17 0;
#X connect 78 0 88 0;
#X connect 81 0 11 1;
#X connect 82 0 31 1;
#X connect 83 0 36 1;
#X connect 84 0 16 1;
#X connect 85 0 87 0;
#X connect 87 0 81 1;
#X connect 87 0 82 1;
#X connect 87 0 83 1;
#X connect 87 0 84 1;
#X connect 88 0 74 1;
#X connect 88 0 75 1;
#X connect 88 0 76 1;
#X connect 88 0 77 1;
#X connect 89 0 57 0;
#X connect 90 0 56 0;
#X restore 829 508 pd chorus 1;
#X obj 423 535 *~;
#X obj 558 622 outlet~;
#X obj 370 110 * 4095;
#X obj 505 109 * 4095;
#X obj 938 70 * 4095;
#X obj 780 103 - 4095;
#X obj 780 124 * -1;
#X floatatom 422 87 5 0 0 0 - - - 0;
#X obj 292 118 - 4095;
#X obj 292 142 * -1;
#X obj 370 308 line~;
#X msg 370 282 \$1 1;
#X obj 506 346 line~;
#X msg 506 320 \$1 1;
#X obj 939 368 line~;
#X msg 939 342 \$1 1;
#X obj 12 146 bng 15 250 50 0 empty empty empty 17 7 0 10 #fcfcfc #000000 #000000;
#X obj 65 147 bng 15 250 50 0 empty empty empty 17 7 0 10 #fcfcfc #000000 #000000;
#X msg 32 144 1;
#X msg 85 143 0;
#X obj 370 86 spigot;
#X obj 505 82 spigot;
#X obj 938 45 spigot;
#X obj 1059 231 spigot;
#X obj 1140 276 spigot;
#X obj 558 597 *~;
#X obj 547 455 sel 1;
#X obj 578 540 line~;
#X msg 579 480 0 50;
#X msg 547 507 1 50;
#X text 83 102 nom de la cue;
#X obj 13 172 s cue_Mdj1;
#X obj 409 62 r cue_Mdj1;
#X obj 544 58 r cue_Mdj1;
#X obj 977 21 r cue_Mdj1;
#X obj 1097 207 r cue_Mdj1;
#X obj 1179 252 r cue_Mdj1;
#X obj 547 432 r cue_Mdj1;
#X obj 16 291 switch~;
#X obj 16 241 r cue_Mdj1;
#X obj 16 267 pipe 50;
#X obj 19 14 r cueName;
#X obj 19 102 sel Jeu1;
#X obj 91 329 list;
#X obj 621 318 list;
#X msg 90 352 open sons/\$1;
#X msg 622 340 open sons/\$1;
#X obj 420 558 rev3~ 100 90 3000 20;
#X obj 19 66 spigot;
#X obj 116 211 r sonMdj1Gauche;
#X obj 647 242 r sonMdj1Droite;
#X obj 256 507 *~;
#X obj 62 466 line~;
#X msg 62 442 \$1 50;
#X obj 639 443 line~;
#X msg 639 419 \$1 50;
#X obj 706 478 *~;
#X obj 60 416 dbtorms;
#X obj 60 393 r gainMdj1Gauche;
#X obj 639 397 dbtorms;
#X obj 347 419 spigot;
#X obj 292 231 t a a;
#X obj 856 366 spigot;
#X obj 782 208 t a a;
#X obj 639 376 r gainMdj1Droite;
#X obj 58 42 groupSelect Gametrak;
#X connect 0 0 100 1;
#X connect 0 1 109 0;
#X connect 1 0 0 0;
#X connect 2 0 0 0;
#X connect 3 0 1 0;
#X connect 3 1 92 0;
#X connect 4 0 69 0;
#X connect 5 0 6 0;
#X connect 6 0 8 0;
#X connect 7 0 3 0;
#X connect 7 1 2 0;
#X connect 8 0 110 0;
#X connect 9 0 49 0;
#X connect 9 0 74 0;
#X connect 11 1 12 0;
#X connect 12 0 13 0;
#X connect 13 0 14 0;
#X connect 14 0 10 0;
#X connect 14 0 60 0;
#X connect 15 0 105 1;
#X connect 15 1 111 0;
#X connect 16 0 15 0;
#X connect 17 0 15 0;
#X connect 18 0 16 0;
#X connect 18 1 93 0;
#X connect 20 0 21 0;
#X connect 21 0 23 0;
#X connect 22 0 19 0;
#X connect 22 0 18 0;
#X connect 22 1 17 0;
#X connect 23 0 112 0;
#X connect 24 0 48 0;
#X connect 26 1 27 0;
#X connect 27 0 28 0;
#X connect 28 0 29 0;
#X connect 29 0 25 0;
#X connect 29 0 64 0;
#X connect 30 0 71 0;
#X connect 31 0 48 1;
#X connect 32 0 48 2;
#X connect 35 0 72 0;
#X connect 36 0 32 0;
#X connect 37 0 31 0;
#X connect 38 0 73 0;
#X connect 39 0 42 0;
#X connect 41 1 39 0;
#X connect 42 0 43 0;
#X connect 43 0 44 0;
#X connect 44 0 40 0;
#X connect 44 0 62 0;
#X connect 45 0 46 0;
#X connect 46 0 44 1;
#X connect 47 0 70 0;
#X connect 48 0 49 0;
#X connect 48 0 74 0;
#X connect 49 0 96 0;
#X connect 51 0 56 0;
#X connect 51 0 57 0;
#X connect 51 0 11 0;
#X connect 52 0 41 0;
#X connect 53 0 26 0;
#X connect 53 0 54 0;
#X connect 54 0 55 0;
#X connect 55 0 20 0;
#X connect 57 0 58 0;
#X connect 58 0 5 0;
#X connect 59 0 9 1;
#X connect 60 0 59 0;
#X connect 61 0 49 1;
#X connect 62 0 61 0;
#X connect 63 0 24 1;
#X connect 64 0 63 0;
#X connect 67 0 80 0;
#X connect 68 0 80 0;
#X connect 69 0 51 0;
#X connect 70 0 52 0;
#X connect 71 0 53 0;
#X connect 72 0 36 0;
#X connect 73 0 37 0;
#X connect 74 0 50 0;
#X connect 75 0 78 0;
#X connect 75 1 77 0;
#X connect 76 0 74 1;
#X connect 77 0 76 0;
#X connect 78 0 76 0;
#X connect 81 0 69 1;
#X connect 82 0 70 1;
#X connect 83 0 71 1;
#X connect 84 0 72 1;
#X connect 85 0 73 1;
#X connect 86 0 75 0;
#X connect 88 0 89 0;
#X connect 89 0 87 0;
#X connect 90 0 97 0;
#X connect 91 0 65 0;
#X connect 91 0 67 0;
#X connect 91 1 66 0;
#X connect 91 1 68 0;
#X connect 92 0 94 0;
#X connect 93 0 95 0;
#X connect 94 0 0 0;
#X connect 95 0 15 0;
#X connect 96 0 74 0;
#X connect 97 0 91 0;
#X connect 98 0 92 1;
#X connect 99 0 93 1;
#X connect 100 0 9 0;
#X connect 101 0 100 0;
#X connect 102 0 101 0;
#X connect 103 0 105 0;
#X connect 104 0 103 0;
#X connect 105 0 24 0;
#X connect 106 0 102 0;
#X connect 107 0 106 0;
#X connect 108 0 104 0;
#X connect 109 0 3 0;
#X connect 110 0 7 0;
#X connect 110 1 109 1;
#X connect 111 0 18 0;
#X connect 112 0 22 0;
#X connect 112 1 111 1;
#X connect 113 0 108 0;
#X connect 114 0 97 1;
#X restore 17 224 pd mode_de_jeu_1;
#X text 109 285 audio out;
#N canvas 283 340 939 465 mode_de_jeu_2 0;
#X obj 237 35 r LX;
#X obj 9 131 bng 15 250 50 0 empty empty empty 17 7 0 10 #fcfcfc #000000 #000000;
#X obj 62 132 bng 15 250 50 0 empty empty empty 17 7 0 10 #fcfcfc #000000 #000000;
#X msg 29 129 1;
#X msg 82 128 0;
#X text 73 81 nom de la cue;
#X obj 280 35 r LY;
#X obj 83 162 s cue_Mdj2;
#X obj 409 352 bob~;
#X obj 420 256 mtof;
#X obj 421 301 pack 0 50;
#X obj 421 326 line~;
#X floatatom 420 279 7 0 0 0 - - - 0;
#X obj 754 317 bob~;
#X obj 765 221 mtof;
#X obj 766 266 pack 0 50;
#X obj 766 291 line~;
#X floatatom 765 244 7 0 0 0 - - - 0;
#X obj 409 400 outlet~;
#X obj 618 39 r RY;
#X obj 765 177 r RZ;
#X obj 12 271 switch~;
#X obj 12 247 pipe 50;
#X obj 12 221 r cue_Mdj2;
#X obj 9 9 r cueName;
#X obj 9 81 sel Jeu2;
#X obj 237 95 spigot;
#X obj 276 73 r cue_Mdj2;
#X obj 237 73 pack;
#X obj 420 211 r LZ;
#X obj 580 87 spigot;
#X obj 619 65 r cue_Mdj2;
#X obj 580 65 pack;
#X obj 579 39 r RX;
#X obj 420 234 * 138;
#X obj 765 199 * 138;
#X obj 9 58 spigot;
#X obj 237 232 playPolysound Mdj2GG;
#X obj 407 184 playPolysound Mdj2GF;
#X obj 580 183 playPolysound Mdj2DF;
#X obj 753 152 playPolysound Mdj2DD;
#X obj 237 117 gametrakZoneTrig Left;
#X obj 580 109 gametrakZoneTrig Right;
#X obj 48 34 groupSelect Gametrak;
#X connect 0 0 28 0;
#X connect 3 0 7 0;
#X connect 4 0 7 0;
#X connect 6 0 28 1;
#X connect 8 0 18 0;
#X connect 9 0 12 0;
#X connect 10 0 11 0;
#X connect 11 0 8 1;
#X connect 12 0 10 0;
#X connect 13 0 18 0;
#X connect 14 0 17 0;
#X connect 15 0 16 0;
#X connect 16 0 13 1;
#X connect 17 0 15 0;
#X connect 19 0 32 1;
#X connect 20 0 35 0;
#X connect 22 0 21 0;
#X connect 23 0 22 0;
#X connect 24 0 36 0;
#X connect 25 0 1 0;
#X connect 25 0 3 0;
#X connect 25 1 2 0;
#X connect 25 1 4 0;
#X connect 26 0 41 0;
#X connect 27 0 26 1;
#X connect 28 0 26 0;
#X connect 29 0 34 0;
#X connect 30 0 42 0;
#X connect 31 0 30 1;
#X connect 32 0 30 0;
#X connect 33 0 32 0;
#X connect 34 0 9 0;
#X connect 35 0 14 0;
#X connect 36 0 25 0;
#X connect 37 0 8 0;
#X connect 38 0 8 0;
#X connect 39 0 13 0;
#X connect 40 0 13 0;
#X connect 41 0 37 0;
#X connect 41 1 38 0;
#X connect 42 0 39 0;
#X connect 42 1 40 0;
#X connect 43 0 36 1;
#X restore 26 248 pd mode_de_jeu_2;
#X text 114 26 Calibrage des données de la console gametrack, f 23;
#N canvas 92 117 450 300 OSC 0;
#X obj 89 41 r OSC_for_composition;
#X obj 89 79 route calibrate;
#X obj 89 103 s calibrate;
#X connect 0 0 1 0;
#X connect 1 0 2 0;
#X restore 18 113 pd OSC;
#N canvas 329 54 1111 654 calibrate 0;
#X obj 253 179 hid;
#X text 245 88 open gametrak;
#X text 249 136 start polling and set the poll delay in ms;
#X msg 322 161 print;
#X msg 372 162 refresh;
#X obj 198 70 t b b;
#X floatatom 223 359 6 0 0 0 - - - 0;
#X floatatom 273 359 6 0 0 0 - - - 0;
#X floatatom 323 359 6 0 0 0 - - - 0;
#X floatatom 373 359 6 0 0 0 - - - 0;
#X floatatom 423 359 6 0 0 0 - - - 0;
#X floatatom 473 359 6 0 0 0 - - - 0;
#X obj 124 282 route key abs;
#X obj 221 309 route abs_x abs_y abs_z abs_rx abs_ry abs_rz;
#X obj 124 309 route btn_0;
#X text 281 402 Left;
#X text 428 400 Right;
#X text 252 379 X Y Z;
#X text 395 381 X Y Z;
#X text 11 603 Pedal;
#X text 126 404 range = 0 -> 4095;
#X obj 58 576 s LX;
#X obj 13 576 s PED;
#X text 337 402 gametrak;
#X obj 159 453 r CLX;
#X obj 285 456 r CLY;
#X obj 231 596 s LY;
#X obj 449 437 r CLZ;
#X obj 405 595 s LZ;
#X obj 601 454 r CRX;
#X obj 577 594 s RX;
#X obj 757 456 r CRY;
#X obj 749 594 s RY;
#X obj 923 595 s RZ;
#X obj 96 598 hsl 128 15 0 1 0 0 empty empty empty -2 -8 0 10 #dcdcdc #000000 #000000 0 1;
#X obj 788 597 hsl 128 15 0 1 0 0 empty empty empty -2 -8 0 10 #dcdcdc #000000 #000000 0 1;
#X obj 614 598 hsl 128 15 0 1 0 0 empty empty empty -2 -8 0 10 #dcdcdc #000000 #000000 0 1;
#X obj 442 596 hsl 128 15 0 1 0 0 empty empty empty -2 -8 0 10 #dcdcdc #000000 #000000 0 1;
#X obj 270 598 hsl 128 15 0 1 0 0 empty empty empty -2 -8 0 10 #dcdcdc #000000 #000000 0 1;
#X obj 963 597 hsl 128 15 0 1 0 0 empty empty empty -2 -8 0 10 #dcdcdc #000000 #000000 0 1;
#X obj 261 525 m_scale 0 4095 0 1;
#X obj 577 524 m_scale 0 4095 0 1;
#X obj 733 525 m_scale 0 4095 0 1;
#X obj 419 524 m_scale 4095 0 0 1;
#X obj 893 525 m_scale 4095 0 0 1;
#X obj 128 500 unpack 0 0 0 0;
#X obj 285 500 unpack 0 0 0 0;
#X floatatom 93 620 5 0 0 0 - - - 0;
#X floatatom 267 621 5 0 0 0 - - - 0;
#X floatatom 439 618 5 0 0 0 - - - 0;
#X floatatom 611 620 5 0 0 0 - - - 0;
#X floatatom 785 618 5 0 0 0 - - - 0;
#X floatatom 960 617 5 0 0 0 - - - 0;
#X msg 386 105 close;
#X text 427 106 close gametrak;
#X obj 124 335 change;
#X obj 403 424 f;
#X obj 876 422 f;
#X text 652 270 autocalibre (alpha);
#X obj 159 475 s2l;
#X obj 285 479 s2l;
#X obj 449 459 s2l;
#X obj 601 477 s2l;
#X obj 757 478 s2l;
#X msg 230 107 open 0x14b7 0x0982;
#X obj 104 525 m_scale 0 4095 0 1;
#X obj 60 359 tgl 19 0 empty empty empty 0 -10 0 12 #fcfcfc #000000 #000000 0 1;
#X msg 176 176 info;
#X msg 198 136 poll 5;
#X obj 104 549 clip 0 1;
#X obj 267 564 clip 0 1;
#X obj 419 548 clip 0 1;
#X obj 137 100 t b b;
#X obj 577 547 clip 0 1;
#X obj 734 549 clip 0 1;
#X obj 894 548 clip 0 1;
#X obj 403 446 - 20;
#X obj 876 447 - 20;
#X obj 449 480 unpack 0 0 0;
#X obj 943 438 r CRZ;
#X obj 943 460 s2l;
#X obj 943 482 unpack 0 0 0;
#X obj 757 500 unpack 0 0 0 0;
#X obj 601 499 unpack 0 0 0 0;
#X floatatom 539 438 5 0 0 0 - - - 0;
#X obj 627 303 r calibrateGametrak;
#X obj 77 230 s calibrateGametrak;
#X obj 198 20 instrumentSelect Gametrak;
#X obj 198 44 sel 1;
#X obj 273 243 print gametrak_info;
#X obj 44 183 del 5000;
#X obj 35 257 s patchReady;
#X obj 44 207 t b b;
#X connect 0 0 12 0;
#X connect 0 1 89 0;
#X connect 3 0 0 0;
#X connect 4 0 0 0;
#X connect 5 0 72 0;
#X connect 5 1 64 0;
#X connect 12 0 14 0;
#X connect 12 1 13 0;
#X connect 13 0 6 0;
#X connect 13 0 65 0;
#X connect 13 1 7 0;
#X connect 13 1 40 0;
#X connect 13 2 8 0;
#X connect 13 2 56 1;
#X connect 13 2 43 0;
#X connect 13 3 9 0;
#X connect 13 3 41 0;
#X connect 13 4 10 0;
#X connect 13 4 42 0;
#X connect 13 5 11 0;
#X connect 13 5 44 0;
#X connect 13 5 57 1;
#X connect 14 0 55 0;
#X connect 24 0 59 0;
#X connect 25 0 60 0;
#X connect 27 0 61 0;
#X connect 29 0 62 0;
#X connect 31 0 63 0;
#X connect 34 0 47 0;
#X connect 35 0 51 0;
#X connect 36 0 50 0;
#X connect 37 0 49 0;
#X connect 38 0 48 0;
#X connect 39 0 52 0;
#X connect 40 0 26 0;
#X connect 40 0 70 0;
#X connect 41 0 73 0;
#X connect 42 0 74 0;
#X connect 43 0 71 0;
#X connect 44 0 75 0;
#X connect 45 0 65 1;
#X connect 45 1 65 2;
#X connect 45 2 65 3;
#X connect 45 3 65 4;
#X connect 46 0 40 1;
#X connect 46 1 40 2;
#X connect 46 2 40 3;
#X connect 46 3 40 4;
#X connect 53 0 0 0;
#X connect 55 0 22 0;
#X connect 55 0 66 0;
#X connect 56 0 76 0;
#X connect 57 0 77 0;
#X connect 59 0 45 0;
#X connect 60 0 46 0;
#X connect 61 0 78 0;
#X connect 62 0 83 0;
#X connect 63 0 82 0;
#X connect 64 0 0 0;
#X connect 65 0 69 0;
#X connect 67 0 0 0;
#X connect 68 0 0 0;
#X connect 69 0 21 0;
#X connect 69 0 34 0;
#X connect 70 0 38 0;
#X connect 71 0 28 0;
#X connect 71 0 37 0;
#X connect 72 0 90 0;
#X connect 72 1 68 0;
#X connect 73 0 36 0;
#X connect 73 0 30 0;
#X connect 74 0 32 0;
#X connect 74 0 35 0;
#X connect 75 0 33 0;
#X connect 75 0 39 0;
#X connect 76 0 43 1;
#X connect 77 0 44 1;
#X connect 78 0 43 2;
#X connect 78 0 84 0;
#X connect 78 1 43 3;
#X connect 78 2 43 4;
#X connect 79 0 80 0;
#X connect 80 0 81 0;
#X connect 81 0 44 2;
#X connect 81 1 44 3;
#X connect 81 2 44 4;
#X connect 82 0 42 1;
#X connect 82 1 42 2;
#X connect 82 2 42 3;
#X connect 82 3 42 4;
#X connect 83 0 41 1;
#X connect 83 1 41 2;
#X connect 83 2 41 3;
#X connect 83 3 41 4;
#X connect 85 0 56 0;
#X connect 85 0 57 0;
#X connect 87 0 88 0;
#X connect 88 0 5 0;
#X connect 88 1 53 0;
#X connect 90 0 92 0;
#X connect 92 0 91 0;
#X connect 92 1 86 0;
#X restore 16 26 pd calibrate;
#X obj 17 284 outlet~;
#X obj 108 138 switch~;
#X obj 108 114 instrumentSelect Gametrak;
#X connect 0 0 6 0;
#X connect 2 0 6 0;
#X connect 8 0 7 0;
#X restore 359 195 pd Gametrak;
#N canvas 462 63 781 343 Gamepad 1;
#N canvas 501 60 939 625 hid 0;
#X obj 253 179 hid;
#X text 245 88 open gametrak;
#X text 243 136 start polling and set the poll delay in ms;
#X msg 322 161 print;
#X msg 372 162 refresh;
#X obj 198 70 t b b;
#X floatatom 588 302 6 0 0 0 - - - 0;
#X floatatom 638 302 6 0 0 0 - - - 0;
#X obj 253 233 route key abs;
#X msg 386 105 close;
#X text 427 106 close gametrak;
#X msg 170 176 info;
#X obj 398 220 print info;
#X msg 192 136 poll 5;
#X obj 198 44 sel 1;
#X obj 198 20 instrumentSelect Gamepad;
#X msg 230 107 open 0x0079 0x0006;
#X obj 461 397 route 0xff00;
#X obj 461 419 route 0x0001;
#X obj 461 443 tgl 19 0 empty empty empty 0 -10 0 12 #fcfcfc #000000 #000000 0 1;
#X obj 542 452 print other;
#X obj 689 422 route 0 2 4 6;
#X obj 689 381 change;
#X msg 661 495 1;
#X msg 696 475 2;
#X msg 732 475 3;
#X msg 767 475 4;
#X msg 807 475 0;
#X obj 680 531 hradio 19 1 0 5 empty empty empty 0 -10 0 12 #fcfcfc #000000 #000000 0;
#X obj 681 569 s L_CURSOR;
#N canvas 62 99 810 509 R_CURSOR 0;
#X obj 33 70 route btn_0;
#X obj 212 67 route btn_1;
#X obj 380 74 route btn_2;
#X obj 663 72 route btn_3;
#X obj 33 142 tgl 19 0 empty empty empty 0 -10 0 12 #fcfcfc #000000 #000000 0 1;
#X obj 33 108 retrig_time_filter 100;
#X obj 58 144 sel 1;
#X msg 58 169 1;
#X obj 35 10 inlet;
#X obj 207 142 tgl 19 0 empty empty empty 0 -10 0 12 #fcfcfc #000000 #000000 0 1;
#X obj 207 108 retrig_time_filter 100;
#X obj 232 144 sel 1;
#X msg 232 169 2;
#X obj 379 145 tgl 19 0 empty empty empty 0 -10 0 12 #fcfcfc #000000 #000000 0 1;
#X obj 379 111 retrig_time_filter 100;
#X obj 404 147 sel 1;
#X obj 550 146 tgl 19 0 empty empty empty 0 -10 0 12 #fcfcfc #000000 #000000 0 1;
#X obj 550 112 retrig_time_filter 100;
#X obj 575 148 sel 1;
#X msg 404 172 3;
#X msg 575 173 4;
#X obj 737 422 outlet;
#X obj 57 446 s R_CURSOR;
#X connect 0 0 5 0;
#X connect 0 1 1 0;
#X connect 1 0 10 0;
#X connect 1 1 2 0;
#X connect 2 0 14 0;
#X connect 2 1 3 0;
#X connect 3 0 17 0;
#X connect 3 1 21 0;
#X connect 5 0 4 0;
#X connect 5 0 6 0;
#X connect 6 0 7 0;
#X connect 7 0 22 0;
#X connect 8 0 0 0;
#X connect 10 0 9 0;
#X connect 10 0 11 0;
#X connect 11 0 12 0;
#X connect 12 0 22 0;
#X connect 14 0 13 0;
#X connect 14 0 15 0;
#X connect 15 0 19 0;
#X connect 17 0 16 0;
#X connect 17 0 18 0;
#X connect 18 0 20 0;
#X connect 19 0 22 0;
#X connect 20 0 22 0;
#X restore 254 276 pd R_CURSOR;
#X floatatom 469 300 6 0 0 0 - - - 0;
#X floatatom 519 300 6 0 0 0 - - - 0;
#N canvas 62 99 810 509 L_R 0;
#X obj 33 142 tgl 19 0 empty empty empty 0 -10 0 12 #fcfcfc #000000 #000000 0 1;
#X obj 33 108 retrig_time_filter 100;
#X obj 35 10 inlet;
#X obj 207 142 tgl 19 0 empty empty empty 0 -10 0 12 #fcfcfc #000000 #000000 0 1;
#X obj 207 108 retrig_time_filter 100;
#X obj 232 144 sel 1;
#X msg 232 169 2;
#X obj 379 145 tgl 19 0 empty empty empty 0 -10 0 12 #fcfcfc #000000 #000000 0 1;
#X obj 379 111 retrig_time_filter 100;
#X obj 404 147 sel 1;
#X obj 550 146 tgl 19 0 empty empty empty 0 -10 0 12 #fcfcfc #000000 #000000 0 1;
#X obj 550 112 retrig_time_filter 100;
#X obj 575 148 sel 1;
#X msg 404 172 3;
#X msg 575 173 4;
#X obj 737 422 outlet;
#X obj 33 70 route btn_4;
#X obj 212 67 route btn_5;
#X obj 380 74 route btn_6;
#X obj 663 72 route btn_7;
#X obj 33 345 s L1;
#X obj 367 335 s L2;
#X obj 211 332 s R1;
#X obj 545 322 s R2;
#X connect 0 0 20 0;
#X connect 1 0 0 0;
#X connect 2 0 16 0;
#X connect 3 0 22 0;
#X connect 4 0 3 0;
#X connect 4 0 5 0;
#X connect 5 0 6 0;
#X connect 7 0 21 0;
#X connect 8 0 7 0;
#X connect 8 0 9 0;
#X connect 9 0 13 0;
#X connect 10 0 23 0;
#X connect 11 0 10 0;
#X connect 11 0 12 0;
#X connect 12 0 14 0;
#X connect 16 0 1 0;
#X connect 16 1 17 0;
#X connect 17 0 4 0;
#X connect 17 1 18 0;
#X connect 18 0 8 0;
#X connect 18 1 19 0;
#X connect 19 0 11 0;
#X connect 19 1 15 0;
#X restore 255 309 pd L_R;
#X obj 465 363 s STICK_LX;
#X obj 489 337 s STICK_LY;
#N canvas 113 297 810 509 OTHERS 0;
#X obj 33 142 tgl 19 0 empty empty empty 0 -10 0 12 #fcfcfc #000000 #000000 0 1;
#X obj 33 108 retrig_time_filter 100;
#X obj 35 10 inlet;
#X obj 207 142 tgl 19 0 empty empty empty 0 -10 0 12 #fcfcfc #000000 #000000 0 1;
#X obj 207 108 retrig_time_filter 100;
#X obj 379 145 tgl 19 0 empty empty empty 0 -10 0 12 #fcfcfc #000000 #000000 0 1;
#X obj 379 111 retrig_time_filter 100;
#X obj 550 146 tgl 19 0 empty empty empty 0 -10 0 12 #fcfcfc #000000 #000000 0 1;
#X obj 550 112 retrig_time_filter 100;
#X obj 737 422 outlet;
#X obj 33 70 route btn_8;
#X obj 212 67 route btn_9;
#X obj 380 74 route btn_10;
#X obj 663 72 route btn_11;
#X obj 367 335 s STICK_L_SWITCH;
#X obj 545 322 s STICK_R_SWITCH;
#X obj 33 345 s SELECT;
#X obj 211 332 s START;
#X connect 0 0 16 0;
#X connect 1 0 0 0;
#X connect 2 0 10 0;
#X connect 3 0 17 0;
#X connect 4 0 3 0;
#X connect 5 0 14 0;
#X connect 6 0 5 0;
#X connect 7 0 15 0;
#X connect 8 0 7 0;
#X connect 10 0 1 0;
#X connect 10 1 11 0;
#X connect 11 0 4 0;
#X connect 11 1 12 0;
#X connect 12 0 6 0;
#X connect 12 1 13 0;
#X connect 13 0 8 0;
#X connect 13 1 9 0;
#X restore 256 336 pd OTHERS;
#X obj 583 362 s STICK_RX;
#X obj 618 336 s STICK_RY;
#X obj 465 274 route abs_x abs_y abs_z abs_rz hatswitch;
#N canvas 0 25 450 300 linux 0;
#X obj 37 37 inlet;
#X obj 37 62 route abs_hat0x abs_hat0y;
#X obj 37 86 change;
#X obj 123 89 change;
#X obj 37 111 sel -1 1;
#X msg 19 146 4;
#X msg 57 147 2;
#X msg 120 147 1;
#X msg 189 149 3;
#X obj 160 227 hradio 19 1 0 5 empty empty empty 0 -10 0 12 #fcfcfc #000000 #000000 0;
#X obj 161 265 s L_CURSOR;
#X obj 123 113 sel -1 1;
#X connect 0 0 1 0;
#X connect 1 0 2 0;
#X connect 1 1 3 0;
#X connect 2 0 4 0;
#X connect 3 0 11 0;
#X connect 4 0 5 0;
#X connect 4 1 6 0;
#X connect 4 2 9 0;
#X connect 5 0 9 0;
#X connect 6 0 9 0;
#X connect 7 0 9 0;
#X connect 8 0 9 0;
#X connect 9 0 10 0;
#X connect 11 0 7 0;
#X connect 11 1 8 0;
#X connect 11 2 9 0;
#X restore 749 328 pd linux;
#X connect 0 0 8 0;
#X connect 0 1 12 0;
#X connect 3 0 0 0;
#X connect 4 0 0 0;
#X connect 5 0 13 0;
#X connect 5 1 16 0;
#X connect 8 0 30 0;
#X connect 8 1 39 0;
#X connect 8 2 17 0;
#X connect 9 0 0 0;
#X connect 11 0 0 0;
#X connect 13 0 0 0;
#X connect 14 0 5 0;
#X connect 14 1 9 0;
#X connect 15 0 14 0;
#X connect 16 0 0 0;
#X connect 17 0 18 0;
#X connect 18 0 19 0;
#X connect 18 1 20 0;
#X connect 21 0 23 0;
#X connect 21 1 24 0;
#X connect 21 2 25 0;
#X connect 21 3 26 0;
#X connect 21 4 27 0;
#X connect 22 0 21 0;
#X connect 23 0 28 0;
#X connect 24 0 28 0;
#X connect 25 0 28 0;
#X connect 26 0 28 0;
#X connect 27 0 28 0;
#X connect 28 0 29 0;
#X connect 30 0 33 0;
#X connect 33 0 36 0;
#X connect 39 0 31 0;
#X connect 39 0 34 0;
#X connect 39 1 32 0;
#X connect 39 1 35 0;
#X connect 39 2 6 0;
#X connect 39 2 37 0;
#X connect 39 3 7 0;
#X connect 39 3 38 0;
#X connect 39 4 22 0;
#X connect 39 5 40 0;
#X restore 29 63 pd hid;
#N canvas 489 358 698 353 phase_vocoder 0;
#X floatatom 64 83 7 0 0 0 - \$0location-set - 0;
#X obj 47 110 s \$0location;
#X floatatom 141 85 5 0 0 0 - speed-set - 0;
#X obj 141 109 s \$0speed;
#X text 287 55 normal;
#X msg 250 31 200;
#X msg 258 55 100;
#X msg 265 79 20;
#X text 279 30 contract;
#X text 295 79 expand;
#X obj 214 110 s \$0auto;
#X floatatom 353 20 5 0 0 0 - \$0transpo-set - 0;
#X obj 410 21 bng 17 250 50 0 no-detune empty empty 0 -6 0 8 #dfdfdf #000000 #000000;
#X obj 353 43 s \$0transpo;
#X msg 529 14 512;
#X msg 535 37 1024;
#X msg 540 60 2048;
#X msg 545 83 4096;
#X text 564 13 <= set;
#X obj 529 109 s \$0window-size;
#X obj 357 84 tgl 15 0 empty empty empty 0 -6 0 8 #fcfcfc #000000 #000000 0 1;
#X obj 357 104 s \$0lock;
#N canvas 471 37 754 709 fft-analysis 0;
#X obj 56 486 *~;
#X obj 23 486 *~;
#X obj 23 508 -~;
#X obj 172 484 *~;
#X obj 141 484 *~;
#X obj 141 506 +~;
#X obj 114 202 *~;
#X obj 83 202 *~;
#X obj 55 202 *~;
#X obj 24 202 *~;
#X obj 24 227 +~;
#X obj 128 394 *~;
#X obj 24 631 *~;
#X obj 239 439 rfft~;
#X obj 123 170 rfft~;
#X obj 23 573 rifft~;
#X obj 25 655 outlet~;
#X obj 98 394 *~;
#X obj 98 416 +~;
#X obj 129 227 -~;
#X obj 23 440 *~;
#X obj 56 441 *~;
#X obj 370 652 block~;
#X obj 24 358 +~ 1e-15;
#X obj 23 607 *~;
#X obj 56 607 tabreceive~ \$0-hann;
#X obj 127 655 expr 2/(3*$f1);
#X obj 555 572 loadbang;
#X msg 370 627 set \$1 4;
#X obj 98 440 q8_rsqrt~;
#N canvas 210 25 1029 784 read-windows 0;
#X obj 146 667 *~;
#X obj 276 282 f;
#X obj 200 99 /;
#X obj 325 669 *~;
#X obj 276 231 bang~;
#X obj 146 531 line~;
#X obj 200 124 * 1000;
#X obj 318 284 +;
#X obj 398 249 *;
#X obj 294 341 / 1000;
#X obj 276 368 *;
#X text 308 368 reading location (samples);
#X obj 165 574 / 4;
#X obj 398 219 * 0.01;
#X floatatom 469 475 7 0 0 0 - - - 0;
#X obj 469 451 *;
#X obj 589 348 * 0.01;
#X obj 589 372 + 69;
#X obj 589 397 mtof;
#X obj 589 424 / 440;
#X obj 504 451 t b f;
#X obj 146 693 outlet~;
#X obj 325 694 outlet~;
#X obj 343 638 tabreceive~ \$0-hann;
#X msg 763 413 0;
#X msg 778 554 set \$1;
#X text 527 473 stretched window size (samples), f 16;
#X msg 887 555 set \$1;
#X msg 835 309 set \$1;
#X obj 821 169 t b f;
#X obj 835 286 f;
#X obj 763 200 int;
#X obj 763 232 sel 0;
#X msg 822 203 1;
#X msg 822 226 0;
#X obj 763 257 del 300;
#X obj 146 631 tabread4~ \$0-sample;
#X obj 324 611 tabread4~ \$0-sample;
#X obj 294 317 r \$0-insamprate;
#X floatatom 199 146 5 0 0 0 - - - 0;
#X obj 200 75 t f b;
#X obj 232 99 samplerate~;
#X obj 199 171 / 4;
#X obj 313 394 / 2;
#X obj 276 394 -;
#X text 349 391 back up 1/2 window;
#X obj 146 597 -~;
#X text 337 52 Read two windows out of the recorded sample \, one 1/4 ahead of the other. The mid point of the front window is specified by "location". If "speed" is nonzero \, "location" automatically precesses., f 45;
#X obj 521 676 * -0.5;
#X text 24 582 "back" window 1/4 cycle behind "front" one, f 16;
#X text 230 171 computation period (msec) for overlap of 4;
#X text 252 145 msec in a window;
#X obj 521 622 /;
#X obj 521 650 * 1000;
#X obj 521 598 t f b;
#X obj 553 622 samplerate~;
#X obj 521 575 f;
#X text 766 484 reflect control changes;
#X text 766 501 in main window.;
#X text 805 622 misc controls;
#X obj 146 449 f;
#X obj 146 420 b;
#X msg 146 503 0 \, \$1 \$2;
#X text 717 63 if location changes \, update number box in main window via "location-set" \, but taking care to limit frequency of updates., f 38;
#X text 860 397 setting location by hand sets speed to zero., f 19;
#X text 550 547 "rewind" control takes us to a location depending on stretched window size., f 25;
#X text 434 242 loop to precess the location according to the "speed" parameter., f 22;
#X obj 146 476 pack f f;
#X obj 200 51 r \$0window-size;
#X obj 398 196 r \$0speed;
#X obj 821 123 r \$0location;
#X obj 830 145 r \$0see-loc;
#X obj 844 337 s \$0location-set;
#X obj 294 256 r \$0location;
#X obj 353 288 s \$0see-loc;
#X obj 589 324 r \$0transpo;
#X obj 763 390 r \$0location;
#X obj 763 436 s \$0speed;
#X obj 469 418 r \$0window-size;
#X obj 521 522 r \$0rewind;
#X obj 521 700 s \$0location;
#X obj 778 530 r \$0speed;
#X obj 778 579 s \$0speed-set;
#X obj 887 529 r \$0transpo;
#X obj 887 580 s \$0transpo-set;
#X obj 775 654 r \$0no-detune;
#X msg 775 676 0;
#X obj 775 700 s \$0transpo;
#X obj 890 677 list prepend \$0;
#X obj 890 653 r \$0auto;
#X msg 890 709 \; \$1rewind bang \; \$1speed \$2;
#X obj 723 307 r \$0see-loc;
#X obj 717 359 >;
#X obj 735 336 r \$0-samp-msec;
#X obj 717 383 sel 1;
#X connect 0 0 21 0;
#X connect 1 0 7 0;
#X connect 1 0 10 0;
#X connect 2 0 6 0;
#X connect 3 0 22 0;
#X connect 4 0 1 0;
#X connect 5 0 46 0;
#X connect 5 0 37 0;
#X connect 6 0 39 0;
#X connect 7 0 1 1;
#X connect 7 0 74 0;
#X connect 8 0 7 1;
#X connect 9 0 10 1;
#X connect 10 0 44 0;
#X connect 12 0 46 1;
#X connect 13 0 8 0;
#X connect 14 0 12 0;
#X connect 14 0 43 0;
#X connect 14 0 56 1;
#X connect 14 0 60 1;
#X connect 15 0 14 0;
#X connect 16 0 17 0;
#X connect 17 0 18 0;
#X connect 18 0 19 0;
#X connect 19 0 20 0;
#X connect 20 0 15 0;
#X connect 20 1 15 1;
#X connect 23 0 3 1;
#X connect 23 0 0 1;
#X connect 24 0 77 0;
#X connect 25 0 82 0;
#X connect 27 0 84 0;
#X connect 28 0 72 0;
#X connect 29 0 31 0;
#X connect 29 1 30 1;
#X connect 30 0 28 0;
#X connect 31 0 32 0;
#X connect 32 0 33 0;
#X connect 32 0 35 0;
#X connect 33 0 31 1;
#X connect 34 0 31 1;
#X connect 35 0 34 0;
#X connect 35 0 30 0;
#X connect 36 0 0 0;
#X connect 37 0 3 0;
#X connect 38 0 9 0;
#X connect 39 0 42 0;
#X connect 40 0 2 0;
#X connect 40 1 41 0;
#X connect 41 0 2 1;
#X connect 42 0 8 1;
#X connect 42 0 67 1;
#X connect 43 0 44 1;
#X connect 44 0 61 0;
#X connect 44 0 36 1;
#X connect 44 0 37 1;
#X connect 46 0 36 0;
#X connect 48 0 80 0;
#X connect 52 0 53 0;
#X connect 53 0 48 0;
#X connect 54 0 52 0;
#X connect 54 1 55 0;
#X connect 55 0 52 1;
#X connect 56 0 54 0;
#X connect 60 0 67 0;
#X connect 61 0 60 0;
#X connect 62 0 5 0;
#X connect 67 0 62 0;
#X connect 68 0 40 0;
#X connect 69 0 13 0;
#X connect 70 0 29 0;
#X connect 71 0 29 0;
#X connect 73 0 1 1;
#X connect 75 0 16 0;
#X connect 76 0 24 0;
#X connect 78 0 15 0;
#X connect 79 0 56 0;
#X connect 81 0 25 0;
#X connect 83 0 27 0;
#X connect 85 0 86 0;
#X connect 86 0 87 0;
#X connect 88 0 90 0;
#X connect 89 0 88 0;
#X connect 91 0 92 0;
#X connect 92 0 94 0;
#X connect 93 0 92 1;
#X connect 94 0 24 0;
#X restore 123 142 pd read-windows;
#X text 277 14 recall previous output amplitude. Its phase will be added to the phase difference we measure from two windows in the the recorded sound.;
#X obj 126 78 *~;
#X obj 99 78 *~;
#X obj 99 100 +~;
#X obj 164 103 q8_rsqrt~;
#X obj 164 80 +~ 1e-20;
#X obj 83 128 *~;
#X obj 24 127 *~;
#X obj 182 299 r lock;
#X obj 34 254 lrshift~ 1;
#X obj 29 278 lrshift~ -1;
#X obj 146 254 lrshift~ 1;
#X obj 138 278 lrshift~ -1;
#X obj 42 309 *~;
#X obj 164 321 *~;
#X obj 24 334 +~;
#X obj 130 321 +~;
#X text 252 75 divide by the magnitude to make a unit-magnitude complex amplitude (phase only). The 1e-20 is to prevent overflows. q8_rsqrt~ is reciprocal square root.;
#X text 252 174 Take FT of the window in back. Multiply its conjugate by the normalized previous output. The result has the magnitude of the input sound and phase (previous output phase) minus (back window phase).;
#X text 254 379 Normalize again \, this time taking care to salt each channel with 1e-15 so that we get a unit complex number even if everything was zero heretofore.;
#X text 287 435 Now take the FT of the forward window and multiply it by the unit complex number from above. The magnitude will be that of the forward window and the phase will be the previous output phase plus the phase difference between the two analysis windows -- except that if "lock" is on \, they will be modified to agree progressively better with the inter-channel phase relationships of the input.;
#X text 254 251 If "lock" is on \, encourage neighboring channels to stay in phase by adding the two neighboring complex amplitudes. The result will tend toward the channel with the strongest amplitude. If the phase relationships between channels in the output and those in the input are in parallel \, then neighboring channels of the quotient will all have the same phase and this will not change any phases. (lrshift shifts the signal to the left or right depending on its argument.);
#X text 264 135 Read two windows \, one 1/4 length behind the other \, of the input sound \, with Hann window function (see inside).;
#X text 341 566 'set' message to block allows variable size, f 22;
#X obj 25 14 tabreceive~ \$0prev-real;
#X obj 83 38 tabreceive~ \$0prev-imag;
#X obj 141 541 tabsend~ \$0prev-imag;
#X obj 140 574 tabsend~ \$0prev-real;
#X obj 127 633 r \$0window-size;
#X obj 370 603 r \$0window-size;
#X obj 555 596 list prepend \$0;
#X msg 555 628 \; \$1window-size 2048 \; \$1transpo 0 \; \$1rewind bang;
#X connect 0 0 2 1;
#X connect 1 0 2 0;
#X connect 2 0 15 0;
#X connect 2 0 58 0;
#X connect 3 0 5 1;
#X connect 4 0 5 0;
#X connect 5 0 15 1;
#X connect 5 0 57 0;
#X connect 6 0 19 1;
#X connect 7 0 19 0;
#X connect 8 0 10 1;
#X connect 9 0 10 0;
#X connect 10 0 41 0;
#X connect 10 0 40 0;
#X connect 10 0 46 0;
#X connect 11 0 18 1;
#X connect 12 0 16 0;
#X connect 13 0 1 1;
#X connect 13 0 3 1;
#X connect 13 1 0 1;
#X connect 13 1 4 1;
#X connect 14 0 9 1;
#X connect 14 0 7 1;
#X connect 14 1 6 1;
#X connect 14 1 8 1;
#X connect 15 0 24 0;
#X connect 17 0 18 0;
#X connect 18 0 29 0;
#X connect 19 0 42 0;
#X connect 19 0 43 0;
#X connect 19 0 47 0;
#X connect 20 0 1 0;
#X connect 20 0 4 0;
#X connect 21 0 0 0;
#X connect 21 0 3 0;
#X connect 23 0 17 1;
#X connect 23 0 17 0;
#X connect 23 0 20 0;
#X connect 24 0 12 0;
#X connect 25 0 24 1;
#X connect 26 0 12 1;
#X connect 27 0 61 0;
#X connect 28 0 22 0;
#X connect 29 0 20 1;
#X connect 29 0 21 1;
#X connect 30 0 14 0;
#X connect 30 1 13 0;
#X connect 32 0 34 1;
#X connect 33 0 34 0;
#X connect 34 0 36 0;
#X connect 35 0 37 1;
#X connect 35 0 38 1;
#X connect 36 0 35 0;
#X connect 37 0 8 0;
#X connect 37 0 7 0;
#X connect 38 0 9 0;
#X connect 38 0 6 0;
#X connect 39 0 44 1;
#X connect 39 0 45 1;
#X connect 40 0 44 0;
#X connect 41 0 44 0;
#X connect 42 0 45 0;
#X connect 43 0 45 0;
#X connect 44 0 46 1;
#X connect 45 0 47 1;
#X connect 46 0 23 0;
#X connect 47 0 11 0;
#X connect 47 0 11 1;
#X connect 47 0 21 0;
#X connect 55 0 33 1;
#X connect 55 0 33 0;
#X connect 55 0 38 0;
#X connect 56 0 32 1;
#X connect 56 0 32 0;
#X connect 56 0 37 0;
#X connect 59 0 26 0;
#X connect 60 0 28 0;
#X connect 61 0 62 0;
#X restore 59 170 pd fft-analysis;
#X obj 59 275 outlet~;
#N canvas 260 25 531 738 phase-tables 0;
#N canvas 0 0 450 300 (subpatch) 0;
#X array \$0prev-imag 4096 float 0;
#X coords 0 1000 4096 -1000 400 300 1 0 0;
#X restore 67 395 graph;
#N canvas 0 0 450 300 (subpatch) 0;
#X array \$0prev-real 4096 float 0;
#X coords 0 500 4096 -500 400 300 1 0 0;
#X restore 67 40 graph;
#X restore 376 145 pd phase-tables;
#N canvas 385 188 595 536 hann-window 0;
#N canvas 0 0 450 300 (subpatch) 0;
#X array \$0-hann 4096 float 0;
#X coords 0 1 4095 0 300 100 1;
#X restore 148 395 graph;
#X obj 365 185 osc~;
#X obj 365 210 *~ -0.5;
#X obj 365 234 +~ 0.5;
#X obj 348 277 tabwrite~ \$0-hann;
#X obj 195 238 /;
#X obj 213 206 samplerate~;
#X obj 105 252 swap;
#X obj 105 276 /;
#X obj 206 266 * 1000;
#X obj 124 149 t f b f;
#X msg 213 156 resize \$1;
#X obj 213 180 s \$0-hann;
#X msg 390 155 0;
#X obj 317 151 t f b;
#X text 94 21 calculate Hann window table (variable window size) and constants window-hz (fundamental frequency of analysis) \, window-sec and window-msec (analysis window size in seconds and msec)., f 56;
#X obj 124 114 r \$0window-size;
#X obj 317 123 r \$0window-hz;
#X obj 206 293 s \$0window-msec;
#X obj 195 316 s \$0window-sec;
#X obj 105 300 s \$0window-hz;
#X connect 1 0 2 0;
#X connect 2 0 3 0;
#X connect 3 0 4 0;
#X connect 5 0 9 0;
#X connect 5 0 19 0;
#X connect 6 0 5 1;
#X connect 6 0 7 1;
#X connect 7 0 8 0;
#X connect 7 1 8 1;
#X connect 8 0 20 0;
#X connect 9 0 18 0;
#X connect 10 0 5 0;
#X connect 10 0 7 0;
#X connect 10 1 6 0;
#X connect 10 2 11 0;
#X connect 11 0 12 0;
#X connect 13 0 1 1;
#X connect 14 0 1 0;
#X connect 14 1 4 0;
#X connect 14 1 13 0;
#X connect 16 0 10 0;
#X connect 17 0 14 0;
#X restore 376 169 pd hann-window;
#X floatatom 504 168 7 0 0 0 - \$0-samp-msec - 0;
#X text 556 167 length \, msec;
#X floatatom 503 141 7 0 0 0 - \$0window-size - 0;
#X text 555 140 (check);
#N canvas 949 242 449 537 soundFile 1;
#X obj 252 103 r soundFile1;
#X obj 67 150 list;
#X obj 133 200 list;
#X obj 266 166 r soundFile2;
#X obj 67 94 bng 19 250 50 0 empty empty empty 0 -10 0 12 #fcfcfc #000000 #000000;
#X obj 133 155 bng 19 250 50 0 empty empty empty 0 -10 0 12 #fcfcfc #000000 #000000;
#X obj 110 59 route 1 2 3 4;
#X obj 110 32 inlet;
#X obj 181 271 list;
#X obj 247 321 list;
#X obj 181 215 bng 19 250 50 0 empty empty empty 0 -10 0 12 #fcfcfc #000000 #000000;
#X obj 247 276 bng 19 250 50 0 empty empty empty 0 -10 0 12 #fcfcfc #000000 #000000;
#X obj 285 214 r soundFile3;
#X obj 299 277 r soundFile4;
#N canvas 410 109 731 456 insample 0;
#N canvas 0 0 450 300 (subpatch) 0;
#X array \$0-sample 74970 float 0;
#X coords 0 1 74969 -1 400 150 1;
#X restore 302 143 graph;
#X obj 49 108 unpack s f;
#X obj 49 218 soundfiler;
#X obj 49 134 t s b;
#X obj 102 137 symbol \$0-sample;
#X obj 49 169 pack s s;
#X msg 49 194 read -resize \$1 \$2;
#X obj 49 81 t a b;
#X obj 59 247 s \$0-samplength;
#X obj 146 108 s \$0-insamprate;
#X obj 49 281 /;
#X obj 49 305 * 1000;
#X obj 49 328 s \$0-samp-msec;
#X obj 87 281 r \$0-insamprate;
#X obj 146 82 samplerate~;
#X obj 49 57 inlet;
#X connect 1 0 3 0;
#X connect 2 0 8 0;
#X connect 2 0 10 0;
#X connect 3 0 5 0;
#X connect 3 1 4 0;
#X connect 4 0 5 1;
#X connect 5 0 6 0;
#X connect 6 0 2 0;
#X connect 7 0 1 0;
#X connect 7 1 14 0;
#X connect 10 0 11 0;
#X connect 11 0 12 0;
#X connect 13 0 10 1;
#X connect 14 0 9 0;
#X connect 15 0 7 0;
#X restore 194 504 pd insample;
#X msg 194 483 sons/\$1;
#X obj 67 395 list trim;
#X obj 67 419 route bang;
#X obj 134 442 list;
#X connect 0 0 1 1;
#X connect 1 0 16 0;
#X connect 2 0 16 0;
#X connect 3 0 2 1;
#X connect 4 0 1 0;
#X connect 5 0 2 0;
#X connect 6 0 4 0;
#X connect 6 1 5 0;
#X connect 6 2 10 0;
#X connect 6 3 11 0;
#X connect 7 0 6 0;
#X connect 8 0 16 0;
#X connect 9 0 16 0;
#X connect 10 0 8 0;
#X connect 11 0 9 0;
#X connect 12 0 8 1;
#X connect 13 0 9 1;
#X connect 15 0 14 0;
#X connect 16 0 17 0;
#X connect 17 1 18 0;
#X connect 18 0 15 0;
#X restore 244 196 pd soundFile;
#X obj 243 168 r R_CURSOR;
#N canvas 400 290 761 542 navigate 0;
#X obj 298 503 outlet;
#X msg 550 265 0;
#X obj 129 221 r \$0location-set;
#X obj 129 245 route set;
#X obj 550 241 r STICK_L_SWITCH;
#X obj 304 300 f;
#X obj 359 351 + 1;
#X obj 302 372 - 1;
#X obj 301 338 f;
#X obj 349 398 mod 8;
#X obj 287 15 r STICK_LX;
#X obj 381 207 sel 1;
#X obj 441 207 sel 1;
#X msg 381 229 0;
#X msg 441 230 1;
#X obj 268 240 metro;
#X obj 287 99 t a a a a;
#X obj 313 202 -;
#X obj 268 266 demux;
#X obj 481 343 r \$0-samp-msec;
#X floatatom 357 480 5 0 0 0 - - - 0;
#X obj 287 42 - 128;
#X obj 312 149 abs;
#X obj 381 183 < 0;
#X obj 441 181 > 0;
#X floatatom 432 139 5 0 0 0 - - - 0;
#X obj 278 170 != 0;
#X obj 321 230 * 2;
#X msg 313 171 129 \$1;
#X connect 1 0 9 0;
#X connect 2 0 3 0;
#X connect 3 0 5 1;
#X connect 3 0 8 1;
#X connect 4 0 1 0;
#X connect 5 0 6 0;
#X connect 6 0 9 0;
#X connect 7 0 9 0;
#X connect 8 0 7 0;
#X connect 9 0 5 1;
#X connect 9 0 8 1;
#X connect 9 0 0 0;
#X connect 10 0 21 0;
#X connect 11 0 13 0;
#X connect 12 0 14 0;
#X connect 13 0 18 1;
#X connect 14 0 18 1;
#X connect 15 0 18 0;
#X connect 16 0 26 0;
#X connect 16 1 23 0;
#X connect 16 2 24 0;
#X connect 16 3 22 0;
#X connect 16 3 25 0;
#X connect 17 0 27 0;
#X connect 18 0 8 0;
#X connect 18 1 5 0;
#X connect 19 0 9 1;
#X connect 21 0 16 0;
#X connect 22 0 28 0;
#X connect 23 0 11 0;
#X connect 24 0 12 0;
#X connect 26 0 15 0;
#X connect 27 0 15 1;
#X connect 28 0 17 0;
#X restore 51 45 pd navigate;
#N canvas 353 378 525 300 play 0;
#X obj 68 267 outlet;
#X msg 61 218 20;
#X msg 99 217 100;
#X obj 230 71 r L_CURSOR;
#X obj 61 61 sel 1;
#X obj 61 134 route 4 0 2;
#X msg 138 216 200;
#X obj 61 110 f;
#X obj 61 31 r R2;
#X obj 115 31 r R1;
#X obj 114 58 metro 50;
#X connect 1 0 0 0;
#X connect 2 0 0 0;
#X connect 3 0 7 1;
#X connect 4 0 7 0;
#X connect 5 0 1 0;
#X connect 5 1 2 0;
#X connect 5 2 6 0;
#X connect 6 0 0 0;
#X connect 7 0 5 0;
#X connect 8 0 4 0;
#X connect 9 0 10 0;
#X connect 10 0 7 0;
#X restore 220 7 pd play;
#N canvas 150 175 829 502 pitch 0;
#X obj 109 464 s \$0transpo-set;
#X obj 111 34 r STICK_LY;
#X obj 111 58 / 128;
#X obj 114 90 - 1;
#X obj 114 149 * 2400;
#X obj 109 431 line;
#X msg 109 405 \$1 100;
#X obj 230 101 * 100;
#X obj 230 34 r pitchbendRange;
#X obj 230 56 symbol;
#X obj 230 80 float;
#X obj 402 96 osc~ 1;
#X obj 402 120 env~;
#X obj 402 144 dbtorms;
#X obj 397 231 *;
#X obj 503 13 r L2;
#X obj 196 371 +;
#X obj 195 335 t b f;
#X obj 396 256 * 1200;
#X obj 402 168 * 2;
#X obj 402 192 - 1;
#X obj 586 11 r L1;
#X obj 480 205 ||;
#X obj 628 149 &&;
#X obj 574 132 sel 1;
#X obj 503 41 t a a a;
#X obj 690 147 sel 1;
#X obj 585 36 t b a a a;
#X msg 577 202 1;
#X msg 627 197 10;
#X msg 691 199 0.1;
#X floatatom 576 236 5 0 0 0 - - - 0;
#X floatatom 712 82 5 0 0 0 - - - 0;
#X obj 624 115 t b a;
#X obj 403 68 sig~;
#X obj 628 174 sel 1;
#X connect 1 0 2 0;
#X connect 2 0 3 0;
#X connect 3 0 4 0;
#X connect 4 0 16 0;
#X connect 5 0 0 0;
#X connect 6 0 5 0;
#X connect 7 0 4 1;
#X connect 8 0 9 0;
#X connect 9 0 10 0;
#X connect 10 0 7 0;
#X connect 11 0 12 0;
#X connect 12 0 13 0;
#X connect 13 0 19 0;
#X connect 14 0 18 0;
#X connect 15 0 25 0;
#X connect 16 0 6 0;
#X connect 17 0 16 0;
#X connect 17 1 16 1;
#X connect 18 0 17 0;
#X connect 19 0 20 0;
#X connect 20 0 14 0;
#X connect 21 0 27 0;
#X connect 21 0 32 0;
#X connect 22 0 14 1;
#X connect 23 0 35 0;
#X connect 24 0 28 0;
#X connect 25 0 22 0;
#X connect 25 1 23 0;
#X connect 25 2 24 0;
#X connect 26 0 30 0;
#X connect 27 0 22 0;
#X connect 27 1 22 1;
#X connect 27 2 33 0;
#X connect 27 3 26 0;
#X connect 28 0 31 0;
#X connect 28 0 34 0;
#X connect 29 0 31 0;
#X connect 29 0 34 0;
#X connect 30 0 31 0;
#X connect 30 0 34 0;
#X connect 33 0 23 0;
#X connect 33 1 23 1;
#X connect 34 0 11 0;
#X connect 35 0 29 0;
#X restore 443 11 pd pitch;
#N canvas 179 204 450 300 setWindow 0;
#X msg 165 197 1024;
#X msg 42 149 2048;
#X msg 132 219 4096;
#X obj 116 245 s \$0window-size;
#X obj 209 15 r L_CURSOR;
#X obj 209 39 route 1 3;
#X obj 261 79 f;
#X obj 316 130 + 1;
#X obj 259 151 - 1;
#X obj 258 117 f;
#X floatatom 354 205 5 0 0 0 - - - 0;
#X obj 315 164 mod 8;
#X floatatom 299 268 5 0 0 0 - - - 0;
#X obj 299 244 pow;
#X msg 300 223 2 \$1;
#X obj 300 198 + 5;
#X msg 84 150 128;
#X connect 0 0 3 0;
#X connect 1 0 3 0;
#X connect 2 0 3 0;
#X connect 4 0 5 0;
#X connect 5 0 9 0;
#X connect 5 0 1 0;
#X connect 5 1 6 0;
#X connect 5 1 16 0;
#X connect 6 0 7 0;
#X connect 7 0 11 0;
#X connect 8 0 11 0;
#X connect 9 0 8 0;
#X connect 11 0 6 1;
#X connect 11 0 9 1;
#X connect 11 0 10 0;
#X connect 11 0 15 0;
#X connect 13 0 12 0;
#X connect 14 0 13 0;
#X connect 15 0 14 0;
#X connect 16 0 3 0;
#X restore 609 51 pd setWindow;
#X obj 59 250 hip~ 50;
#X connect 0 0 1 0;
#X connect 2 0 3 0;
#X connect 5 0 10 0;
#X connect 6 0 10 0;
#X connect 7 0 10 0;
#X connect 11 0 13 0;
#X connect 14 0 19 0;
#X connect 15 0 19 0;
#X connect 16 0 19 0;
#X connect 17 0 19 0;
#X connect 20 0 21 0;
#X connect 22 0 36 0;
#X connect 31 0 30 0;
#X connect 32 0 1 0;
#X connect 33 0 10 0;
#X connect 36 0 23 0;
#X restore 26 115 pd phase_vocoder;
#X obj 26 293 outlet~;
#X obj 271 12 r STICK_RY;
#X obj 271 84 -;
#X msg 271 60 1 \$1;
#X obj 271 108 * 2;
#X obj 26 213 *~;
#X obj 203 183 line~;
#X msg 203 156 \$1 50;
#X obj 166 29 loadbang;
#X msg 166 53 1;
#X obj 271 36 / 256;
#X obj 271 133 moses 1;
#X obj 320 180 * 2;
#X obj 368 181 bng 15 250 50 0 empty empty empty 17 7 0 10 #fcfcfc #000000 #000000;
#X obj 421 182 bng 15 250 50 0 empty empty empty 17 7 0 10 #fcfcfc #000000 #000000;
#X msg 388 179 1;
#X msg 441 178 0;
#X text 446 102 nom de la cue;
#X obj 376 15 r cueName;
#X obj 376 103 sel Init;
#X msg 556 289 0;
#X obj 556 313 s \$0speed;
#X obj 636 225 r STICK_R_SWITCH;
#X obj 636 249 sel 1;
#X obj 26 258 *~;
#X obj 281 264 line~;
#X msg 281 237 \$1 50;
#X obj 622 91 switch~;
#X obj 584 55 instrumentSelect Gamepad;
#X obj 376 63 spigot;
#X obj 523 24 groupSelect Gamepad;
#X obj 513 153 r \$0-samp-msec;
#X obj 495 203 s \$0location;
#X obj 495 180 f;
#X obj 368 291 s \$0-sample;
#X msg 368 267 const 0;
#X connect 1 0 7 0;
#X connect 3 0 12 0;
#X connect 4 0 6 0;
#X connect 5 0 4 0;
#X connect 6 0 13 0;
#X connect 7 0 26 0;
#X connect 8 0 7 1;
#X connect 9 0 8 0;
#X connect 10 0 11 0;
#X connect 11 0 9 0;
#X connect 12 0 5 0;
#X connect 13 0 9 0;
#X connect 13 1 14 0;
#X connect 14 0 9 0;
#X connect 15 0 37 0;
#X connect 17 0 22 0;
#X connect 17 0 28 0;
#X connect 18 0 28 0;
#X connect 20 0 31 0;
#X connect 21 0 15 0;
#X connect 21 0 17 0;
#X connect 21 0 35 0;
#X connect 21 1 16 0;
#X connect 21 1 18 0;
#X connect 22 0 23 0;
#X connect 24 0 25 0;
#X connect 25 0 22 0;
#X connect 26 0 2 0;
#X connect 27 0 26 1;
#X connect 28 0 27 0;
#X connect 30 0 29 0;
#X connect 31 0 21 0;
#X connect 32 0 31 1;
#X connect 33 0 35 1;
#X connect 35 0 34 0;
#X connect 37 0 36 0;
#X restore 155 196 pd Gamepad;
#X text 249 369 audio out;
#X obj 198 6 r Instrument;
#X msg 198 30 set \$1;
#X msg 198 54 Gamepad;
#X obj 360 310 *~;
#X obj 444 261 line~;
#X msg 444 238 \$1 50;
#X obj 444 216 dbtorms;
#X obj 444 194 r gametrakVolume;
#X obj 155 312 *~;
#X obj 236 263 line~;
#X msg 236 240 \$1 50;
#X obj 236 218 dbtorms;
#X obj 18 86 t a a;
#X obj 50 109 s patchDir;
#X obj 236 196 r gamepadVolume;
#X obj 792 69 print Musician;
#X obj 792 96 r Instrument;
#X obj 792 45 r Musician;
#X obj 917 120 print GametrakNum;
#X obj 917 46 r ID;
#X obj 792 120 print Instrument;
#X obj 917 70 symbol;
#X obj 917 94 float;
#X text 748 24 Montre computer Param dans la Console:;
#X obj 833 276 list split 1;
#X obj 848 343 list;
#X obj 833 302 t b a;
#X obj 882 371 send;
#X obj 796 201 list trim;
#X obj 796 248 json-decode;
#X obj 796 177 r cue_param;
#X text 789 155 décrypte les objets dans la liste des cues;
#X obj 796 224 route calibrate;
#X obj 946 276 route cueName;
#X obj 946 323 s cueName;
#X obj 946 300 list;
#N canvas 167 482 973 366 Hexapad 0;
#X obj 635 186 bng 15 250 50 0 empty empty empty 17 7 0 10 #fcfcfc #000000 #000000;
#X obj 688 187 bng 15 250 50 0 empty empty empty 17 7 0 10 #fcfcfc #000000 #000000;
#X msg 655 184 1;
#X msg 708 183 0;
#X text 713 107 nom de la cue;
#X obj 643 20 r cueName;
#X obj 643 72 spigot;
#X obj 643 108 sel Init;
#X obj 164 328 outlet~;
#N canvas 623 73 760 598 midi 0;
#X obj 29 21 notein;
#X obj 29 59 stripnote;
#X obj 29 164 pack;
#X obj 312 95 polytouchin;
#X obj 312 176 swap;
#X obj 312 200 pack;
#X obj 104 324 s hexapadNote;
#X obj 29 223 route 71;
#N canvas 201 290 825 479 playSounds 0;
#X obj 29 10 inlet;
#X obj 29 43 route 60 62 69;
#X obj 29 302 s playHexapad;
#X obj 29 275 list trim;
#X obj 29 249 list prepend soundFile2;
#X obj 342 310 s playHexapad;
#X obj 342 283 list trim;
#X obj 342 257 list prepend soundFile1;
#X obj 344 51 route 65 64 67;
#X obj 651 76 padState 48 s se;
#X obj 648 163 padState 60 so se;
#X obj 645 124 padState 72 so s;
#X msg 145 86 48 \$1;
#X msg 143 123 72 \$1;
#X msg 141 158 60 \$1;
#X msg 458 112 48 \$1;
#X msg 456 149 72 \$1;
#X msg 454 184 60 \$1;
#X obj 28 218 list append 10000 0 0 0;
#X obj 340 229 list append 10000 0 0 0;
#X connect 0 0 1 0;
#X connect 1 0 14 0;
#X connect 1 1 13 0;
#X connect 1 2 12 0;
#X connect 1 3 8 0;
#X connect 3 0 2 0;
#X connect 4 0 3 0;
#X connect 6 0 5 0;
#X connect 7 0 6 0;
#X connect 8 0 17 0;
#X connect 8 1 16 0;
#X connect 8 2 15 0;
#X connect 12 0 18 0;
#X connect 13 0 18 0;
#X connect 14 0 18 0;
#X connect 15 0 19 0;
#X connect 16 0 19 0;
#X connect 17 0 19 0;
#X connect 18 0 4 0;
#X connect 19 0 7 0;
#X restore 81 345 pd playSounds;
#X obj 135 227 s transposeHexapad;
#X obj 29 188 t a b;
#X msg 135 200 0;
#X obj 312 145 > 0;
#X msg 327 345 s \$1;
#X msg 369 346 se \$1;
#X msg 417 344 ne \$1;
#X msg 466 343 n \$1;
#X msg 508 343 no \$1;
#X msg 557 343 so \$1;
#X obj 312 224 route 60 62 64 65 67 69 71;
#X msg 607 342 c \$1;
#X obj 475 435 s padState;
#X obj 29 427 list;
#X obj 29 356 b;
#X obj 87 376 r playHexapad;
#X obj 29 451 t a b;
#X obj 29 559 s playHexapad;
#X obj 81 251 t a a b;
#X obj 62 495 s reverbEnable;
#X msg 60 474 1;
#X obj 131 298 s reverbEnable;
#X msg 130 277 0;
#X obj 124 457 print test;
#X obj 30 532 list trim;
#N canvas 201 290 825 479 playSounds 0;
#X obj 29 10 inlet;
#X obj 29 302 s playHexapad;
#X obj 29 275 list trim;
#X obj 117 180 padState 60 so se;
#X obj 29 249 list prepend soundFile2;
#X obj 114 141 padState 72 so s;
#X obj 113 105 padState 48 s se;
#X obj 344 310 s playHexapad;
#X obj 344 283 list trim;
#X obj 344 257 list prepend soundFile1;
#X obj 432 188 padState 60 no ne;
#X obj 429 149 padState 72 no n;
#X obj 431 113 padState 48 n ne;
#X obj 53 44 route s se so;
#X obj 344 51 route n ne no;
#X connect 2 0 1 0;
#X connect 3 0 4 0;
#X connect 4 0 2 0;
#X connect 5 0 4 0;
#X connect 6 0 4 0;
#X connect 8 0 7 0;
#X connect 9 0 8 0;
#X connect 10 0 9 0;
#X connect 11 0 9 0;
#X connect 12 0 9 0;
#X connect 13 0 3 0;
#X connect 13 1 5 0;
#X connect 13 2 6 0;
#X connect 13 3 14 0;
#X connect 14 0 10 0;
#X connect 14 1 11 0;
#X connect 14 2 12 0;
#X restore 241 432 pd playSounds;
#X obj 373 174 change;
#X obj 425 174 change;
#X obj 477 174 change;
#X obj 527 174 change;
#X obj 576 173 change;
#X obj 627 172 change;
#X obj 679 172 change;
#X obj 103 90 / 127;
#X obj 103 114 * 64;
#X obj 103 138 i;
#X obj 103 162 + 63;
#X connect 0 0 1 0;
#X connect 0 1 1 1;
#X connect 1 0 2 0;
#X connect 1 1 42 0;
#X connect 2 0 10 0;
#X connect 4 0 5 0;
#X connect 4 1 5 1;
#X connect 5 0 19 0;
#X connect 7 0 23 0;
#X connect 7 1 27 0;
#X connect 10 0 7 0;
#X connect 10 1 11 0;
#X connect 11 0 9 0;
#X connect 12 0 4 0;
#X connect 13 0 21 0;
#X connect 14 0 21 0;
#X connect 15 0 21 0;
#X connect 16 0 21 0;
#X connect 17 0 21 0;
#X connect 18 0 21 0;
#X connect 19 0 13 0;
#X connect 19 1 14 0;
#X connect 19 2 15 0;
#X connect 19 3 16 0;
#X connect 19 4 17 0;
#X connect 19 5 18 0;
#X connect 19 6 20 0;
#X connect 20 0 21 0;
#X connect 22 0 25 0;
#X connect 23 0 22 0;
#X connect 24 0 22 1;
#X connect 25 0 33 0;
#X connect 25 1 29 0;
#X connect 27 0 8 0;
#X connect 27 1 6 0;
#X connect 27 2 31 0;
#X connect 29 0 28 0;
#X connect 31 0 30 0;
#X connect 33 0 26 0;
#X connect 42 0 43 0;
#X connect 43 0 44 0;
#X connect 44 0 45 0;
#X connect 45 0 2 1;
#X restore 81 34 pd midi;
#N canvas 121 146 450 300 calibrate 0;
#X obj 143 116 noteout;
#X msg 143 80 60 1;
#X obj 143 48 r calibrate;
#X connect 1 0 0 0;
#X connect 2 0 1 0;
#X restore 185 31 pd calibrate;
#X obj 30 74 sampler.note dedale soundFile1 Hexapad;
#X obj 162 105 sampler.note dedale soundFile2 Hexapad;
#N canvas 280 39 837 707 reverb 0;
#X obj 13 588 *~;
#X obj 288 539 *~;
#X obj 259 538 *~;
#X obj 351 540 *~;
#X obj 319 539 *~;
#X obj 319 567 +~;
#X obj 259 568 -~;
#X obj 457 470 *~;
#X obj 183 260 *~;
#X obj 151 260 *~;
#X obj 151 285 +~;
#X obj 275 149 *~;
#X obj 243 149 *~;
#X obj 507 384 *~;
#X obj 475 384 *~;
#X obj 168 113 *~;
#X obj 13 615 outlet~;
#X obj 13 563 *~;
#X obj 205 112 inlet~;
#X obj 168 190 rfft~;
#X obj 13 539 rifft~;
#X obj 475 412 rsqrt~;
#X obj 243 173 +~;
#X obj 397 470 *~;
#X obj 51 587 sig~ 0.0002;
#N canvas 167 161 699 396 decision 0;
#X obj 49 101 inlet~;
#X obj 50 341 outlet~;
#X obj 50 183 -~;
#X obj 50 226 clip~ 0 1;
#X obj 50 204 *~ 1e+20;
#X obj 196 98 inlet~;
#X text 137 213 stronger than;
#X text 139 228 old one;
#X obj 274 202 -~;
#X obj 288 177 lrshift~ 1;
#X obj 274 250 clip~ 0 1;
#X obj 274 228 *~ 1e+20;
#X obj 450 202 -~;
#X obj 450 250 clip~ 0 1;
#X obj 450 228 *~ 1e+20;
#X obj 464 177 lrshift~ -1;
#X obj 50 283 *~;
#X obj 50 312 *~;
#X text 135 199 1 if new signal;
#X text 55 73 new;
#X text 203 70 old;
#X text 51 12 Choose whether to replace the "old" signal with the "new" one. The "new" one must be stronger than the old one and also must be stronger than its two neighboring channels;
#X text 267 283 1 if we're louder than neighbor;
#X connect 0 0 2 0;
#X connect 0 0 9 0;
#X connect 0 0 8 0;
#X connect 0 0 12 0;
#X connect 0 0 15 0;
#X connect 2 0 4 0;
#X connect 3 0 16 0;
#X connect 4 0 3 0;
#X connect 5 0 2 1;
#X connect 8 0 11 0;
#X connect 9 0 8 1;
#X connect 10 0 16 1;
#X connect 11 0 10 0;
#X connect 12 0 14 0;
#X connect 13 0 17 1;
#X connect 14 0 13 0;
#X connect 15 0 12 1;
#X connect 16 0 17 0;
#X connect 17 0 1 0;
#X restore 151 312 pd decision;
#X obj 475 434 *~;
#N canvas 352 333 393 308 divide-by-prev 0;
#X obj 204 88 inlet~;
#X obj 266 90 inlet~;
#X obj 204 240 outlet~;
#X obj 267 240 outlet~;
#X obj 70 240 outlet~;
#X obj 138 240 outlet~;
#X obj 171 169 *~;
#X obj 138 169 *~;
#X obj 103 170 *~;
#X obj 70 170 *~;
#X obj 70 198 +~;
#X obj 138 197 -~;
#X obj 89 34 tabreceive~ \$0-last-real;
#X obj 121 61 tabreceive~ \$0-last-imag;
#X connect 0 0 2 0;
#X connect 0 0 9 0;
#X connect 0 0 6 0;
#X connect 1 0 3 0;
#X connect 1 0 8 0;
#X connect 1 0 7 0;
#X connect 6 0 11 1;
#X connect 7 0 11 0;
#X connect 8 0 10 1;
#X connect 9 0 10 0;
#X connect 10 0 4 0;
#X connect 11 0 5 0;
#X connect 12 0 9 1;
#X connect 12 0 7 1;
#X connect 13 0 8 1;
#X connect 13 0 6 1;
#X restore 500 279 pd divide-by-prev;
#N canvas 650 183 602 327 switch 0;
#X obj 61 160 inlet~;
#X obj 149 96 inlet~;
#X obj 211 97 inlet~;
#X obj 315 94 inlet~;
#X obj 375 94 inlet~;
#X obj 409 182 -~;
#X obj 380 228 +~;
#X obj 414 226 *~;
#X obj 292 179 -~;
#X obj 262 225 +~;
#X obj 296 225 *~;
#X obj 261 275 outlet~;
#X obj 380 271 outlet~;
#X text 88 25 switch between two pairs of inputs. If first inlet is one \, take the left-hand pair \, otherwise the right-hand one.;
#X text 57 137 switch;
#X text 134 73 pass this if one;
#X text 311 74 pass this if zero;
#X connect 0 0 10 1;
#X connect 0 0 7 1;
#X connect 1 0 8 0;
#X connect 2 0 5 0;
#X connect 3 0 9 0;
#X connect 3 0 8 1;
#X connect 4 0 6 0;
#X connect 4 0 5 1;
#X connect 5 0 7 0;
#X connect 6 0 12 0;
#X connect 7 0 6 1;
#X connect 8 0 10 0;
#X connect 9 0 11 0;
#X connect 10 0 9 1;
#X restore 277 369 pd switch;
#X obj 442 174 tabreceive~ \$0-inc-real;
#X obj 459 226 tabreceive~ \$0-inc-imag;
#X obj 616 304 tabsend~ \$0-last-imag;
#X obj 577 327 tabsend~ \$0-last-real;
#X obj 457 510 tabsend~ \$0-inc-imag;
#X obj 397 536 tabsend~ \$0-inc-real;
#X msg 558 380 set \$1;
#X obj 681 121 loadbang;
#X msg 681 72 set \$1 4;
#X obj 681 94 block~;
#X obj 548 428 expr 1 - 0.2/max(0.2 \, $f1);
#X obj 322 55 tabreceive~ \$0-amp-real;
#X obj 337 107 tabreceive~ \$0-amp-imag;
#X obj 319 621 tabsend~ \$0-amp-imag;
#X obj 259 650 tabsend~ \$0-amp-real;
#X text 314 15 previous output amplitude \, encoding both magnitude and phase, f 33;
#X text 435 136 previous phase increment (unit-magnitude complex number), f 31;
#X obj 442 199 +~ 1e-15;
#X obj 322 81 +~ 1e-15;
#X text 11 639 IFFT and output;
#X text 491 457 normalize increments between 0 and 1 according to revtime., f 29;
#X text 352 564 propagate amplitudes by multiplying in the increments \, which advance the phase and drop magnitude according to revtime., f 40;
#X text 31 289 choose whether to punch in new (amplitude \, increment) pair, f 16;
#N canvas 650 183 602 327 switch 0;
#X obj 61 160 inlet~;
#X obj 149 96 inlet~;
#X obj 211 97 inlet~;
#X obj 315 94 inlet~;
#X obj 375 94 inlet~;
#X obj 409 182 -~;
#X obj 380 228 +~;
#X obj 414 226 *~;
#X obj 292 179 -~;
#X obj 262 225 +~;
#X obj 296 225 *~;
#X obj 261 275 outlet~;
#X obj 380 271 outlet~;
#X text 88 25 switch between two pairs of inputs. If first inlet is one \, take the left-hand pair \, otherwise the right-hand one.;
#X text 57 137 switch;
#X text 134 73 pass this if one;
#X text 311 74 pass this if zero;
#X connect 0 0 10 1;
#X connect 0 0 7 1;
#X connect 1 0 8 0;
#X connect 2 0 5 0;
#X connect 3 0 9 0;
#X connect 3 0 8 1;
#X connect 4 0 6 0;
#X connect 4 0 5 1;
#X connect 5 0 7 0;
#X connect 6 0 12 0;
#X connect 7 0 6 1;
#X connect 8 0 10 0;
#X connect 9 0 11 0;
#X connect 10 0 9 1;
#X restore 397 353 pd switch;
#X obj 681 50 r \$0window-size;
#X obj 681 145 list prepend \$0;
#X obj 548 357 r \$0revtime;
#X obj 558 404 s \$0revtime-set;
#X obj 94 78 tabreceive~ \$0-hann-reverb;
#X obj 49 564 tabreceive~ \$0-hann-reverb;
#X obj 749 121 bng 19 250 50 0 empty empty empty 0 -10 0 12 #fcfcfc #000000 #000000;
#X msg 681 167 \; \$1window-size 4096 \; \$1revtime 20;
#X connect 0 0 16 0;
#X connect 1 0 6 1;
#X connect 2 0 6 0;
#X connect 3 0 5 1;
#X connect 4 0 5 0;
#X connect 5 0 42 0;
#X connect 6 0 43 0;
#X connect 7 0 1 0;
#X connect 7 0 3 0;
#X connect 7 0 33 0;
#X connect 8 0 10 1;
#X connect 9 0 10 0;
#X connect 10 0 25 0;
#X connect 11 0 22 1;
#X connect 12 0 22 0;
#X connect 13 0 21 0;
#X connect 14 0 21 0;
#X connect 15 0 19 0;
#X connect 17 0 0 0;
#X connect 18 0 15 1;
#X connect 19 0 9 0;
#X connect 19 0 9 1;
#X connect 19 0 27 0;
#X connect 19 0 28 1;
#X connect 19 1 8 0;
#X connect 19 1 8 1;
#X connect 19 1 27 1;
#X connect 19 1 28 2;
#X connect 20 0 17 0;
#X connect 21 0 26 0;
#X connect 22 0 25 1;
#X connect 23 0 2 0;
#X connect 23 0 4 0;
#X connect 23 0 34 0;
#X connect 24 0 0 1;
#X connect 25 0 28 0;
#X connect 25 0 52 0;
#X connect 26 0 23 1;
#X connect 26 0 7 1;
#X connect 27 0 52 1;
#X connect 27 1 52 2;
#X connect 27 2 32 0;
#X connect 27 3 31 0;
#X connect 28 0 20 0;
#X connect 28 0 3 1;
#X connect 28 0 2 1;
#X connect 28 1 20 1;
#X connect 28 1 1 1;
#X connect 28 1 4 1;
#X connect 29 0 46 0;
#X connect 30 0 52 4;
#X connect 35 0 56 0;
#X connect 36 0 54 0;
#X connect 37 0 38 0;
#X connect 39 0 26 1;
#X connect 40 0 47 0;
#X connect 41 0 11 0;
#X connect 41 0 11 1;
#X connect 41 0 28 4;
#X connect 46 0 52 3;
#X connect 47 0 12 0;
#X connect 47 0 12 1;
#X connect 47 0 28 3;
#X connect 52 0 14 0;
#X connect 52 0 14 1;
#X connect 52 0 23 0;
#X connect 52 1 13 0;
#X connect 52 1 13 1;
#X connect 52 1 7 0;
#X connect 53 0 37 0;
#X connect 54 0 60 0;
#X connect 55 0 35 0;
#X connect 55 0 39 0;
#X connect 57 0 15 0;
#X connect 58 0 17 1;
#X connect 59 0 54 0;
#X restore 179 182 pd reverb;
#X obj 180 269 *~;
#X obj 289 160 r reverbEnable;
#X obj 289 228 line~;
#N canvas 734 203 602 538 hann-window 0;
#N canvas 0 0 450 300 (subpatch) 0;
#X array \$0-hann-reverb 4096 float 0;
#X coords 0 1 4095 0 300 100 1 0 0;
#X restore 148 395 graph;
#X obj 365 185 osc~;
#X obj 365 210 *~ -0.5;
#X obj 365 234 +~ 0.5;
#X obj 195 238 /;
#X obj 213 206 samplerate~;
#X obj 89 266 swap;
#X obj 89 290 /;
#X obj 206 266 * 1000;
#X obj 124 149 t f b f;
#X msg 213 156 resize \$1;
#X obj 213 180 s \$0-hann;
#X msg 390 155 0;
#X obj 317 151 t f b;
#X text 94 21 calculate Hann window table (variable window size) and constants window-hz (fundamental frequency of analysis) \, window-sec and window-msec (analysis window size in seconds and msec)., f 56;
#X obj 124 114 r \$0window-size;
#X obj 317 123 r \$0window-hz;
#X obj 206 293 s \$0window-msec;
#X obj 195 316 s \$0window-sec;
#X obj 89 314 s \$0window-hz;
#X obj 348 277 tabwrite~ \$0-hann-reverb;
#X connect 1 0 2 0;
#X connect 2 0 3 0;
#X connect 3 0 20 0;
#X connect 4 0 8 0;
#X connect 4 0 18 0;
#X connect 5 0 4 1;
#X connect 5 0 6 1;
#X connect 6 0 7 0;
#X connect 6 1 7 1;
#X connect 7 0 19 0;
#X connect 8 0 17 0;
#X connect 9 0 4 0;
#X connect 9 0 6 0;
#X connect 9 1 5 0;
#X connect 9 2 10 0;
#X connect 10 0 11 0;
#X connect 12 0 1 1;
#X connect 13 0 1 0;
#X connect 13 1 12 0;
#X connect 13 1 20 0;
#X connect 15 0 9 0;
#X connect 16 0 13 0;
#X restore 193 132 pd hann-window;
#N canvas 362 131 651 618 tables 0;
#N canvas 0 0 450 300 (subpatch) 0;
#X array \$0-last-real 2048 float 0;
#X coords 0 500 2048 -500 200 150 1;
#X restore 79 42 graph;
#N canvas 0 0 450 300 (subpatch) 0;
#X array \$0-last-imag 2048 float 0;
#X coords 0 500 2048 -500 200 150 1 0 0;
#X restore 364 44 graph;
#N canvas 0 0 450 300 (subpatch) 0;
#X array \$0-amp-real 2048 float 0;
#X coords 0 500 2048 -500 200 150 1;
#X restore 81 232 graph;
#N canvas 0 0 450 300 (subpatch) 0;
#X array \$0-amp-imag 2048 float 0;
#X coords 0 500 2048 -500 200 150 1;
#X restore 368 232 graph;
#N canvas 0 0 450 300 (subpatch) 0;
#X array \$0-inc-real 2048 float 0;
#X coords 0 1 2048 -1 200 150 1;
#X restore 81 424 graph;
#N canvas 0 0 450 300 (subpatch) 0;
#X array \$0-inc-imag 2048 float 0;
#X coords 0 1 2048 -1 200 150 1;
#X restore 370 424 graph;
#X restore 193 157 pd tables;
#N canvas 430 117 601 341 aconnect 0;
#X obj 234 266 shell;
#X msg 249 163 aconnect -i;
#X msg 233 136 aconnect 128:1 20;
#X obj 110 102 t b b;
#X obj 110 70 delay 1000;
#X obj 110 147 delay 1000;
#X obj 109 17 instrumentSelect Hexapad;
#X obj 109 41 select 1;
#X msg 110 187 aconnect 20 128;
#X connect 1 0 0 0;
#X connect 2 0 0 0;
#X connect 3 0 5 0;
#X connect 3 1 2 0;
#X connect 4 0 3 0;
#X connect 5 0 8 0;
#X connect 6 0 7 0;
#X connect 7 0 4 0;
#X connect 8 0 0 0;
#X restore 412 25 pd aconnect;
#N canvas 63 88 506 347 allStates 0;
#X obj 132 39 r padState;
#X obj 132 63 route s se ne n no so c;
#X obj 79 144 &&;
#X obj 107 116 t b f;
#X obj 143 145 &&;
#X obj 171 117 t b f;
#X obj 217 147 &&;
#X obj 245 119 t b f;
#X obj 276 175 &&;
#X obj 304 147 t b f;
#X obj 72 207 &&;
#X obj 100 179 t b f;
#X obj 161 259 &&;
#X obj 189 231 t b f;
#X obj 161 305 outlet;
#X obj 313 252 tgl 19 0 empty empty empty 0 -10 0 12 #fcfcfc #000000 #000000 0 1;
#X connect 0 0 1 0;
#X connect 1 0 2 0;
#X connect 1 1 3 0;
#X connect 1 2 4 0;
#X connect 1 3 5 0;
#X connect 1 4 6 0;
#X connect 1 5 7 0;
#X connect 1 6 9 0;
#X connect 2 0 10 0;
#X connect 3 0 2 0;
#X connect 3 1 2 1;
#X connect 4 0 11 0;
#X connect 5 0 4 0;
#X connect 5 1 4 1;
#X connect 6 0 8 0;
#X connect 7 0 6 0;
#X connect 7 1 6 1;
#X connect 8 0 13 0;
#X connect 9 0 8 0;
#X connect 9 1 8 1;
#X connect 10 0 12 0;
#X connect 11 0 10 0;
#X connect 11 1 10 1;
#X connect 12 0 14 0;
#X connect 12 0 15 0;
#X connect 13 0 12 0;
#X connect 13 1 12 1;
#X restore 407 171 pd allStates;
#X obj 407 195 == 0;
#X obj 408 245 line~;
#X obj 501 216 tgl 19 0 empty empty empty 0 -10 0 12 #fcfcfc #000000 #000000 0 1;
#X obj 408 221 pack 1 50;
#X obj 27 186 env~;
#X floatatom 27 210 5 0 0 0 - - - 0;
#X obj 682 48 groupSelect Hexapad;
#X obj 552 275 line~;
#X obj 552 251 pack 1 50;
#X obj 773 305 switch~;
#X obj 772 262 instrumentSelect Hexapad;
#X obj 166 304 *~;
#X obj 290 183 * 0.8;
#X obj 289 204 pack f 100;
#X connect 2 0 29 0;
#X connect 3 0 29 0;
#X connect 5 0 6 0;
#X connect 6 0 7 0;
#X connect 7 0 0 0;
#X connect 7 0 2 0;
#X connect 7 1 1 0;
#X connect 7 1 3 0;
#X connect 11 0 13 0;
#X connect 11 0 25 0;
#X connect 11 0 32 0;
#X connect 12 0 13 0;
#X connect 12 0 32 0;
#X connect 13 0 14 0;
#X connect 14 0 32 0;
#X connect 15 0 33 0;
#X connect 16 0 14 1;
#X connect 20 0 21 0;
#X connect 21 0 23 0;
#X connect 21 0 24 0;
#X connect 24 0 22 0;
#X connect 25 0 26 0;
#X connect 27 0 6 1;
#X connect 28 0 32 1;
#X connect 29 0 28 0;
#X connect 31 0 30 0;
#X connect 32 0 8 0;
#X connect 33 0 34 0;
#X connect 34 0 16 0;
#X restore 637 163 pd Hexapad;
#X obj 657 261 line~;
#X msg 657 238 \$1 50;
#X obj 657 216 dbtorms;
#X obj 657 194 r hexapadVolume;
#X obj 637 297 *~;
#X obj 326 8 loadbang;
#X obj 326 32 delay 5000;
#X msg 326 56 \; calibrate bang;
#X obj 667 97 r Group;
#X obj 667 121 print Group;
#X obj 155 486 throw~ L_out;
#X obj 155 431 *~;
#X obj 522 355 r OSC_for_composition;
#X obj 522 423 pack 0 50;
#X obj 522 447 line~;
#X obj 522 377 route fader;
#X obj 522 401 dbtorms;
#X obj 687 378 loadbang;
#X msg 687 402 100;
#X connect 0 0 4 0;
#X connect 2 0 5 0;
#X connect 3 0 21 0;
#X connect 4 0 3 0;
#X connect 6 0 12 0;
#X connect 7 0 17 0;
#X connect 9 0 10 0;
#X connect 10 0 11 0;
#X connect 12 0 57 0;
#X connect 13 0 12 1;
#X connect 14 0 13 0;
#X connect 15 0 14 0;
#X connect 16 0 15 0;
#X connect 17 0 57 0;
#X connect 18 0 17 1;
#X connect 19 0 18 0;
#X connect 20 0 19 0;
#X connect 21 0 2 0;
#X connect 21 1 22 0;
#X connect 23 0 20 0;
#X connect 25 0 29 0;
#X connect 26 0 24 0;
#X connect 28 0 30 0;
#X connect 30 0 31 0;
#X connect 31 0 27 0;
#X connect 33 0 35 0;
#X connect 33 1 34 1;
#X connect 34 0 36 0;
#X connect 35 0 34 0;
#X connect 35 1 36 1;
#X connect 37 0 41 0;
#X connect 38 1 33 0;
#X connect 39 0 37 0;
#X connect 41 0 38 0;
#X connect 41 1 42 0;
#X connect 42 0 44 0;
#X connect 44 0 43 0;
#X connect 45 0 50 0;
#X connect 46 0 50 1;
#X connect 47 0 46 0;
#X connect 48 0 47 0;
#X connect 49 0 48 0;
#X connect 50 0 57 0;
#X connect 51 0 52 0;
#X connect 52 0 53 0;
#X connect 54 0 55 0;
#X connect 57 0 56 0;
#X connect 58 0 61 0;
#X connect 59 0 60 0;
#X connect 60 0 57 1;
#X connect 61 0 62 0;
#X connect 62 0 59 0;
#X connect 63 0 64 0;
#X connect 64 0 62 0;
