#N canvas 421 118 731 582 12;
#X obj 217 99 >= 0.5;
#X obj 6 119 >= 0.5;
#X obj 217 121 change;
#N canvas 47 74 239 269 retrig_time_filter 0;
#X obj 22 64 sel 1;
#X msg 163 147 0;
#X msg 129 148 1;
#X obj 22 10 inlet;
#X obj 180 221 outlet;
#X obj 124 180 spigot 1;
#X obj 22 94 t b b b;
#X obj 22 123 del 200;
#X connect 0 0 6 0;
#X connect 1 0 5 1;
#X connect 2 0 5 1;
#X connect 3 0 0 0;
#X connect 5 0 4 0;
#X connect 6 0 7 0;
#X connect 6 1 1 0;
#X connect 6 2 5 0;
#X connect 7 0 2 0;
#X restore 7 206 pd retrig_time_filter;
#X obj 192 11 inlet;
#X obj 192 36 unpack;
#X text 174 37 X;
#X text 241 34 Y;
#X obj 185 311 demux;
#X obj 113 538 outlet;
#X obj 281 538 outlet;
#X obj 192 60 swap;
#X obj 6 143 change;
#X obj 160 121 change;
#N canvas 47 74 239 269 retrig_time_filter 0;
#X msg 185 149 0;
#X msg 151 150 1;
#X obj 72 11 inlet;
#X obj 180 221 outlet;
#X obj 98 182 spigot 1;
#X obj 72 35 sel 0;
#X obj 72 65 t b b b;
#X obj 22 123 del 200;
#X connect 0 0 4 1;
#X connect 1 0 4 1;
#X connect 2 0 5 0;
#X connect 4 0 3 0;
#X connect 5 0 6 0;
#X connect 6 0 7 0;
#X connect 6 1 0 0;
#X connect 6 2 4 0;
#X connect 7 0 1 0;
#X restore 281 210 pd retrig_time_filter;
#X msg 281 249 1 0;
#X msg 295 491 1 \$1;
#X msg 352 491 1 \$1;
#X obj 160 98 < 0.5;
#X msg 504 311 127 \$1;
#X obj 504 335 -;
#X obj 504 359 * 2;
#X obj 504 383 clip 64 127;
#X obj 352 457 f;
#X obj 295 457 f;
#X msg 656 259 200;
#X msg 635 286 170;
#X obj 504 287 * 170;
#X obj 585 247 +;
#X obj 585 187 r sens\$1;
#X msg 621 258 100;
#X msg 585 218 100 \$1;
#X text 409 103 sensiblilité de la vélocité entre 0 ET 100;
#X obj 504 208 lop~ 10;
#X obj 504 232 env~;
#X obj 504 256 dbtorms;
#X connect 0 0 2 0;
#X connect 1 0 12 0;
#X connect 2 0 8 1;
#X connect 3 0 8 0;
#X connect 4 0 5 0;
#X connect 5 0 11 0;
#X connect 5 1 11 1;
#X connect 5 1 33 0;
#X connect 8 0 24 0;
#X connect 8 1 23 0;
#X connect 11 0 1 0;
#X connect 11 0 18 0;
#X connect 11 1 0 0;
#X connect 12 0 3 0;
#X connect 13 0 14 0;
#X connect 14 0 15 0;
#X connect 15 0 9 0;
#X connect 15 0 10 0;
#X connect 16 0 9 0;
#X connect 17 0 10 0;
#X connect 18 0 13 0;
#X connect 19 0 20 0;
#X connect 20 0 21 0;
#X connect 21 0 22 0;
#X connect 22 0 24 1;
#X connect 22 0 23 1;
#X connect 23 0 17 0;
#X connect 24 0 16 0;
#X connect 25 0 27 1;
#X connect 26 0 27 1;
#X connect 27 0 19 0;
#X connect 28 0 27 1;
#X connect 29 0 31 0;
#X connect 30 0 27 1;
#X connect 31 0 28 0;
#X connect 33 0 34 0;
#X connect 34 0 35 0;
#X connect 35 0 27 0;
