#N canvas 681 306 702 516 12;
#X obj 34 19 inlet;
#X obj 33 488 outlet;
#X obj 162 8 r padState;
#X obj 33 48 list prepend \$1;
#X obj 161 30 route \$2 \$3;
#X obj 248 152 &&;
#X obj 216 129 t a a;
#X obj 216 210 spigot;
#X obj 216 235 unpack;
#X msg 537 359 60 0 10000 0 0 0;
#X obj 415 208 sel 1;
#X obj 216 284 sel 1;
#X obj 272 286 sel 1;
#X obj 288 215 tgl 19 0 empty empty empty 0 -10 0 12 #fcfcfc #000000 #000000 0 1;
#X obj 161 100 t a b;
#X obj 248 185 == 0;
#X obj 161 77 pack;
#X obj 195 53 t b f;
#X msg 196 358 10000 0 0 0;
#X msg 305 358 10000 0 1000 0;
#X msg 417 358 100 0 0 1000;
#X obj 33 428 list append 10000 0 0 0;
#X connect 0 0 3 0;
#X connect 2 0 4 0;
#X connect 3 0 21 0;
#X connect 4 0 16 0;
#X connect 4 1 17 0;
#X connect 5 0 10 0;
#X connect 5 0 15 0;
#X connect 6 0 7 0;
#X connect 6 1 5 0;
#X connect 7 0 8 0;
#X connect 8 0 11 0;
#X connect 8 1 12 0;
#X connect 9 0 1 0;
#X connect 11 0 19 0;
#X connect 12 0 20 0;
#X connect 14 0 6 0;
#X connect 14 1 18 0;
#X connect 15 0 7 1;
#X connect 15 0 13 0;
#X connect 16 0 14 0;
#X connect 17 0 16 0;
#X connect 17 1 16 1;
#X connect 18 0 21 1;
#X connect 19 0 21 1;
#X connect 20 0 21 1;
#X connect 21 0 1 0;
