#N canvas 182 163 632 524 12;
#X obj 34 225 throw~ L_out;
#X obj 34 154 osc~ 440;
#X obj 34 200 *~ 0;
#X obj 36 120 s onoff;
#X msg 36 97 1;
#X text 68 97 pour allumer le son;
#X obj 36 15 loadbang;
#X obj 36 73 del 50;
#N canvas 37 25 611 853 init_track 0;
#N canvas 463 23 714 534 list-drip 0;
#X obj 63 84 t a a;
#X obj 63 241 spigot;
#X obj 102 149 bang;
#X obj 102 168 1;
#X obj 223 149 route bang;
#X obj 183 150 bang;
#X obj 183 169 0;
#X obj 102 114 list split 2;
#X obj 232 379 list split;
#X obj 299 328 list length;
#X obj 299 350 >> 1;
#X obj 63 260 t a a a a;
#X obj 63 446 list split;
#X obj 130 398 list length;
#X obj 130 423 >> 1;
#X obj 31 19 inlet;
#X obj 290 175 outlet;
#X text 73 19 Copyright 2009 by Mathieu Bouchard;
#X obj 31 53 t b a;
#X obj 465 119 outlet;
#X text 520 121 signal end of list;
#X text 381 23 made compatible with [list-drip]: fbar 2009;
#X connect 0 0 1 0;
#X connect 0 1 7 0;
#X connect 1 0 11 0;
#X connect 2 0 3 0;
#X connect 3 0 1 1;
#X connect 4 1 16 0;
#X connect 5 0 6 0;
#X connect 6 0 1 1;
#X connect 7 0 2 0;
#X connect 7 2 4 0;
#X connect 7 2 5 0;
#X connect 8 0 0 0;
#X connect 9 0 10 0;
#X connect 10 0 8 1;
#X connect 11 0 12 0;
#X connect 11 1 13 0;
#X connect 11 2 8 0;
#X connect 11 3 9 0;
#X connect 12 1 0 0;
#X connect 13 0 14 0;
#X connect 14 0 12 1;
#X connect 15 0 18 0;
#X connect 18 0 19 0;
#X connect 18 1 0 0;
#X restore 76 161 pd list-drip;
#X obj 70 408 list trim;
#X obj 70 381 list prepend add2;
#X obj 70 346 spigot;
#X msg 144 313 1;
#X msg 110 313 0;
#X obj 111 277 loadbang;
#X obj 99 252 sel #;
#X msg 18 433 addsemi;
#X obj 181 262 sel s;
#X msg 241 319 set;
#X obj 76 190 t a a a;
#X obj 18 229 sel / //;
#X msg 44 298 comment;
#X obj 44 274 t b b;
#X obj 179 438 del 1;
#X obj 181 287 t b b b b;
#X msg 76 106 0;
#X msg 70 468 \; computer_3 : \; Instrument touche \; CLX 0 4095 0
1 \; CLY 0 4095 0 1 \; CLZ 0 4095 0 1 \; CRX 0 4095 0 1 \; CRY 0 4095
0 1 \; CRZ 0 4095 0 1 \; \; \; \; \; \; \; \; \; \; \; \; \; \; \;
\; \; \; \; \; \; \; \; \; \; \; \; \; \; \; \; \; \; \; \; \; \; \;
\; \; \; \; \; \; \; \; \; \; \; \; \; \; \; \; \; \; \; \; \; \; \;
\; \; \; \; \; \; \; \; \; \; \; \; \; \; \; \; \; \; \; \; \; \; \;
\; \; \; \; \; \; \; \; \; \; \; \; \; \; \; \; \; \; \; \; \; \; \;
\; \; \; \; \; \; \; \; \; \; \; \; \; \; \; \; \; \; \; \; \; \; \;
\; \; \; \; \; \; \; \; \; \; \; \; \; \; \; \; \; \; comment \; comment
\; \; \; \; \; \; \; \; \; \; \; \; \; \; \; \; \; \; \; \; \; \; \;
\; \; \; \; \; \; \; \; \; \; \; \; \; \; \; \; \; \; \; \; \; \; \;
\; \; \; \; \; \; \; \; \; \; \; \; \; \; \; \; \; \; \; \; \; \; \;
\; \; \; \; \; \; \; \; \; \; \; \; \; \; \; \; \; \; \; \; \; \; \;
\; \; \; \; \; \; \; \; \; \; \; \; \; \; \; \; \; \; \; \; \; \; \;
\; \; \; \; \; \; \; \; \; \; \; \; \; \; \; \; \; \; \; \; \; \; \;
\; \; \; \; \; \; \; \; \; \; \; \; \; \; \; \; \; \; \; \; \; \; \;
\; \; \; \; \; \; \; \; comment \; comment \; \; comment \; comment
\; \; comment \; \; comment, f 66;
#X obj 76 82 del 20;
#X obj 136 104 text define -k \$0-init_pd;
#A set;
#X obj 76 133 text get \$0-init_pd;
#X obj 76 15 inlet;
#X obj 213 238 r computer_number_for_tracks;
#X msg 136 72 read _load.txt;
#X obj 76 43 t b b b b;
#X text 227 263 open gate;
#X text 103 230 close gate;
#X text 76 433 add send;
#X text 220 438 launch;
#X text 269 320 clear;
#X obj 123 19 bng 15 250 50 0 empty empty empty 17 7 0 10 -262144 -1
-1;
#X connect 0 0 11 0;
#X connect 1 0 18 0;
#X connect 2 0 1 0;
#X connect 3 0 2 0;
#X connect 4 0 3 1;
#X connect 5 0 3 1;
#X connect 6 0 5 0;
#X connect 7 0 5 0;
#X connect 8 0 18 0;
#X connect 9 0 16 0;
#X connect 10 0 18 0;
#X connect 11 0 12 0;
#X connect 11 1 7 0;
#X connect 11 2 9 0;
#X connect 12 0 8 0;
#X connect 12 1 14 0;
#X connect 12 2 3 0;
#X connect 13 0 2 0;
#X connect 14 0 13 0;
#X connect 14 1 8 0;
#X connect 15 0 18 0;
#X connect 16 0 4 0;
#X connect 16 0 15 0;
#X connect 16 2 8 0;
#X connect 16 3 10 0;
#X connect 17 0 21 0;
#X connect 19 0 17 0;
#X connect 21 0 0 0;
#X connect 22 0 25 0;
#X connect 23 0 9 1;
#X connect 24 0 20 0;
#X connect 25 0 19 0;
#X connect 25 3 24 0;
#X connect 31 0 25 0;
#X restore 41 46 pd init_track;
#X text 139 45 initialisation du patch;
#X msg 59 176 0.05;
#X connect 1 0 2 0;
#X connect 2 0 0 0;
#X connect 4 0 3 0;
#X connect 6 0 7 0;
#X connect 6 0 8 0;
#X connect 6 0 10 0;
#X connect 7 0 4 0;
#X connect 10 0 2 1;
