#N canvas 789 151 628 534 12;
#X obj 34 90 noteout;
#X msg 34 67 60 64;
#X text 79 69 calibrage;
#X obj 310 365 print QTOUCH;
#X obj 310 339 spigot;
#N canvas 158 387 483 412 note2zone 0;
#X text 48 31 Change les 7 notes MIDI en argument vers des positions sur l'hexagone. Par exemple la note 63 est au centre donc ça devient 'c' \, la note 60 devient 'so' car elle est au sud ouest.;
#X msg 46 145 c 0;
#N canvas 150 175 450 300 setMessage 0;
#X obj 102 40 inlet;
#X obj 100 76 list prepend set;
#X obj 100 100 list trim;
#X obj 100 124 outlet;
#X connect 0 0 1 0;
#X connect 1 0 2 0;
#X connect 2 0 3 0;
#X restore 46 123 pd setMessage;
#X obj 18 216 t a a;
#X text 72 215 on envoie la position dans un message global;
#X text 90 281 hexagone2multizone <antirebond entre les zones(ms)>;
#X obj 18 10 inlet;
#N canvas 150 175 504 391 padOnOff 0;
#X obj 19 14 inlet;
#X obj 26 337 outlet;
#X obj 154 8 r padOnOff;
#X obj 19 128 route c n s ne no se so;
#X obj 240 132 route c n s ne no se so;
#X msg 23 219 c \$1;
#X msg 84 218 n \$1;
#X msg 146 219 s \$1;
#X msg 207 218 ne \$1;
#X msg 269 219 no \$1;
#X msg 331 220 se \$1;
#X msg 402 219 so \$1;
#X obj 240 59 list;
#X obj 240 83 s2l;
#X obj 240 107 list trim;
#X obj 154 30 t b a;
#X obj 154 76 s panic;
#X obj 23 196 spigot 1;
#X obj 84 195 spigot 1;
#X obj 146 196 spigot 1;
#X obj 207 195 spigot 1;
#X obj 269 196 spigot 1;
#X obj 331 197 spigot 1;
#X obj 402 196 spigot 1;
#X connect 0 0 3 0;
#X connect 2 0 15 0;
#X connect 3 0 17 0;
#X connect 3 1 18 0;
#X connect 3 2 19 0;
#X connect 3 3 20 0;
#X connect 3 4 21 0;
#X connect 3 5 22 0;
#X connect 3 6 23 0;
#X connect 4 0 17 1;
#X connect 4 1 18 1;
#X connect 4 2 19 1;
#X connect 4 3 20 1;
#X connect 4 4 21 1;
#X connect 4 5 22 1;
#X connect 4 6 23 1;
#X connect 5 0 1 0;
#X connect 6 0 1 0;
#X connect 7 0 1 0;
#X connect 8 0 1 0;
#X connect 9 0 1 0;
#X connect 10 0 1 0;
#X connect 11 0 1 0;
#X connect 12 0 13 0;
#X connect 13 0 14 0;
#X connect 14 0 4 0;
#X connect 15 0 16 0;
#X connect 15 1 12 0;
#X connect 17 0 5 0;
#X connect 18 0 6 0;
#X connect 19 0 7 0;
#X connect 20 0 8 0;
#X connect 21 0 9 0;
#X connect 22 0 10 0;
#X connect 23 0 11 0;
#X restore 18 188 pd padOnOff;
#X obj 50 375 outlet;
#X obj 18 95 note2hexagone 62 64 65 69 67 60 71;
#X obj 65 302 hexagone2multizone 50;
#X connect 2 0 1 0;
#X connect 3 0 10 0;
#X connect 3 1 8 0;
#X connect 6 0 9 0;
#X connect 7 0 3 0;
#X connect 9 0 2 0;
#X connect 9 0 7 0;
#X connect 10 0 8 0;
#X restore 18 326 pd note2zone;
#X text 41 272 Transforme la note en zone \, entrer dans le sous-patch pour plus de détails, f 27;
#X text 19 445 instruments:;
#N canvas 121 146 370 367 samplers 1;
#X obj 44 51 sampler 0 qtouch_out qtouch_in;
#X obj 43 75 sampler 1 qtouch_out qtouch_in;
#X obj 43 100 sampler 2 qtouch_out qtouch_in;
#X obj 42 124 sampler 3 qtouch_out qtouch_in;
#X obj 43 150 sampler 4 qtouch_out qtouch_in;
#X obj 43 175 sampler 5 qtouch_out qtouch_in;
#X obj 42 199 sampler 6 qtouch_out qtouch_in;
#X restore 161 440 pd samplers;
#N canvas 67 431 613 296 globalSettings 0;
#X obj 74 29 r globalSettings;
#X obj 74 105 route maxPlayTime;
#X obj 74 177 s maxPlayTime;
#X obj 74 83 list trim;
#X obj 190 225 s midiDevices;
#X obj 192 188 list prepend in;
#X obj 307 188 list prepend out;
#X obj 190 131 route midiDeviceIn midiDeviceOut volume;
#X obj 370 160 s \$0volume;
#X connect 0 0 3 0;
#X connect 1 0 2 0;
#X connect 1 1 7 0;
#X connect 3 0 1 0;
#X connect 5 0 4 0;
#X connect 6 0 4 0;
#X connect 7 0 5 0;
#X connect 7 1 6 0;
#X connect 7 2 8 0;
#X restore 13 164 pd globalSettings;
#X msg 14 114 \; cue 0;
#X obj 459 452 *~;
#X obj 459 477 throw~ L_out;
#X obj 460 265 catch~ qtouch_out;
#X obj 477 378 dbtorms;
#X obj 349 317 tgl 20 0 empty empty empty 0 -10 0 12 #fcfcfc #000000 #000000 0 1;
#N canvas 28 439 545 293 OSC 0;
#X obj 22 11 r OSC_for_composition;
#X obj 22 234 s \$0fader;
#X obj 314 258 s sendOSC;
#X obj 314 43 r \$0fader-s;
#X obj 314 186 list prepend;
#X obj 395 151 r module_number;
#X msg 314 233 fader \$1 \$2;
#X obj 81 134 s padOnOff;
#X obj 22 61 route fader padOnOff panic;
#X obj 141 106 s panic;
#X connect 0 0 8 0;
#X connect 4 0 6 0;
#X connect 5 0 4 1;
#X connect 6 0 2 0;
#X connect 8 0 1 0;
#X connect 8 1 7 0;
#X connect 8 2 9 0;
#X restore 177 468 pd OSC;
#X obj 477 427 line~;
#X obj 477 402 pack f 50;
#X obj 489 348 r \$0fader;
#X obj 489 324 s \$0fader-s;
#N canvas 43 370 450 300 calibrate 0;
#X obj 54 245 outlet;
#X obj 54 44 r OSC_for_composition;
#X obj 54 94 route calibrateAll;
#X connect 1 0 2 0;
#X connect 2 0 0 0;
#X restore 49 41 pd calibrate;
#X obj 448 74 r computer_number;
#X obj 448 99 t a b;
#X msg 480 123 symbol _;
#X obj 448 187 list split 1;
#X obj 448 162 s2l;
#X obj 488 225 s module_number;
#X obj 14 13 init_track;
#X obj 223 119 r cue_param;
#X obj 18 209 notein;
#X obj 18 240 pack;
#X obj 18 353 s qtouch_in;
#X obj 310 295 r qtouch_in;
#X msg 158 31 \; computer_number symbol computer_80;
#X obj 477 292 r \$0volume;
#X obj 223 171 list split 2;
#X obj 223 143 list;
#X text 205 85 pas besoin de nom de cue dans ce patch, f 21;
#N canvas 430 117 601 341 midiSettings 0;
#X obj 160 300 shell;
#X msg 175 197 aconnect -i;
#X msg 159 170 aconnect 128:1 20;
#X msg 36 221 aconnect 20 128;
#X obj 110 17 loadbang;
#X obj 36 136 t b b;
#X obj 36 104 delay 1000;
#X obj 36 181 delay 1000;
#X text 66 75 ALSA;
#X connect 1 0 0 0;
#X connect 2 0 0 0;
#X connect 3 0 0 0;
#X connect 5 0 7 0;
#X connect 5 1 2 0;
#X connect 6 0 5 0;
#X connect 7 0 3 0;
#X restore 450 30 pd midiSettings;
#X obj 263 196 list trim;
#X obj 263 220 s param;
#X connect 1 0 0 0;
#X connect 4 0 3 0;
#X connect 5 0 32 0;
#X connect 11 0 12 0;
#X connect 13 0 11 0;
#X connect 14 0 18 0;
#X connect 15 0 4 1;
#X connect 17 0 11 1;
#X connect 18 0 17 0;
#X connect 19 0 14 0;
#X connect 21 0 1 0;
#X connect 22 0 23 0;
#X connect 23 0 26 0;
#X connect 23 1 24 0;
#X connect 24 0 26 1;
#X connect 25 1 27 0;
#X connect 26 0 25 0;
#X connect 28 0 1 0;
#X connect 28 0 10 0;
#X connect 29 0 37 0;
#X connect 30 0 31 0;
#X connect 30 1 31 1;
#X connect 31 0 5 0;
#X connect 33 0 4 0;
#X connect 35 0 14 0;
#X connect 35 0 20 0;
#X connect 36 1 40 0;
#X connect 37 0 36 0;
#X connect 40 0 41 0;
