#N canvas 116 181 1061 342 12;
#X obj 306 6 inlet;
#X msg 43 182 nseoc \$1;
#X obj 346 305 outlet;
#X obj 43 157 interzone \$1;
#X obj 3 130 list split 1;
#X obj 269 127 route n s c;
#X obj 269 155 interzone \$1;
#X msg 269 182 nsc \$1;
#X obj 160 179 interzone \$1;
#X msg 160 203 nseo \$1;
#X obj 389 158 interzone \$1;
#X obj 390 127 route ne se;
#X msg 389 182 e \$1;
#X obj 482 158 interzone \$1;
#X obj 483 127 route no so;
#X msg 482 182 o \$1;
#X obj 576 159 interzone \$1;
#X obj 577 128 route n no so;
#X msg 576 183 nso \$1;
#X obj 678 160 interzone \$1;
#X msg 678 184 nes \$1;
#X obj 114 128 route c;
#X obj 679 129 route ne se s;
#X obj 160 152 list split 1;
#X obj 785 157 interzone \$1;
#X msg 785 181 sse \$1;
#X obj 786 126 route se s;
#X obj 891 156 interzone \$1;
#X obj 892 125 route n no;
#X obj 306 30 t a a a a a a a a a;
#X msg 891 180 nno \$1;
#X connect 0 0 29 0;
#X connect 1 0 2 0;
#X connect 3 0 1 0;
#X connect 4 1 3 0;
#X connect 5 0 6 0;
#X connect 5 1 6 0;
#X connect 5 2 6 0;
#X connect 6 0 7 0;
#X connect 7 0 2 0;
#X connect 8 0 9 0;
#X connect 9 0 2 0;
#X connect 10 0 12 0;
#X connect 11 0 10 0;
#X connect 11 1 10 0;
#X connect 12 0 2 0;
#X connect 13 0 15 0;
#X connect 14 0 13 0;
#X connect 14 1 13 0;
#X connect 15 0 2 0;
#X connect 16 0 18 0;
#X connect 17 0 16 0;
#X connect 17 1 16 0;
#X connect 17 2 16 0;
#X connect 18 0 2 0;
#X connect 19 0 20 0;
#X connect 20 0 2 0;
#X connect 21 1 23 0;
#X connect 22 0 19 0;
#X connect 22 1 19 0;
#X connect 22 2 19 0;
#X connect 23 1 8 0;
#X connect 24 0 25 0;
#X connect 25 0 2 0;
#X connect 26 0 24 0;
#X connect 26 1 24 0;
#X connect 27 0 30 0;
#X connect 28 0 27 0;
#X connect 28 1 27 0;
#X connect 29 0 4 0;
#X connect 29 1 21 0;
#X connect 29 2 5 0;
#X connect 29 3 11 0;
#X connect 29 4 14 0;
#X connect 29 5 17 0;
#X connect 29 6 22 0;
#X connect 29 7 26 0;
#X connect 29 8 28 0;
#X connect 30 0 2 0;
