#N canvas 349 63 546 372 12;
#X obj 33 21 inlet;
#X obj 33 45 t a b;
#X obj 249 139 pdcontrol;
#X msg 250 116 args 0;
#X msg 223 294 c \$1;
#X obj 217 346 outlet;
#X msg 287 294 n \$1;
#X msg 416 293 s \$1;
#X msg 94 293 no \$1;
#X msg 28 293 ne \$1;
#X msg 157 294 so \$1;
#X msg 350 294 se \$1;
#X obj 249 163 unpack f f f f f f f;
#X obj 28 209 route;
#X obj 94 209 route;
#X obj 157 209 route;
#X obj 223 209 route;
#X obj 287 209 route;
#X obj 350 209 route;
#X obj 416 209 route;
#X text 224 19 TODO: set note to hexapad from args;
#X connect 0 0 1 0;
#X connect 1 0 13 0;
#X connect 1 1 3 0;
#X connect 2 0 12 0;
#X connect 3 0 2 0;
#X connect 4 0 5 0;
#X connect 6 0 5 0;
#X connect 7 0 5 0;
#X connect 8 0 5 0;
#X connect 9 0 5 0;
#X connect 10 0 5 0;
#X connect 11 0 5 0;
#X connect 12 0 13 1;
#X connect 12 1 14 1;
#X connect 12 2 15 1;
#X connect 12 3 16 1;
#X connect 12 4 17 1;
#X connect 12 5 18 1;
#X connect 12 6 19 1;
#X connect 13 0 9 0;
#X connect 13 1 14 0;
#X connect 14 0 8 0;
#X connect 14 1 15 0;
#X connect 15 0 10 0;
#X connect 15 1 16 0;
#X connect 16 0 4 0;
#X connect 16 1 17 0;
#X connect 17 0 6 0;
#X connect 17 1 18 0;
#X connect 18 0 11 0;
#X connect 18 1 19 0;
#X connect 19 0 7 0;
