#N canvas 135 215 524 626 12;
#X obj 266 340 readsf~;
#X obj 139 130 sel 0;
#X obj 265 246 list;
#X msg 139 197 0;
#X obj 171 153 b, f 2;
#N canvas 681 287 450 300 getSound 1;
#X obj 165 226 outlet;
#X obj 165 106 list prepend \$1;
#X obj 165 130 list trim;
#X obj 165 154 s getSamplePathFromID;
#X obj 165 178 r samplePath;
#X obj 165 202 route \$1;
#X obj 165 82 r \$0sampleId;
#X connect 1 0 2 0;
#X connect 2 0 3 0;
#X connect 4 0 5 0;
#X connect 5 0 0 0;
#X connect 6 0 1 0;
#X restore 290 198 pd getSound;
#N canvas 722 357 450 300 playSound 0;
#X obj 170 113 list trim;
#X obj 170 89 list prepend open;
#X msg 170 180 1;
#X obj 170 137 t b a;
#X obj 168 61 inlet;
#X obj 202 223 outlet;
#X connect 0 0 3 0;
#X connect 1 0 0 0;
#X connect 2 0 5 0;
#X connect 3 0 2 0;
#X connect 3 1 5 0;
#X connect 4 0 1 0;
#X restore 266 268 pd playSound;
#N canvas 652 272 588 405 soundParam 0;
#X obj 196 116 soundfiler;
#X obj 276 116 table \$0dummy;
#X obj 196 65 list append \$0;
#X obj 263 140 list split 1;
#X msg 196 90 read -resize \$1 \$2dummy;
#X obj 303 263 list prepend 0;
#X obj 131 6 inlet;
#X obj 80 359 outlet;
#X obj 131 30 t a a;
#X obj 80 304 list prepend;
#X obj 338 187 / 1000;
#X obj 398 240 *;
#X obj 397 188 t b a;
#X obj 397 217 pack;
#X obj 397 160 r \$0onset;
#X connect 0 1 3 0;
#X connect 2 0 4 0;
#X connect 3 0 10 0;
#X connect 3 1 5 0;
#X connect 4 0 0 0;
#X connect 5 0 9 0;
#X connect 6 0 8 0;
#X connect 8 0 2 0;
#X connect 8 1 9 1;
#X connect 9 0 7 0;
#X connect 10 0 13 0;
#X connect 11 0 5 1;
#X connect 12 0 13 0;
#X connect 12 1 13 1;
#X connect 13 0 11 0;
#X connect 14 0 12 0;
#X restore 290 220 pd soundParam;
#X obj 365 389 spigot;
#N canvas 27 435 499 409 getTrigger 0;
#X obj 104 81 route symbol;
#X obj 104 285 outlet;
#X obj 232 336 s sendOSC;
#X obj 232 260 list;
#X msg 232 314 pad \$1 \$2;
#X obj 232 292 list prepend;
#X obj 313 270 r module_number;
#X obj 104 105 t a a;
#X obj 136 128 sel 0;
#X obj 169 152 b;
#X msg 137 241 symbol -;
#X obj 213 188 delay 10000;
#X obj 287 166 r maxPlayTime;
#X obj 24 182 r panic;
#X obj 253 24 r init_cue;
#X msg 253 49 symbol;
#X obj 104 24 r \$3;
#X obj 176 48 symbol;
#X obj 176 25 r \$0name;
#X obj 257 233 r \$0name;
#X connect 0 0 7 0;
#X connect 3 0 5 0;
#X connect 4 0 2 0;
#X connect 5 0 4 0;
#X connect 6 0 5 1;
#X connect 7 0 1 0;
#X connect 7 1 8 0;
#X connect 8 0 10 0;
#X connect 8 1 9 0;
#X connect 9 0 3 0;
#X connect 9 0 11 0;
#X connect 10 0 5 0;
#X connect 11 0 10 0;
#X connect 12 0 11 1;
#X connect 13 0 10 0;
#X connect 14 0 15 0;
#X connect 15 0 0 1;
#X connect 16 0 0 0;
#X connect 17 0 0 1;
#X connect 18 0 17 0;
#X connect 19 0 3 1;
#X restore 139 30 pd getTrigger;
#X obj 20 350 line~;
#X msg 20 221 0 \$1;
#X obj 248 407 *~;
#X obj 140 305 pipe;
#X obj 20 199 f;
#X obj 248 492 *~;
#X obj 278 465 dbtorms;
#N canvas 150 175 450 408 maxPlayTime 0;
#X obj 255 148 r maxPlayTime;
#X obj 158 152 metro 100;
#X obj 53 6 inlet;
#X msg 158 129 1;
#X obj 126 207 timer;
#X obj 126 276 sel 1;
#X obj 53 337 outlet;
#X obj 53 99 t b b;
#X obj 53 307 t b b;
#X msg 118 130 0;
#X obj 126 300 bng 19 250 50 0 empty empty empty 0 -10 0 12 #fcfcfc #000000 #000000;
#X obj 53 31 > 0;
#X obj 53 55 sel 1;
#X obj 126 252 > 10000;
#X obj 323 181 -;
#X obj 357 149 r \$0fadeOut;
#X connect 0 0 14 0;
#X connect 1 0 4 1;
#X connect 2 0 11 0;
#X connect 3 0 1 0;
#X connect 4 0 13 0;
#X connect 5 0 8 0;
#X connect 5 0 10 0;
#X connect 7 0 3 0;
#X connect 7 1 4 0;
#X connect 8 0 6 0;
#X connect 8 1 9 0;
#X connect 9 0 1 0;
#X connect 11 0 12 0;
#X connect 12 0 7 0;
#X connect 12 1 9 0;
#X connect 13 0 5 0;
#X connect 14 0 13 1;
#X connect 15 0 14 1;
#X restore 183 64 pd maxPlayTime;
#X obj 171 176 s \$0play;
#X obj 265 170 r \$0play;
#X msg 183 100 0;
#X obj 266 366 hip~ 5;
#X obj 166 282 r \$0fadeOut;
#X msg 152 259 clear;
#X obj 295 66 r panic;
#X obj 38 102 r \$0fadeOut;
#X obj 152 235 r \$0play;
#X obj 35 253 r \$0play;
#X msg 35 319 1 \$1;
#X obj 35 296 f;
#X obj 53 275 r \$0fadeIn;
#N canvas 607 523 319 189 getParam 0;
#X obj 24 32 route \$1;
#X obj 24 9 r param;
#X obj 24 57 t a b;
#X obj 58 82 \$0;
#X obj 25 116 list prepend;
#X msg 25 140 \; \$1\$2 \$3;
#X connect 0 0 2 0;
#X connect 1 0 0 0;
#X connect 2 0 4 0;
#X connect 2 1 3 0;
#X connect 3 0 4 1;
#X connect 4 0 5 0;
#X restore 369 20 pd getParam;
#X obj 248 513 throw~ \$2;
#X obj 404 367 r \$0loop;
#X obj 391 132 r \$0playMode;
#X text 393 99 TODO;
#X obj 278 442 r \$0gain;
#X connect 0 0 21 0;
#X connect 0 1 8 0;
#X connect 1 0 3 0;
#X connect 1 0 14 0;
#X connect 1 1 4 0;
#X connect 2 0 6 0;
#X connect 3 0 13 0;
#X connect 4 0 18 0;
#X connect 5 0 7 0;
#X connect 6 0 0 0;
#X connect 7 0 2 1;
#X connect 8 0 2 0;
#X connect 8 0 29 0;
#X connect 9 0 1 0;
#X connect 9 0 17 0;
#X connect 10 0 12 0;
#X connect 11 0 10 0;
#X connect 12 0 15 0;
#X connect 13 0 0 0;
#X connect 14 0 11 0;
#X connect 15 0 32 0;
#X connect 16 0 15 1;
#X connect 17 0 20 0;
#X connect 19 0 2 0;
#X connect 20 0 1 0;
#X connect 21 0 12 1;
#X connect 22 0 13 1;
#X connect 23 0 13 0;
#X connect 24 0 20 0;
#X connect 25 0 14 1;
#X connect 26 0 23 0;
#X connect 27 0 29 0;
#X connect 28 0 10 0;
#X connect 29 0 28 0;
#X connect 30 0 29 1;
#X connect 33 0 8 1;
#X connect 36 0 16 0;
