#N canvas 435 80 901 558 12;
#X obj 25 227 notein;
#X obj 25 254 pack;
#X obj 121 418 r \$0-set;
#X obj 54 449 else/mono.rev~;
#X obj 206 262 change;
#X obj 233 220 tgl 19 0 empty empty empty 0 -10 0 12 #fcfcfc #000000 #000000 0 1;
#X obj 79 290 sel 0;
#N canvas 38 199 1246 673 GameTrak 0;
#X obj 338 258 hid;
#X msg 290 142 open 0x14b7 0x0982;
#X text 305 123 open gametrak;
#X text 361 232 start polling and set the poll delay in ms;
#X msg 356 203 print;
#X msg 348 174 refresh;
#X obj 257 107 t b b;
#X floatatom 302 363 6 0 0 0 - - - 0;
#X floatatom 352 363 6 0 0 0 - - - 0;
#X floatatom 402 363 6 0 0 0 - - - 0;
#X floatatom 452 363 6 0 0 0 - - - 0;
#X floatatom 502 363 6 0 0 0 - - - 0;
#X floatatom 552 363 6 0 0 0 - - - 0;
#X obj 337 285 route key abs;
#X obj 300 313 route abs_x abs_y abs_z abs_rx abs_ry abs_rz;
#X obj 203 313 route btn_0;
#X text 360 406 Left;
#X text 507 404 Right;
#X text 331 383 X Y Z;
#X text 474 385 X Y Z;
#X text 30 573 Pedal;
#X text 205 408 range = 0 -> 4095;
#X obj 108 546 s LX;
#X obj 63 546 s PED;
#X msg 261 229 poll 2;
#N canvas 0 27 1440 824 rec_play_GT 0;
#X obj 6 298 tgl 15 0 empty empty empty 17 7 0 10 #fcfcfc #000000 #000000 0 1;
#X obj 6 349 tgl 15 0 empty empty empty 17 7 0 10 #fcfcfc #000000 #000000 0 1;
#X obj 165 66 tgl 15 0 empty empty empty 17 7 0 10 #fcfcfc #000000 #000000 0 1;
#X text 187 66 rec;
#X obj 50 67 tgl 15 0 empty empty empty 17 7 0 10 #fcfcfc #000000 #000000 0 1;
#X text 70 67 play (loop);
#X obj 165 95 s \$0-rec;
#X obj 50 90 s \$0-play;
#X obj 233 91 s \$0-write;
#X obj 45 176 s \$0-read;
#X obj 233 69 bng 15 250 50 0 empty empty empty 17 7 0 10 #fcfcfc #000000 #000000;
#X obj 42 296 r \$0-rec;
#X obj 77 270 r \$0-play;
#X obj 163 270 r \$0-write;
#X obj 160 209 r \$0-read;
#X obj 76 563 r \$0-rec;
#X obj 139 563 r \$0-play;
#X obj 40 479 r \$0-write;
#X obj 42 425 r \$0-read;
#X obj 303 566 r \$0-rec;
#X obj 368 566 r \$0-play;
#X obj 269 482 r \$0-write;
#X obj 269 427 r \$0-read;
#X obj 547 562 r \$0-rec;
#X obj 615 563 r \$0-play;
#X obj 507 482 r \$0-write;
#X obj 507 423 r \$0-read;
#X obj 775 569 r \$0-rec;
#X obj 841 566 r \$0-play;
#X obj 746 491 r \$0-write;
#X obj 746 429 r \$0-read;
#X obj 1002 572 r \$0-rec;
#X obj 1072 569 r \$0-play;
#X obj 977 493 r \$0-write;
#X obj 973 441 r \$0-read;
#X obj 1239 569 r \$0-rec;
#X obj 1311 566 r \$0-play;
#X obj 1219 490 r \$0-write;
#X obj 1215 435 r \$0-read;
#X obj 25 588 puremapping/rec_play 1000 10;
#X obj 252 591 puremapping/rec_play 1000 10;
#X obj 489 588 puremapping/rec_play 1000 10;
#X obj 724 594 puremapping/rec_play 1000 10;
#X obj 951 597 puremapping/rec_play 1000 10;
#X obj 1188 594 puremapping/rec_play 1000 10;
#X obj 6 321 puremapping/rec_play 1000 10;
#X msg 977 517 write /home/pi/PureData/son105;
#X obj 165 42 r rec;
#X obj 50 40 r play;
#X obj 45 129 loadbang;
#X obj 233 44 r write;
#X text 257 68 save;
#X obj 25 562 inlet;
#X obj 252 565 inlet;
#X obj 488 563 inlet;
#X obj 724 569 inlet;
#X obj 951 571 inlet;
#X obj 1187 568 inlet;
#X obj 25 617 outlet;
#X obj 252 622 outlet;
#X obj 489 620 outlet;
#X obj 724 628 outlet;
#X obj 951 627 outlet;
#X obj 1188 625 outlet;
#X obj 6 269 inlet;
#X obj 6 372 outlet;
#X msg 42 453 read recPlay/son101;
#X msg 269 450 read recPlay/son102;
#X msg 40 503 write recPlay/son101;
#X msg 269 506 write /recPlay/son102;
#X msg 507 447 read recPlay/son103;
#X msg 507 506 write recPlay/son103;
#X msg 746 453 read recPlay/son104;
#X msg 746 515 write recPlay/son104;
#X msg 974 465 read recPlay/son105;
#X msg 1215 459 read recPlay/son106;
#X msg 1219 514 write recPlay/son106;
#X msg 160 233 read recPlay/son100;
#X msg 162 294 write recPlay/son100;
#X connect 0 0 45 0;
#X connect 1 0 65 0;
#X connect 2 0 6 0;
#X connect 4 0 7 0;
#X connect 10 0 8 0;
#X connect 11 0 45 1;
#X connect 12 0 45 2;
#X connect 13 0 78 0;
#X connect 14 0 77 0;
#X connect 15 0 39 1;
#X connect 16 0 39 2;
#X connect 17 0 68 0;
#X connect 18 0 66 0;
#X connect 19 0 40 1;
#X connect 20 0 40 2;
#X connect 21 0 69 0;
#X connect 22 0 67 0;
#X connect 23 0 41 1;
#X connect 24 0 41 2;
#X connect 25 0 71 0;
#X connect 26 0 70 0;
#X connect 27 0 42 1;
#X connect 28 0 42 2;
#X connect 29 0 73 0;
#X connect 30 0 72 0;
#X connect 31 0 43 1;
#X connect 32 0 43 2;
#X connect 33 0 46 0;
#X connect 34 0 74 0;
#X connect 35 0 44 1;
#X connect 36 0 44 2;
#X connect 37 0 76 0;
#X connect 38 0 75 0;
#X connect 39 0 58 0;
#X connect 40 0 59 0;
#X connect 41 0 60 0;
#X connect 42 0 61 0;
#X connect 43 0 62 0;
#X connect 44 0 63 0;
#X connect 45 0 1 0;
#X connect 46 0 43 3;
#X connect 47 0 2 0;
#X connect 48 0 4 0;
#X connect 50 0 10 0;
#X connect 52 0 39 0;
#X connect 53 0 40 0;
#X connect 54 0 41 0;
#X connect 55 0 42 0;
#X connect 56 0 43 0;
#X connect 57 0 44 0;
#X connect 64 0 0 0;
#X connect 66 0 39 3;
#X connect 67 0 40 3;
#X connect 68 0 39 3;
#X connect 69 0 40 3;
#X connect 70 0 41 3;
#X connect 71 0 41 3;
#X connect 72 0 42 3;
#X connect 73 0 42 3;
#X connect 74 0 43 3;
#X connect 75 0 44 3;
#X connect 76 0 44 3;
#X connect 77 0 45 3;
#X connect 78 0 45 3;
#X restore 96 514 pd rec_play_GT;
#X f 125;
#X text 416 406 gametrak;
#X obj 178 426 r CLX;
#X obj 335 426 r CLY;
#X obj 281 546 s LY;
#X obj 493 425 r CLZ;
#X obj 455 545 s LZ;
#X obj 650 424 r CRX;
#X obj 627 544 s RX;
#X obj 807 426 r CRY;
#X obj 799 544 s RY;
#X obj 967 426 r CRZ;
#X obj 973 545 s RZ;
#X obj 1126 463 s CLX;
#X obj 1128 389 s CLY;
#X obj 1126 127 s CLZ;
#X obj 1128 319 s CRX;
#X obj 1124 262 s CRY;
#X obj 1124 194 s CRZ;
#X obj 950 57 bng 15 250 50 0 empty empty empty 17 7 0 10 #fcfcfc #000000 #000000;
#X obj 146 548 hsl 128 15 0 1 0 0 empty empty empty -2 -8 0 10 #dfdfdf #000000 #000000 0 1;
#X obj 838 547 hsl 128 15 0 1 0 0 empty empty empty -2 -8 0 10 #dfdfdf #000000 #000000 0 1;
#X obj 664 548 hsl 128 15 0 1 0 0 empty empty empty -2 -8 0 10 #dfdfdf #000000 #000000 0 1;
#X obj 492 546 hsl 128 15 0 1 0 0 empty empty empty -2 -8 0 10 #dfdfdf #000000 #000000 0 1;
#X obj 320 548 hsl 128 15 0 1 0 0 empty empty empty -2 -8 0 10 #dfdfdf #000000 #000000 0 1;
#X obj 1013 547 hsl 128 15 0 1 0 0 empty empty empty -2 -8 0 10 #dfdfdf #000000 #000000 0 1;
#X obj 154 475 m_scale 0 4095 0 1;
#X obj 311 475 m_scale 0 4095 0 1;
#X obj 627 474 m_scale 0 4095 0 1;
#X obj 783 475 m_scale 0 4095 0 1;
#X obj 469 474 m_scale 4095 0 0 1;
#X obj 943 475 m_scale 4095 0 0 1;
#X obj 178 450 unpack 0 0 0 0;
#X obj 335 450 unpack 0 0 0 0;
#X obj 493 449 unpack 0 0 0 0;
#X obj 651 449 unpack 0 0 0 0;
#X obj 807 450 unpack 0 0 0 0;
#X obj 967 450 unpack 0 0 0 0;
#X floatatom 143 570 5 0 0 0 - - - 0;
#X floatatom 317 571 5 0 0 0 - - - 0;
#X floatatom 489 574 5 0 0 0 - - - 0;
#X floatatom 661 570 5 0 0 0 - - - 0;
#X floatatom 835 568 5 0 0 0 - - - 0;
#X floatatom 1010 567 5 0 0 0 - - - 0;
#X obj 948 21 loadbang;
#X msg 1126 424 0 4095 0 1;
#X msg 1128 350 0 4095 0 1;
#X msg 1126 291 0 4095 0 1;
#X msg 1124 223 0 4095 0 1;
#X obj 489 597 outlet LZ;
#X obj 1010 591 outlet RZ;
#X obj 143 593 outlet LX;
#X obj 661 595 outlet RX;
#X obj 318 595 outlet LY;
#X obj 835 593 outlet RY;
#X obj 257 80 select gametrak;
#X obj 257 30 r Instrument;
#X obj 257 54 symbol;
#X text 353 25 démarre le gametrak si c'est indiqué dans trackConfig.json pour la clé 'Instrument';
#X text 704 87 de la même manière on peut rappeler tous ces parametres en ajoutant par example la clé "CLX" : "0 4095 0 1". Il faudra ensuite utiliser [s2l] pour convertir le symbole en liste \, comme ceci:, f 31;
#X obj 861 208 r CLX;
#X obj 861 232 s2l;
#X obj 861 256 unpack f f f f;
#X obj 838 280 m_scale 0 4095 0 1;
#X text 648 302 Mais avec le gametrak seulement les parametres CLZ et CRZ ont besoin d'être initialisé en fait \, à part si on met un auto-calibrage au lancement du patch...;
#X msg 1126 88 4065 0 0 1;
#X msg 1124 155 4065 0 0 1;
#X connect 0 0 13 0;
#X connect 1 0 0 0;
#X connect 4 0 0 0;
#X connect 5 0 0 0;
#X connect 6 0 24 0;
#X connect 6 1 1 0;
#X connect 13 0 15 0;
#X connect 13 1 14 0;
#X connect 14 0 7 0;
#X connect 14 0 51 0;
#X connect 14 1 8 0;
#X connect 14 1 52 0;
#X connect 14 2 9 0;
#X connect 14 2 55 0;
#X connect 14 3 10 0;
#X connect 14 3 53 0;
#X connect 14 4 11 0;
#X connect 14 4 54 0;
#X connect 14 5 12 0;
#X connect 14 5 56 0;
#X connect 15 0 25 0;
#X connect 24 0 0 0;
#X connect 25 0 23 0;
#X connect 25 1 22 0;
#X connect 25 1 45 0;
#X connect 25 2 29 0;
#X connect 25 2 49 0;
#X connect 25 3 31 0;
#X connect 25 3 48 0;
#X connect 25 4 33 0;
#X connect 25 4 47 0;
#X connect 25 5 35 0;
#X connect 25 5 46 0;
#X connect 25 6 37 0;
#X connect 25 6 50 0;
#X connect 27 0 57 0;
#X connect 28 0 58 0;
#X connect 30 0 59 0;
#X connect 32 0 60 0;
#X connect 34 0 61 0;
#X connect 36 0 62 0;
#X connect 44 0 70 0;
#X connect 44 0 71 0;
#X connect 44 0 90 0;
#X connect 44 0 72 0;
#X connect 44 0 73 0;
#X connect 44 0 91 0;
#X connect 45 0 63 0;
#X connect 46 0 67 0;
#X connect 47 0 66 0;
#X connect 48 0 65 0;
#X connect 49 0 64 0;
#X connect 50 0 68 0;
#X connect 51 0 25 1;
#X connect 51 0 22 0;
#X connect 52 0 25 2;
#X connect 52 0 29 0;
#X connect 53 0 25 4;
#X connect 53 0 33 0;
#X connect 54 0 25 5;
#X connect 54 0 35 0;
#X connect 55 0 25 3;
#X connect 55 0 31 0;
#X connect 56 0 25 6;
#X connect 56 0 37 0;
#X connect 57 0 51 1;
#X connect 57 1 51 2;
#X connect 57 2 51 3;
#X connect 57 3 51 4;
#X connect 58 0 52 1;
#X connect 58 1 52 2;
#X connect 58 2 52 3;
#X connect 58 3 52 4;
#X connect 59 0 55 1;
#X connect 59 1 55 2;
#X connect 59 2 55 3;
#X connect 59 3 55 4;
#X connect 60 0 53 1;
#X connect 60 1 53 2;
#X connect 60 2 53 3;
#X connect 60 3 53 4;
#X connect 61 0 54 1;
#X connect 61 1 54 2;
#X connect 61 2 54 3;
#X connect 61 3 54 4;
#X connect 62 0 56 1;
#X connect 62 1 56 2;
#X connect 62 2 56 3;
#X connect 62 3 56 4;
#X connect 63 0 76 0;
#X connect 64 0 78 0;
#X connect 65 0 74 0;
#X connect 66 0 77 0;
#X connect 67 0 79 0;
#X connect 68 0 75 0;
#X connect 69 0 44 0;
#X connect 70 0 38 0;
#X connect 71 0 39 0;
#X connect 72 0 41 0;
#X connect 73 0 42 0;
#X connect 80 0 6 0;
#X connect 81 0 82 0;
#X connect 82 0 80 0;
#X connect 86 0 87 0;
#X connect 87 0 88 1;
#X connect 87 1 88 2;
#X connect 87 2 88 3;
#X connect 87 3 88 4;
#X connect 90 0 40 0;
#X connect 91 0 43 0;
#X restore 180 70 pd GameTrak;
#N canvas 102 134 470 345 curve 0;
#X floatatom 113 133 8 0 0 0 - - - 0;
#X floatatom 125 212 8 0 0 0 - - - 0;
#X obj 128 229 hsl 200 15 0 1 0 0 empty empty empty 22 8 1 12 #fcfcfc #000000 #000000 0 1;
#X obj 116 113 hsl 200 15 0 1 0 0 empty empty empty 22 8 1 12 #fce0c0 #000000 #000000 0 1;
#X obj 113 163 puremapping/curve_log;
#X obj 67 221 *~;
#X obj 96 79 r LZ;
#X obj 51 42 inlet~;
#X obj 55 273 outlet~;
#X connect 0 0 4 0;
#X connect 1 0 2 0;
#X connect 3 0 0 0;
#X connect 4 0 5 1;
#X connect 5 0 8 0;
#X connect 6 0 4 0;
#X connect 7 0 5 0;
#X restore 54 418 pd curve;
#X obj 630 225 change;
#X obj 664 186 tgl 19 0 empty empty empty 0 -10 0 12 #fcfcfc #000000 #000000 0 1;
#N canvas 672 123 567 357 curve 0;
#X floatatom 115 136 8 0 0 0 - - - 0;
#X obj 116 113 hsl 200 15 0 1 0 0 empty empty empty 22 8 1 12 #fce0c0 #000000 #000000 0 1;
#X obj 67 221 *~;
#X obj 51 42 inlet~;
#X obj 55 273 outlet~;
#X obj 96 79 r RZ;
#X obj 113 163 puremapping/curve_log;
#X connect 0 0 6 0;
#X connect 1 0 0 0;
#X connect 2 0 4 0;
#X connect 3 0 2 0;
#X connect 5 0 6 0;
#X connect 6 0 2 1;
#X restore 565 382 pd curve;
#X obj 206 170 > 0.01;
#X obj 630 144 > 0.01;
#X obj 565 414 else/mono.rev~;
#X obj 634 382 r \$0-set2;
#X obj 29 142 s \$0-wet1;
#X obj 223 146 s \$0-wet2;
#X obj 101 142 s \$0-damping1;
#X obj 238 123 s \$0-damping2;
#X obj 362 488 throw~ L_out;
#N canvas 324 25 450 300 setReverb_1 0;
#N canvas 311 360 450 300 init 0;
#X obj 112 43 inlet;
#X obj 112 95 f \$0;
#X obj 112 72 else/lb;
#X msg 112 118 \; \$1-decay 3 \; \$1-damping 0.25 \; \$1-size 0.475 \; \$1-wet 0;
#X connect 0 0 2 0;
#X connect 1 0 3 0;
#X connect 2 0 1 0;
#X restore 302 53 pd init;
#X obj 302 32 bng 15 250 50 0 empty empty empty 17 7 0 10 #dcdcdc #000000 #000000;
#X text 322 33 reload args;
#X obj 62 35 hsl 128 15 0.1 100 1 0 empty \$0-decay empty -2 -8 0 10 #dcdcdc #000000 #000000 0 1;
#X floatatom 59 59 5 0 0 0 - - - 0;
#X obj 130 63 hsl 128 15 0 1 0 0 empty \$0-damping empty -2 -8 0 10 #dcdcdc #000000 #000000 0 1;
#X floatatom 127 88 5 0 0 0 - - - 0;
#X obj 195 95 hsl 128 15 0 1 0 0 empty \$0-size empty -2 -8 0 10 #dcdcdc #000000 #000000 0 1;
#X floatatom 192 118 5 0 0 0 - - - 0;
#X text 163 62 damping;
#X msg 127 110 damp \$1;
#X text 232 95 room-size;
#X msg 192 144 size \$1;
#X msg 263 209 clear;
#X msg 59 83 decay \$1;
#X text 103 34 decay;
#X obj 261 130 hsl 128 15 0 1 0 0 empty \$0-wet empty -2 -8 0 10 #dcdcdc #000000 #000000 0 1;
#X floatatom 258 153 5 0 0 0 - - - 0;
#X msg 258 179 wet \$1;
#X obj 133 178 s \$0-set;
#X text 311 130 wet;
#X obj 328 103 r \$0-wet1;
#X obj 200 35 r \$0-damping1;
#X connect 1 0 0 0;
#X connect 3 0 4 0;
#X connect 4 0 14 0;
#X connect 5 0 6 0;
#X connect 6 0 10 0;
#X connect 7 0 8 0;
#X connect 8 0 12 0;
#X connect 10 0 19 0;
#X connect 12 0 19 0;
#X connect 13 0 19 0;
#X connect 14 0 19 0;
#X connect 16 0 17 0;
#X connect 17 0 18 0;
#X connect 18 0 19 0;
#X connect 21 0 16 0;
#X connect 22 0 5 0;
#X restore 558 482 pd setReverb_1;
#N canvas 650 0 450 300 setReverb_2 0;
#X obj 28 50 hsl 128 15 0.1 100 1 0 empty \$0-decay empty -2 -8 0 10 #dcdcdc #000000 #000000 0 1;
#X floatatom 25 74 5 0 0 0 - - - 0;
#X obj 96 78 hsl 128 15 0 1 0 0 empty \$0-damping empty -2 -8 0 10 #dcdcdc #000000 #000000 0 1;
#X floatatom 93 103 5 0 0 0 - - - 0;
#X obj 161 110 hsl 128 15 0 1 0 0 empty \$0-size empty -2 -8 0 10 #dcdcdc #000000 #000000 0 1;
#X floatatom 158 133 5 0 0 0 - - - 0;
#X text 129 77 damping;
#X msg 93 125 damp \$1;
#X text 198 110 room-size;
#X msg 158 159 size \$1;
#X msg 229 224 clear;
#X msg 25 98 decay \$1;
#X text 69 49 decay;
#X obj 227 145 hsl 128 15 0 1 0 0 empty \$0-wet empty -2 -8 0 10 #dcdcdc #000000 #000000 0 1;
#X floatatom 224 168 5 0 0 0 - - - 0;
#X msg 224 194 wet \$1;
#X text 277 145 wet;
#X obj 119 195 s \$0-set2;
#X obj 303 118 r \$0-wet2;
#X obj 235 75 r \$0-damping2;
#X connect 0 0 1 0;
#X connect 1 0 11 0;
#X connect 2 0 3 0;
#X connect 3 0 7 0;
#X connect 4 0 5 0;
#X connect 5 0 9 0;
#X connect 7 0 17 0;
#X connect 9 0 17 0;
#X connect 10 0 17 0;
#X connect 11 0 17 0;
#X connect 13 0 14 0;
#X connect 14 0 15 0;
#X connect 15 0 17 0;
#X connect 18 0 13 0;
#X connect 19 0 2 0;
#X restore 676 482 pd setReverb_2;
#X obj 25 10 init_track;
#X obj 25 34 s init_bang;
#X obj 709 93 select gametrak;
#X obj 709 43 r Instrument;
#X obj 709 67 symbol;
#X msg 710 118 1;
#X msg 791 118 0;
#X obj 715 185 tgl 19 0 empty empty empty 0 -10 0 12 #fcfcfc #000000 #000000 0 1;
#X obj 761 187 switch~;
#X text 571 459 parametres des reverbs;
#X text 532 17 Le son est activé dans ce patch avec [switch~];
#X text 141 52 des explications dedans:;
#N canvas 92 117 933 359 gestion 0;
#X obj 15 24 r cue_param;
#X obj 15 48 list split 2;
#X obj 55 80 route 0 1;
#X obj 56 321 s sfz_gauche_note;
#X text 122 34 les deux premiers arguments ne sont pas utiles ici (nom et num de cue);
#X text 133 82 trigger 0: lecteur gauche \, trigger 1: lecteur droit;
#X obj 211 322 s sfz_droite_note;
#X obj 55 148 route note;
#X obj 210 149 route note;
#X text 315 144 ici on met en cue le numéro de note \, comme ça on peut utiliser d'autres samples durant la pièce \, on pourrait aussi rajouter les parametres de reverb dans le fichier trackConfig.json à la place de [else/lb];
#X connect 0 0 1 0;
#X connect 1 1 2 0;
#X connect 2 0 7 0;
#X connect 2 1 8 0;
#X connect 7 0 3 0;
#X connect 8 0 6 0;
#X restore 406 43 pd gestion des cues;
#X obj 343 260 r sfz;
#X obj 343 282 symbol;
#X obj 424 229 r globalSettings;
#X obj 424 253 route soundPath;
#X obj 343 303 list prepend;
#X obj 424 277 symbol;
#X msg 343 326 open \$1/\$2;
#X text 274 223 le fichier sfz est indiqué pour chaque module, f 20;
#X text 408 167 le dossier sfz est dans le dossier 'sons' indiqué en parametre global, f 23;
#X obj 183 321 r sfz_gauche_note;
#X msg 80 319 0;
#X msg 119 320 127;
#X obj 81 348 list prepend 49;
#X obj 631 249 sel 0;
#X msg 632 278 0;
#X msg 671 279 127;
#X obj 633 307 list prepend 71;
#X obj 735 280 r sfz_droite_note;
#X text 104 8 <- gestion du fichier de configuration du morceau;
#X text 265 374 mettre les deux canaux de sortie stéréo sur un seul canal mono n'est pas une super idée car ça peut créer des artefacts comme de la saturation numérique, f 29;
#X text 14 515 Si des modules avec une autre interface sont utilisés \, il faudra mettre les patch 'gametrak' dans un sous-patch et l'autre interface dans un autre sous-patch, f 112;
#X obj 54 385 else/sfz~;
#X obj 565 350 else/sfz~;
#X connect 0 0 1 0;
#X connect 0 1 1 1;
#X connect 1 0 57 0;
#X connect 2 0 3 0;
#X connect 3 0 20 0;
#X connect 4 0 6 0;
#X connect 6 0 46 0;
#X connect 6 1 47 0;
#X connect 7 0 16 0;
#X connect 7 1 18 0;
#X connect 7 2 12 0;
#X connect 7 3 17 0;
#X connect 7 4 19 0;
#X connect 7 5 13 0;
#X connect 8 0 3 0;
#X connect 9 0 49 0;
#X connect 11 0 14 0;
#X connect 12 0 5 0;
#X connect 12 0 4 0;
#X connect 13 0 10 0;
#X connect 13 0 9 0;
#X connect 14 0 20 0;
#X connect 15 0 14 0;
#X connect 23 0 24 0;
#X connect 25 0 28 0;
#X connect 25 1 29 0;
#X connect 26 0 27 0;
#X connect 27 0 25 0;
#X connect 28 0 30 0;
#X connect 28 0 31 0;
#X connect 29 0 30 0;
#X connect 29 0 31 0;
#X connect 36 0 37 0;
#X connect 37 0 40 0;
#X connect 38 0 39 0;
#X connect 39 0 41 0;
#X connect 40 0 42 0;
#X connect 41 0 40 1;
#X connect 42 0 57 0;
#X connect 42 0 58 0;
#X connect 45 0 48 1;
#X connect 46 0 48 0;
#X connect 47 0 48 0;
#X connect 48 0 57 0;
#X connect 49 0 50 0;
#X connect 49 1 51 0;
#X connect 50 0 52 0;
#X connect 51 0 52 0;
#X connect 52 0 58 0;
#X connect 53 0 52 1;
#X connect 57 0 8 0;
#X connect 57 1 8 0;
#X connect 58 0 11 0;
#X connect 58 1 11 0;
