#N canvas 138 182 543 506 12;
#X obj 18 14 loadbang;
#X text 111 50 initialisation du patch;
#X obj 34 437 throw~ L_out;
#X text 126 436 audio out;
#X obj 85 14 cue_list;
#X obj 214 438 text define sonInfo;
#X obj 214 415 r sonInfo-r;
#N canvas 63 88 450 300 chargementDesSons 0;
#X text 52 28 Chargement des sons;
#X obj 188 227 table buffer_son;
#X obj 60 51 bng 15 250 50 0 empty empty empty 17 7 0 10 #fcfcfc #000000 #000000;
#X obj 113 52 loadbang;
#N canvas 237 262 441 502 ajouteInfo 0;
#X obj 182 8 inlet;
#X obj 222 108 f;
#X obj 255 109 + 1;
#X obj 22 262 soundfiler;
#X msg 22 225 read -resize -maxsize 1.6e+08 \$1 buffer_son, f 22;
#X obj 22 285 list append;
#X obj 172 441 text set sonInfo;
#X obj 22 341 list prepend;
#X obj 50 152 text get sonInfo;
#X msg 182 37 0;
#X obj 22 365 t b a;
#X obj 26 459 s \$0getSoundLoop;
#X obj 283 46 r \$0getSoundLoop;
#X obj 50 176 route bang;
#X obj 266 180 t a a;
#X connect 0 0 9 0;
#X connect 1 0 2 0;
#X connect 1 0 6 1;
#X connect 1 0 8 0;
#X connect 2 0 1 1;
#X connect 3 0 5 0;
#X connect 3 1 5 1;
#X connect 4 0 3 0;
#X connect 5 0 7 0;
#X connect 7 0 10 0;
#X connect 8 0 13 0;
#X connect 9 0 1 0;
#X connect 10 0 11 0;
#X connect 10 1 6 0;
#X connect 12 0 1 0;
#X connect 13 1 14 0;
#X connect 14 0 4 0;
#X connect 14 1 7 1;
#X restore 56 199 pd ajouteInfo;
#N canvas 678 113 350 460 listeLesSons 0;
#X obj 18 50 inlet;
#X obj 64 127 text delete sonInfo;
#X msg 64 105 -1;
#X obj 41 252 t a a;
#X obj 41 207 hcs/folder_list;
#X obj 41 158 getdir;
#X obj 18 71 t b b b;
#X text 9 2 la méthode pour lister ne fonctionne pas dans l'objet shell sur macOS \, alors on utilise cyclone/fromsymbol et hcs/folder_list..., f 47;
#X obj 41 229 ggee/stripdir;
#X msg 41 182 symbol \$1/sons/*.wav;
#X msg 41 309 symbol sons/\$1;
#X obj 41 342 text insert sonInfo;
#X obj 18 410 outlet;
#N canvas 158 335 397 336 getSoundNum 0;
#X obj 37 15 inlet;
#X obj 77 282 outlet;
#X obj 37 63 list split 3;
#X obj 37 39 list fromsymbol;
#X obj 78 188 list split;
#X obj 101 156 list-abs/list-find;
#X obj 78 91 t a b a;
#X msg 101 126 46;
#X obj 78 213 list tosymbol;
#X msg 77 236 symbol \$1;
#X obj 77 258 f;
#X connect 0 0 3 0;
#X connect 2 1 6 0;
#X connect 3 0 2 0;
#X connect 4 0 8 0;
#X connect 5 0 4 1;
#X connect 6 0 4 0;
#X connect 6 1 7 0;
#X connect 6 2 5 1;
#X connect 7 0 5 0;
#X connect 8 0 9 0;
#X connect 9 0 10 0;
#X connect 10 0 1 0;
#X restore 224 267 pd getSoundNum;
#X msg 156 310 1e+15;
#X connect 0 0 6 0;
#X connect 2 0 1 0;
#X connect 3 0 10 0;
#X connect 3 1 14 0;
#X connect 4 0 8 0;
#X connect 5 0 9 0;
#X connect 6 0 12 0;
#X connect 6 1 5 0;
#X connect 6 2 2 0;
#X connect 8 0 3 0;
#X connect 9 0 4 0;
#X connect 10 0 11 0;
#X connect 14 0 11 1;
#X restore 56 142 pd listeLesSons;
#X connect 2 0 5 0;
#X connect 3 0 5 0;
#X connect 5 0 4 0;
#X restore 214 379 pd chargementDesSons;
#X floatatom 415 314 5 0 0 0 - - - 0;
#X floatatom 380 361 5 0 0 0 - - - 0;
#X floatatom 380 412 5 0 0 0 - - - 0;
#X msg 380 314 100;
#X obj 380 266 loadbang;
#X obj 383 340 hsl 128 15 0 127 0 0 empty empty empty -2 -8 0 10 #fcfcfc #000000 #000000 0 1;
#X obj 380 383 dbtorms;
#X text 366 240 Positionnement du niveau;
#X obj 415 289 r \$0niveau;
#X obj 380 441 s \$0niveauDB;
#X obj 18 84 init_track;
#X obj 18 55 getdir;
#N canvas 717 469 450 300 addVelo 0;
#X obj 84 39 inlet;
#X obj 84 63 t a a;
#X obj 116 88 list length;
#X obj 116 111 sel 1;
#X obj 104 253 outlet;
#X obj 86 163 demux 0 1;
#X msg 114 136 0;
#X msg 149 135 1;
#X obj 40 190 pack f 100;
#X text 36 12 Si il n'y a pas de vélocité on en rajoute une à 100;
#X connect 0 0 1 0;
#X connect 1 0 5 0;
#X connect 1 1 2 0;
#X connect 2 0 3 0;
#X connect 3 0 6 0;
#X connect 3 1 7 0;
#X connect 5 0 8 0;
#X connect 5 1 4 0;
#X connect 6 0 5 1;
#X connect 7 0 5 1;
#X connect 8 0 4 0;
#X restore 34 188 pd addVelo;
#X obj 147 372 sig~ 1;
#X obj 34 278 demux 0 1;
#X obj 94 256 r \$0poly;
#X obj 147 348 r \$0niveauDB;
#X obj 34 211 list split 2;
#X obj 74 233 s \$0samplePos;
#X text 133 297 Polyphonie 16 voix;
#X obj 34 314 spectre \$0;
#N canvas 0 330 1370 374 Spectres 0;
#X obj 5 4 inlet;
#X obj 5 123 pack f f f;
#X obj 19 343 outlet~;
#X msg 23 67 clear;
#X obj 5 145 route 1 2 3 4 5 6 7 8 9 10 11 12 13 14 15 16;
#X obj 70 70 r \$0noteOff;
#X obj 23 42 r \$1clearPoly;
#X obj 5 99 poly 16 1;
#X obj 5 234 spectre \$0;
#X obj 100 235 spectre \$0;
#X obj 202 233 spectre \$0;
#X obj 287 232 spectre \$0;
#X obj 371 232 spectre \$0;
#X obj 454 232 spectre \$0;
#X obj 537 232 spectre \$0;
#X obj 620 232 spectre \$0;
#X obj 703 232 spectre \$0;
#X obj 786 232 spectre \$0;
#X obj 870 232 spectre \$0;
#X obj 955 231 spectre \$0;
#X obj 1039 231 spectre \$0;
#X obj 1122 231 spectre \$0;
#X obj 1205 231 spectre \$0;
#X obj 1288 231 spectre \$0;
#X connect 0 0 7 0;
#X connect 1 0 4 0;
#X connect 3 0 7 0;
#X connect 4 0 8 0;
#X connect 4 1 9 0;
#X connect 4 2 10 0;
#X connect 4 3 11 0;
#X connect 4 4 12 0;
#X connect 4 5 13 0;
#X connect 4 6 14 0;
#X connect 4 7 15 0;
#X connect 4 8 16 0;
#X connect 4 9 17 0;
#X connect 4 10 18 0;
#X connect 4 11 19 0;
#X connect 4 12 20 0;
#X connect 4 13 21 0;
#X connect 4 14 22 0;
#X connect 4 15 23 0;
#X connect 5 0 7 0;
#X connect 6 0 3 0;
#X connect 7 0 1 0;
#X connect 7 1 1 1;
#X connect 7 2 1 2;
#X connect 8 0 2 0;
#X connect 9 0 2 0;
#X connect 10 0 2 0;
#X connect 11 0 2 0;
#X connect 12 0 2 0;
#X connect 13 0 2 0;
#X connect 14 0 2 0;
#X connect 15 0 2 0;
#X connect 16 0 2 0;
#X connect 17 0 2 0;
#X connect 18 0 2 0;
#X connect 19 0 2 0;
#X connect 20 0 2 0;
#X connect 21 0 2 0;
#X connect 22 0 2 0;
#X connect 23 0 2 0;
#X restore 115 316 pd Spectres;
#X obj 308 52 tgl 19 1 empty empty empty 0 -10 0 12 #fcfcfc #000000 #000000 1 1;
#X obj 308 76 s \$0poly;
#X obj 34 404 *~;
#X obj 36 154 hradio 19 1 0 8 empty empty empty 0 -10 0 12 #fcfcfc #000000 #000000 0;
#N canvas 687 159 571 372 Hann-window 0;
#N canvas 0 0 450 300 (subpatch) 0;
#X array \$0-hann 512 float 0;
#X coords 0 1 511 0 200 120 1;
#X restore 293 151 graph;
#X msg 181 165 0;
#X obj 75 214 osc~;
#X obj 75 166 samplerate~;
#X obj 75 237 *~ -0.5;
#X obj 75 260 +~ 0.5;
#X obj 57 285 tabwrite~ \$0-hann;
#X text 279 143 1;
#X text 272 261 0;
#X text 288 274 0;
#X obj 75 190 / 512;
#X obj 57 123 bng 17 250 50 0 empty empty empty 0 -6 0 8 #dfdfdf #000000 #000000;
#X text 399 126 Hann window;
#X text 123 212 period 512;
#X text 100 117 recalculate Hann;
#X text 135 132 window table;
#X obj 57 82 loadbang;
#X text 91 26 The Hann window is now recomputed on 'loadbang' to make the file smaller (it doesn't have to be saved with the array.);
#X text 474 277 511;
#X connect 1 0 2 1;
#X connect 2 0 4 0;
#X connect 3 0 10 0;
#X connect 4 0 5 0;
#X connect 5 0 6 0;
#X connect 10 0 2 0;
#X connect 11 0 3 0;
#X connect 11 0 1 0;
#X connect 11 0 6 0;
#X connect 16 0 11 0;
#X restore 210 229 pd Hann-window;
#X obj 18 108 s callback;
#X obj 392 16 r computer_number;
#X obj 431 161 s \$0partial;
#X obj 110 85 bng 19 250 50 0 empty empty empty 0 -10 0 12 #fcfcfc #000000 #000000;
#X obj 392 92 s2l;
#X msg 423 65 symbol _;
#X obj 392 40 t a b;
#X obj 392 116 list split 1;
#X floatatom 431 139 5 0 0 0 - - - 0;
#X connect 0 0 19 0;
#X connect 6 0 5 0;
#X connect 8 0 13 0;
#X connect 9 0 14 0;
#X connect 10 0 17 0;
#X connect 11 0 13 0;
#X connect 12 0 11 0;
#X connect 13 0 9 0;
#X connect 14 0 10 0;
#X connect 16 0 8 0;
#X connect 18 0 35 0;
#X connect 19 0 18 0;
#X connect 20 0 25 0;
#X connect 21 0 32 1;
#X connect 22 0 28 0;
#X connect 22 1 29 0;
#X connect 23 0 22 1;
#X connect 24 0 21 0;
#X connect 25 0 22 0;
#X connect 25 1 26 0;
#X connect 28 0 32 0;
#X connect 29 0 32 0;
#X connect 30 0 31 0;
#X connect 32 0 2 0;
#X connect 33 0 20 0;
#X connect 36 0 41 0;
#X connect 38 0 35 0;
#X connect 39 0 42 0;
#X connect 40 0 39 1;
#X connect 41 0 39 0;
#X connect 41 1 40 0;
#X connect 42 1 43 0;
#X connect 43 0 37 0;
