#N canvas 279 32 966 577 12;
#X declare -lib zexy;
#X declare -path ggee;
#X floatatom 471 400 5 0 0 0 - - - 0;
#X floatatom 436 447 5 0 0 0 - - - 0;
#X floatatom 436 498 5 0 0 0 - - - 0;
#X msg 436 400 100;
#X obj 436 352 loadbang;
#X obj 439 426 hsl 128 15 0 127 0 0 empty empty empty -2 -8 0 10 #fcfcfc #000000 #000000 0 1;
#X obj 436 469 dbtorms;
#X text 175 7 Allumage de l'audio à l'ouverture ou commande OSC startDSP, f 34;
#X text 422 326 Positionnement du niveau;
#X obj 178 95 switch~;
#X msg 178 63 1;
#X obj 178 41 loadbang;
#X obj 243 494 text define sonInfo;
#X obj 243 426 r sonInfo-r;
#X obj 70 548 throw~ L_out;
#N canvas 0 330 1370 374 lisPlusieursSons 0;
#X obj 5 4 inlet;
#X obj 5 123 pack f f f;
#X obj 19 343 outlet~;
#X msg 23 67 clear;
#X obj 5 234 lisUnSon \$0;
#X obj 88 234 lisUnSon \$0;
#X obj 172 234 lisUnSon \$0;
#X obj 257 233 lisUnSon \$0;
#X obj 5 145 route 1 2 3 4 5 6 7 8 9 10 11 12 13 14 15 16;
#X obj 341 233 lisUnSon \$0;
#X obj 424 233 lisUnSon \$0;
#X obj 507 233 lisUnSon \$0;
#X obj 590 233 lisUnSon \$0;
#X obj 70 70 r \$0noteOff;
#X obj 673 233 lisUnSon \$0;
#X obj 756 233 lisUnSon \$0;
#X obj 840 233 lisUnSon \$0;
#X obj 925 232 lisUnSon \$0;
#X obj 1009 232 lisUnSon \$0;
#X obj 1092 232 lisUnSon \$0;
#X obj 1175 232 lisUnSon \$0;
#X obj 1258 232 lisUnSon \$0;
#X obj 23 42 r \$1clearPoly;
#X obj 5 99 poly 16 1;
#X connect 0 0 23 0;
#X connect 1 0 8 0;
#X connect 3 0 23 0;
#X connect 4 0 2 0;
#X connect 5 0 2 0;
#X connect 6 0 2 0;
#X connect 7 0 2 0;
#X connect 8 0 4 0;
#X connect 8 1 5 0;
#X connect 8 2 6 0;
#X connect 8 3 7 0;
#X connect 8 4 9 0;
#X connect 8 5 10 0;
#X connect 8 6 11 0;
#X connect 8 7 12 0;
#X connect 8 8 14 0;
#X connect 8 9 15 0;
#X connect 8 10 16 0;
#X connect 8 11 17 0;
#X connect 8 12 18 0;
#X connect 8 13 19 0;
#X connect 8 14 20 0;
#X connect 8 15 21 0;
#X connect 9 0 2 0;
#X connect 10 0 2 0;
#X connect 11 0 2 0;
#X connect 12 0 2 0;
#X connect 13 0 23 0;
#X connect 14 0 2 0;
#X connect 15 0 2 0;
#X connect 16 0 2 0;
#X connect 17 0 2 0;
#X connect 18 0 2 0;
#X connect 19 0 2 0;
#X connect 20 0 2 0;
#X connect 21 0 2 0;
#X connect 22 0 3 0;
#X connect 23 0 1 0;
#X connect 23 1 1 1;
#X connect 23 2 1 2;
#X restore 71 426 pd lisPlusieursSons;
#N canvas 717 469 450 300 addVelo 0;
#X obj 84 39 inlet;
#X obj 84 63 t a a;
#X obj 116 88 list length;
#X obj 116 111 sel 1;
#X obj 104 253 outlet;
#X obj 86 163 demux 0 1;
#X msg 114 136 0;
#X msg 149 135 1;
#X obj 40 190 pack f 100;
#X text 36 12 Si il n'y a pas de vélocité on en rajoute une à 100;
#X connect 0 0 1 0;
#X connect 1 0 5 0;
#X connect 1 1 2 0;
#X connect 2 0 3 0;
#X connect 3 0 6 0;
#X connect 3 1 7 0;
#X connect 5 0 8 0;
#X connect 5 1 4 0;
#X connect 6 0 5 1;
#X connect 7 0 5 1;
#X connect 8 0 4 0;
#X restore 11 262 pd addVelo;
#X obj 70 526 *~;
#X obj 89 500 sig~ 1;
#X obj 11 388 demux 0 1;
#X obj 71 343 r \$0poly;
#X obj 75 74 s \$0niveau;
#X obj 471 375 r \$0niveau;
#X obj 436 527 s \$0niveauDB;
#X obj 89 476 r \$0niveauDB;
#X obj 239 308 s \$0poly;
#X obj 11 285 list split 2;
#X obj 51 307 s \$0samplePos;
#N canvas 63 88 450 300 chargementDesSons 0;
#X text 52 28 Chargement des sons;
#X obj 188 227 table buffer_son;
#X obj 203 110 bng 15 250 50 0 empty empty empty 17 7 0 10 #fcfcfc #000000 #000000;
#X obj 113 52 loadbang;
#N canvas 645 279 441 502 ajouteInfo 0;
#X obj 182 8 inlet;
#X obj 222 108 f;
#X obj 255 109 + 1;
#X obj 22 262 soundfiler;
#X obj 22 285 list append;
#X obj 172 441 text set sonInfo;
#X obj 22 341 list prepend;
#X obj 50 152 text get sonInfo;
#X msg 182 37 0;
#X obj 145 386 t b a;
#X obj 26 459 s \$0getSoundLoop;
#X obj 283 46 r \$0getSoundLoop;
#X obj 50 176 route bang;
#X obj 266 180 t a a;
#X msg 22 225 read \$1 buffer_son;
#X connect 0 0 8 0;
#X connect 1 0 2 0;
#X connect 1 0 5 1;
#X connect 1 0 7 0;
#X connect 2 0 1 1;
#X connect 3 0 4 0;
#X connect 3 1 4 1;
#X connect 4 0 6 0;
#X connect 6 0 9 0;
#X connect 7 0 12 0;
#X connect 8 0 1 0;
#X connect 9 0 10 0;
#X connect 9 1 5 0;
#X connect 11 0 1 0;
#X connect 12 1 13 0;
#X connect 13 0 14 0;
#X connect 13 1 6 1;
#X connect 14 0 3 0;
#X restore 56 199 pd ajouteInfo;
#N canvas 678 113 350 460 listeLesSons 0;
#X obj 18 50 inlet;
#X obj 64 127 text delete sonInfo;
#X msg 64 105 -1;
#X obj 41 252 t a a;
#X obj 41 207 hcs/folder_list;
#X obj 41 158 getdir;
#X obj 18 71 t b b b;
#X text 9 2 la méthode pour lister ne fonctionne pas dans l'objet shell sur macOS \, alors on utilise cyclone/fromsymbol et hcs/folder_list..., f 47;
#X obj 41 229 ggee/stripdir;
#X msg 41 182 symbol \$1/sons/*.wav;
#X msg 41 309 symbol sons/\$1;
#X obj 41 342 text insert sonInfo;
#X obj 18 410 outlet;
#X msg 156 310 1e+15;
#X connect 0 0 6 0;
#X connect 2 0 1 0;
#X connect 3 0 10 0;
#X connect 3 1 13 0;
#X connect 4 0 8 0;
#X connect 5 0 9 0;
#X connect 6 0 12 0;
#X connect 6 1 5 0;
#X connect 6 2 2 0;
#X connect 8 0 3 0;
#X connect 9 0 4 0;
#X connect 10 0 11 0;
#X connect 13 0 11 1;
#X restore 56 142 pd listeLesSons;
#X obj 204 83 r \$0update;
#X connect 2 0 5 0;
#X connect 3 0 5 0;
#X connect 5 0 4 0;
#X connect 6 0 2 0;
#X restore 241 523 pd chargementDesSons;
#X obj 11 450 lisUnSon \$0;
#X obj 239 331 r \$0poly;
#X obj 239 355 sel 0;
#X obj 239 379 s \$0clearPoly;
#X text 89 407 Polyphonie 16 voix;
#X obj 239 240 loadbang;
#X obj 11 237 r \$0play;
#X obj 24 96 s \$0play;
#X obj 559 45 hradio 15 1 0 8 empty empty empty 0 -8 0 10 #fcfcfc #000000 #000000 0;
#X text 544 17 test sound \, 0db gain;
#X obj 559 66 s \$0play;
#X obj 734 44 hradio 15 1 0 8 empty empty empty 0 -8 0 10 #fcfcfc #000000 #000000 0;
#X floatatom 867 42 3 0 127 0 - - - 0;
#X obj 734 80 pack f 100;
#X text 747 18 test sound \, set gain;
#X obj 734 105 s \$0play;
#X obj 683 206 hradio 15 1 0 8 empty empty empty 0 -8 0 10 #fcfcfc #000000 #000000 0;
#X floatatom 814 206 3 0 127 0 - - - 0;
#X floatatom 843 205 5 0 1000 0 - - - 0;
#X obj 683 250 pack f 100 1000;
#X obj 842 231 * 100;
#X obj 679 379 hradio 15 1 0 8 empty empty empty 0 -8 0 10 #fcfcfc #000000 #000000 0;
#X floatatom 810 376 3 0 127 0 - - - 0;
#X floatatom 839 374 5 0 1000 0 - - - 0;
#X floatatom 889 374 5 0 100 0 - - - 0;
#X obj 888 400 * 100;
#X obj 838 400 * 100;
#X obj 679 442 pack f 100 1000 1000;
#X obj 683 277 s \$0play;
#X obj 680 468 s \$0play;
#X text 644 179 sound # \, gain \, offset milliseconds;
#X text 621 347 sound # \, gain \, offset \, length milliseconds;
#X text 257 476 sounds references;
#X text 239 96 DSP 1/0;
#X floatatom 240 286 3 0 16 0 - - - 0;
#X msg 240 263 16;
#X obj 703 521 declare -lib zexy;
#X obj 704 545 declare -path ggee;
#X obj 139 386 bng 19 250 50 0 empty empty empty 0 -10 0 12 #fcfcfc #000000 #000000;
#N canvas 125 241 528 262 OSC_messages 0;
#X floatatom 71 127 5 0 0 0 - - - 0;
#X floatatom 119 128 5 0 0 0 - - - 0;
#X obj 71 156 outlet;
#X obj 262 161 outlet;
#X obj 262 139 unpack 0 0 0;
#X obj 119 228 send \$0offset;
#X obj 24 24 r OSC_for_composition;
#X obj 24 216 outlet;
#X obj 358 86 s \$0update;
#X obj 310 111 s \$0loop;
#X obj 215 184 send \$0poly;
#X obj 167 206 s \$0stop;
#X obj 24 51 route play level offset stop poly startDSP loop update;
#X connect 0 0 2 0;
#X connect 1 0 5 0;
#X connect 4 0 3 0;
#X connect 6 0 12 0;
#X connect 12 0 7 0;
#X connect 12 1 0 0;
#X connect 12 2 1 0;
#X connect 12 3 11 0;
#X connect 12 4 10 0;
#X connect 12 5 4 0;
#X connect 12 6 9 0;
#X connect 12 7 8 0;
#X restore 24 13 pd OSC_messages;
#X obj 477 169 s \$0stop;
#X text 344 88 stops all sounds;
#X msg 345 114 -1;
#X msg 455 45 11;
#X text 477 99 stops son;
#X obj 477 121 hradio 15 1 0 8 empty empty empty 0 -8 0 10 #fcfcfc #000000 #000000 0;
#X msg 494 141 11;
#X text 275 286 polyphony \, min = 1 \, max = 16;
#X obj 71 366 > 2;
#X obj 189 204 s \$0loop;
#X msg 231 176 all \$1;
#X obj 231 151 tgl 19 0 empty empty empty 0 -10 0 12 #fcfcfc #000000 #000000 0 1;
#X msg 164 150 1 \$1;
#X obj 163 126 tgl 19 0 empty empty empty 0 -10 0 12 #fcfcfc #000000 #000000 0 1;
#X text 284 180 loop all sounds;
#X text 78 150 loop son 1;
#X connect 0 0 5 0;
#X connect 1 0 6 0;
#X connect 2 0 23 0;
#X connect 3 0 5 0;
#X connect 4 0 3 0;
#X connect 5 0 1 0;
#X connect 6 0 2 0;
#X connect 10 0 9 0;
#X connect 11 0 10 0;
#X connect 13 0 12 0;
#X connect 15 0 17 0;
#X connect 16 0 26 0;
#X connect 17 0 14 0;
#X connect 18 0 17 1;
#X connect 19 0 29 0;
#X connect 19 1 15 0;
#X connect 19 1 67 0;
#X connect 20 0 77 0;
#X connect 22 0 0 0;
#X connect 24 0 18 0;
#X connect 26 0 19 0;
#X connect 26 1 27 0;
#X connect 29 0 17 0;
#X connect 30 0 31 0;
#X connect 31 0 32 0;
#X connect 34 0 64 0;
#X connect 35 0 16 0;
#X connect 37 0 39 0;
#X connect 40 0 42 0;
#X connect 41 0 42 1;
#X connect 42 0 44 0;
#X connect 45 0 48 0;
#X connect 46 0 48 1;
#X connect 47 0 49 0;
#X connect 48 0 57 0;
#X connect 49 0 48 2;
#X connect 50 0 56 0;
#X connect 51 0 56 1;
#X connect 52 0 55 0;
#X connect 53 0 54 0;
#X connect 54 0 56 3;
#X connect 55 0 56 2;
#X connect 56 0 58 0;
#X connect 63 0 25 0;
#X connect 64 0 63 0;
#X connect 68 0 36 0;
#X connect 68 1 21 0;
#X connect 68 2 9 0;
#X connect 71 0 69 0;
#X connect 72 0 39 0;
#X connect 74 0 69 0;
#X connect 75 0 69 0;
#X connect 77 0 19 1;
#X connect 79 0 78 0;
#X connect 80 0 79 0;
#X connect 81 0 78 0;
#X connect 82 0 81 0;
