#N canvas 279 32 966 577 12;
#X declare -lib zexy;
#X declare -path ggee;
#X floatatom 471 400 5 0 0 0 - - - 0;
#X floatatom 436 447 5 0 0 0 - - - 0;
#X floatatom 436 498 5 0 0 0 - - - 0;
#X msg 436 400 100;
#X obj 436 352 loadbang;
#X obj 439 426 hsl 128 15 0 127 0 0 empty empty empty -2 -8 0 10 #fcfcfc #000000 #000000 0 1;
#X obj 436 469 dbtorms;
#X text 7 2 Sélection des sons avec synchronisation, f 22;
#X text 264 5 Allumage de l'audio à l'ouverture ou commande OSC startDSP, f 34;
#X text 422 326 Positionnement du niveau;
#X obj 299 98 switch~;
#X msg 333 66 1;
#X obj 333 44 loadbang;
#X obj 243 494 text define sonInfo;
#X obj 243 426 r sonInfo-r;
#X obj 70 548 throw~ L_out;
#N canvas 0 330 1370 374 lisPlusieursSons 0;
#X obj 5 4 inlet;
#X obj 5 123 pack f f f;
#X obj 19 343 outlet~;
#X msg 23 67 clear;
#X obj 5 234 lisUnSon \$0;
#X obj 88 234 lisUnSon \$0;
#X obj 172 234 lisUnSon \$0;
#X obj 257 233 lisUnSon \$0;
#X obj 5 145 route 1 2 3 4 5 6 7 8 9 10 11 12 13 14 15 16;
#X obj 341 233 lisUnSon \$0;
#X obj 424 233 lisUnSon \$0;
#X obj 507 233 lisUnSon \$0;
#X obj 590 233 lisUnSon \$0;
#X obj 70 70 r \$0noteOff;
#X obj 673 233 lisUnSon \$0;
#X obj 756 233 lisUnSon \$0;
#X obj 840 233 lisUnSon \$0;
#X obj 925 232 lisUnSon \$0;
#X obj 1009 232 lisUnSon \$0;
#X obj 1092 232 lisUnSon \$0;
#X obj 1175 232 lisUnSon \$0;
#X obj 1258 232 lisUnSon \$0;
#X obj 23 42 r \$1clearPoly;
#X obj 5 99 poly 16 1;
#X connect 0 0 23 0;
#X connect 1 0 8 0;
#X connect 3 0 23 0;
#X connect 4 0 2 0;
#X connect 5 0 2 0;
#X connect 6 0 2 0;
#X connect 7 0 2 0;
#X connect 8 0 4 0;
#X connect 8 1 5 0;
#X connect 8 2 6 0;
#X connect 8 3 7 0;
#X connect 8 4 9 0;
#X connect 8 5 10 0;
#X connect 8 6 11 0;
#X connect 8 7 12 0;
#X connect 8 8 14 0;
#X connect 8 9 15 0;
#X connect 8 10 16 0;
#X connect 8 11 17 0;
#X connect 8 12 18 0;
#X connect 8 13 19 0;
#X connect 8 14 20 0;
#X connect 8 15 21 0;
#X connect 9 0 2 0;
#X connect 10 0 2 0;
#X connect 11 0 2 0;
#X connect 12 0 2 0;
#X connect 13 0 23 0;
#X connect 14 0 2 0;
#X connect 15 0 2 0;
#X connect 16 0 2 0;
#X connect 17 0 2 0;
#X connect 18 0 2 0;
#X connect 19 0 2 0;
#X connect 20 0 2 0;
#X connect 21 0 2 0;
#X connect 22 0 3 0;
#X connect 23 0 1 0;
#X connect 23 1 1 1;
#X connect 23 2 1 2;
#X restore 71 426 pd lisPlusieursSons;
#N canvas 717 469 450 300 addVelo 0;
#X obj 84 39 inlet;
#X text 36 12 Si il n'y a pas de vélocité on en rajoute une à 127;
#X obj 84 63 t a a;
#X obj 116 88 list length;
#X obj 116 111 sel 1;
#X obj 104 253 outlet;
#X obj 86 163 demux 0 1;
#X msg 114 136 0;
#X msg 149 135 1;
#X obj 40 190 pack f 100;
#X connect 0 0 2 0;
#X connect 2 0 6 0;
#X connect 2 1 3 0;
#X connect 3 0 4 0;
#X connect 4 0 7 0;
#X connect 4 1 8 0;
#X connect 6 0 9 0;
#X connect 6 1 5 0;
#X connect 7 0 6 1;
#X connect 8 0 6 1;
#X connect 9 0 5 0;
#X restore 11 262 pd addVelo;
#X obj 70 526 *~;
#X obj 89 500 sig~ 1;
#X obj 11 388 demux 0 1;
#X obj 71 336 r \$0poly;
#X obj 43 45 synchroSkini \$0;
#X obj 94 94 s \$0niveau;
#X obj 471 375 r \$0niveau;
#X obj 436 527 s \$0niveauDB;
#X obj 89 476 r \$0niveauDB;
#X obj 265 269 s \$0poly;
#X obj 11 285 list split 2;
#X obj 51 307 s \$0samplePos;
#N canvas 63 88 450 300 chargementDesSons 0;
#X text 52 28 Chargement des sons;
#X obj 188 227 table buffer_son;
#X obj 60 51 bng 15 250 50 0 empty empty empty 17 7 0 10 #fcfcfc #000000 #000000;
#X obj 113 52 loadbang;
#N canvas 237 262 441 502 ajouteInfo 0;
#X obj 182 8 inlet;
#X obj 222 108 f;
#X obj 255 109 + 1;
#X obj 22 262 soundfiler;
#X msg 22 225 read -resize -maxsize 1.6e+08 \$1 buffer_son, f 22;
#X obj 22 285 list append;
#X obj 172 441 text set sonInfo;
#X obj 22 341 list prepend;
#X obj 50 152 text get sonInfo;
#X msg 182 37 0;
#X obj 22 365 t b a;
#X obj 26 459 s \$0getSoundLoop;
#X obj 283 46 r \$0getSoundLoop;
#X obj 50 176 route bang;
#X obj 266 180 t a a;
#X connect 0 0 9 0;
#X connect 1 0 2 0;
#X connect 1 0 6 1;
#X connect 1 0 8 0;
#X connect 2 0 1 1;
#X connect 3 0 5 0;
#X connect 3 1 5 1;
#X connect 4 0 3 0;
#X connect 5 0 7 0;
#X connect 7 0 10 0;
#X connect 8 0 13 0;
#X connect 9 0 1 0;
#X connect 10 0 11 0;
#X connect 10 1 6 0;
#X connect 12 0 1 0;
#X connect 13 1 14 0;
#X connect 14 0 4 0;
#X connect 14 1 7 1;
#X restore 56 199 pd ajouteInfo;
#N canvas 678 113 350 460 listeLesSons 0;
#X obj 18 50 inlet;
#X obj 64 127 text delete sonInfo;
#X msg 64 105 -1;
#X obj 41 252 t a a;
#X obj 41 207 hcs/folder_list;
#X obj 41 158 getdir;
#X obj 18 71 t b b b;
#X text 9 2 la méthode pour lister ne fonctionne pas dans l'objet shell sur macOS \, alors on utilise cyclone/fromsymbol et hcs/folder_list..., f 47;
#X obj 41 229 ggee/stripdir;
#X msg 41 182 symbol \$1/sons/*.wav;
#X msg 41 309 symbol sons/\$1;
#X obj 41 342 text insert sonInfo;
#X obj 18 410 outlet;
#X msg 156 310 1e+15;
#X connect 0 0 6 0;
#X connect 2 0 1 0;
#X connect 3 0 10 0;
#X connect 3 1 13 0;
#X connect 4 0 8 0;
#X connect 5 0 9 0;
#X connect 6 0 12 0;
#X connect 6 1 5 0;
#X connect 6 2 2 0;
#X connect 8 0 3 0;
#X connect 9 0 4 0;
#X connect 10 0 11 0;
#X connect 13 0 11 1;
#X restore 56 142 pd listeLesSons;
#X connect 2 0 5 0;
#X connect 3 0 5 0;
#X connect 5 0 4 0;
#X restore 241 523 pd chargementDesSons;
#X obj 11 450 lisUnSon \$0;
#X obj 320 217 s \$0quantize;
#X obj 269 304 r \$0poly;
#X obj 269 328 sel 0;
#X obj 269 352 s \$0clearPoly;
#X text 89 407 Polyphonie 16 voix;
#X msg 321 171 1;
#X obj 321 149 loadbang;
#X obj 14 198 s \$0clear;
#X obj 14 173 bng 19 250 50 0 empty empty empty 0 -10 0 12 #fcfcfc #000000 #000000;
#X obj 11 237 r \$0play;
#X obj 24 93 s \$0play;
#X obj 559 45 hradio 15 1 0 8 empty empty empty 0 -8 0 10 #fcfcfc #000000 #000000 0;
#X text 544 17 test sound \, 0db gain;
#X obj 559 66 s \$0play;
#X obj 734 44 hradio 15 1 0 8 empty empty empty 0 -8 0 10 #fcfcfc #000000 #000000 0;
#X floatatom 867 42 3 0 127 0 - - - 0;
#X obj 734 80 pack f 100;
#X text 747 18 test sound \, set gain;
#X obj 734 105 s \$0play;
#X obj 683 206 hradio 15 1 0 8 empty empty empty 0 -8 0 10 #fcfcfc #000000 #000000 0;
#X floatatom 814 206 3 0 127 0 - - - 0;
#X floatatom 843 205 5 0 1000 0 - - - 0;
#X obj 683 250 pack f 100 1000;
#X obj 842 231 * 100;
#X obj 679 379 hradio 15 1 0 8 empty empty empty 0 -8 0 10 #fcfcfc #000000 #000000 0;
#X floatatom 810 376 3 0 127 0 - - - 0;
#X floatatom 839 374 5 0 1000 0 - - - 0;
#X floatatom 889 374 5 0 100 0 - - - 0;
#X obj 888 400 * 100;
#X obj 838 400 * 100;
#X obj 679 442 pack f 100 1000 1000;
#X obj 683 277 s \$0play;
#X obj 680 468 s \$0play;
#X text 644 179 sound # \, gain \, offset milliseconds;
#X text 621 347 sound # \, gain \, offset \, length milliseconds;
#X text 257 476 sounds references;
#X text 360 99 DSP 1/0;
#X text 13 147 stops sounds \, clear buffer;
#X obj 320 199 hradio 15 1 0 3 empty empty empty 0 -8 0 10 #fcfcfc #000000 #000000 0;
#X text 378 183 0 = no quantize \, 1 \, bar quantize \, 2 \, beat quantize, f 34;
#X floatatom 266 247 3 0 16 0 - - - 0;
#X msg 266 212 16;
#X text 301 247 polyphony \, 0 = disabled \, max = 16;
#X obj 703 521 declare -lib zexy;
#X obj 704 545 declare -path ggee;
#X obj 139 386 bng 19 250 50 0 empty empty empty 0 -10 0 12 #fcfcfc #000000 #000000;
#X obj 71 366 > 0;
#X connect 0 0 5 0;
#X connect 1 0 6 0;
#X connect 2 0 25 0;
#X connect 3 0 5 0;
#X connect 4 0 3 0;
#X connect 5 0 1 0;
#X connect 6 0 2 0;
#X connect 11 0 10 0;
#X connect 12 0 11 0;
#X connect 14 0 13 0;
#X connect 16 0 18 0;
#X connect 17 0 28 0;
#X connect 18 0 15 0;
#X connect 19 0 18 1;
#X connect 20 0 31 0;
#X connect 20 1 16 0;
#X connect 20 1 77 0;
#X connect 21 0 78 0;
#X connect 22 0 42 0;
#X connect 22 1 23 0;
#X connect 22 2 10 0;
#X connect 24 0 0 0;
#X connect 26 0 19 0;
#X connect 28 0 20 0;
#X connect 28 1 29 0;
#X connect 31 0 18 0;
#X connect 33 0 34 0;
#X connect 34 0 35 0;
#X connect 37 0 70 0;
#X connect 38 0 37 0;
#X connect 38 0 73 0;
#X connect 40 0 39 0;
#X connect 41 0 17 0;
#X connect 43 0 45 0;
#X connect 46 0 48 0;
#X connect 47 0 48 1;
#X connect 48 0 50 0;
#X connect 51 0 54 0;
#X connect 52 0 54 1;
#X connect 53 0 55 0;
#X connect 54 0 63 0;
#X connect 55 0 54 2;
#X connect 56 0 62 0;
#X connect 57 0 62 1;
#X connect 58 0 61 0;
#X connect 59 0 60 0;
#X connect 60 0 62 3;
#X connect 61 0 62 2;
#X connect 62 0 64 0;
#X connect 70 0 32 0;
#X connect 72 0 27 0;
#X connect 73 0 72 0;
#X connect 78 0 20 1;
