#N canvas 18 148 1059 671 12;
#X obj 162 300 readsf~;
#X msg 130 272 1;
#X obj 130 247 t b a;
#X obj 365 5 inlet;
#X obj 142 536 outlet~;
#X obj 326 477 f;
#X obj 310 127 t f f;
#X obj 326 501 list append 0;
#X obj 142 502 *~;
#X obj 563 213 list split 1;
#X obj 603 236 list split 1;
#X obj 365 101 t f b a;
#X obj 643 259 list split 1;
#X obj 644 429 s \$0sonOffset;
#X obj 750 372 s \$0sonStop;
#X obj 750 303 t b a;
#X obj 750 350 delay;
#X obj 392 385 f;
#X obj 365 79 spigot;
#X msg 379 54 \$2;
#X msg 437 55 0;
#X obj 437 79 s \$0sonOffset;
#X obj 563 191 list append;
#X obj 683 281 route bang;
#X obj 637 169 r \$1samplePos;
#X obj 326 525 s \$1noteOff;
#X obj 411 359 dbtorms;
#X obj 751 131 switch~;
#X msg 752 101 1;
#X obj 794 71 r \$0sonStop;
#X msg 794 99 0;
#X obj 425 101 s \$0sonNum;
#X obj 365 28 t a a f b;
#N canvas 665 389 450 341 msToSamples 0;
#X obj 89 22 inlet;
#X obj 89 272 outlet;
#X obj 177 140 text search sonInfo;
#X msg 177 116 symbol sons/son\$1.wav;
#X obj 195 29 r \$0sonNum;
#X obj 89 46 t f b;
#X obj 177 93 f;
#X obj 89 213 *;
#X obj 177 163 text get sonInfo 2;
#X obj 89 175 / 1000;
#X connect 0 0 5 0;
#X connect 2 0 8 0;
#X connect 3 0 2 0;
#X connect 4 0 6 1;
#X connect 5 0 9 0;
#X connect 5 1 6 0;
#X connect 6 0 3 0;
#X connect 7 0 1 0;
#X connect 8 0 7 1;
#X connect 9 0 7 0;
#X restore 644 407 pd msToSamples;
#N canvas 937 197 450 300 loop 0;
#X obj 34 14 inlet;
#X obj 134 252 outlet;
#X obj 184 20 r \$1loop;
#X obj 134 192 demux;
#X obj 166 224 s \$0loop_bang;
#X obj 286 111 r \$0sonNum;
#X obj 244 151 route;
#X obj 184 126 route all;
#X obj 156 70 list;
#X obj 34 38 t a b;
#X obj 156 94 list trim;
#X connect 0 0 9 0;
#X connect 2 0 8 1;
#X connect 3 0 1 0;
#X connect 3 1 4 0;
#X connect 5 0 6 1;
#X connect 6 0 3 1;
#X connect 7 0 3 1;
#X connect 7 1 6 0;
#X connect 8 0 10 0;
#X connect 9 0 3 0;
#X connect 9 1 8 0;
#X connect 10 0 7 0;
#X restore 208 333 pd loop;
#N canvas 469 90 450 300 getSound 0;
#X obj 218 242 list trim;
#X obj 218 221 list prepend open;
#X obj 212 115 list split 1;
#X obj 252 138 list split 2;
#X obj 22 165 list append 0;
#X obj 218 200 list append;
#X obj 212 94 text get sonInfo;
#X obj 110 55 r \$0sonOffset;
#N canvas 266 291 450 300 chercheLeSon 0;
#X obj 89 22 inlet;
#X obj 89 263 outlet;
#X obj 89 133 text search sonInfo;
#X msg 89 85 symbol sons/son\$1.wav;
#X connect 0 0 3 0;
#X connect 2 0 1 0;
#X connect 3 0 2 0;
#X restore 212 71 pd chercheLeSon;
#X obj 212 9 inlet;
#X obj 218 266 outlet;
#X connect 0 0 10 0;
#X connect 1 0 0 0;
#X connect 2 0 4 0;
#X connect 2 1 3 0;
#X connect 3 1 5 1;
#X connect 4 0 5 0;
#X connect 5 0 1 0;
#X connect 6 0 2 0;
#X connect 7 0 4 1;
#X connect 8 0 6 0;
#X connect 9 0 8 0;
#X restore 130 221 pd getSound;
#X obj 130 190 f;
#X obj 130 147 r \$0loop_bang;
#N canvas 909 237 450 352 stop 0;
#X obj 113 329 s \$0sonStop;
#X obj 161 24 r \$1stop;
#X obj 30 114 moses 0;
#X obj 30 142 bng 19 250 50 0 empty empty empty 0 -10 0 12 #fcfcfc #000000 #000000;
#X obj 110 196 sel;
#X obj 234 135 r \$0sonNum;
#X obj 113 242 f;
#X msg 190 207 0;
#X obj 161 51 t a b;
#X obj 56 82 list split 1;
#X obj 97 109 route bang;
#X obj 117 299 del;
#X obj 114 266 t b a;
#X connect 1 0 8 0;
#X connect 2 0 3 0;
#X connect 2 1 4 0;
#X connect 3 0 6 0;
#X connect 4 0 6 0;
#X connect 5 0 4 1;
#X connect 6 0 12 0;
#X connect 7 0 6 1;
#X connect 8 0 9 0;
#X connect 8 1 7 0;
#X connect 9 0 2 0;
#X connect 9 1 10 0;
#X connect 10 1 6 1;
#X connect 11 0 0 0;
#X connect 12 0 11 0;
#X connect 12 1 11 1;
#X restore 121 58 pd stop;
#X obj 390 422 r \$0sonStop;
#X obj 241 240 r \$0sonStop;
#X msg 241 266 0;
#N canvas 121 146 450 300 autofade 0;
#X obj 38 20 inlet;
#X obj 101 238 outlet;
#X obj 145 102 delay;
#X obj 97 166 line~;
#X msg 145 124 0 50;
#N canvas 141 164 509 619 calculFadeOut 0;
#X obj 20 136 text get sonInfo;
#X obj 20 210 list length;
#X obj 20 50 t f f;
#X obj 44 294 t b b;
#X obj 20 249 route 7 8 9;
#X obj 192 536 -;
#X obj 193 591 outlet;
#X obj 20 19 inlet;
#X obj 237 152 t f;
#X obj 20 366 f;
#X obj 143 358 f;
#X obj 300 390 f;
#X obj 386 390 f;
#X obj 20 188 list append;
#X obj 274 170 list split 1;
#X obj 313 199 route bang;
#N canvas 266 291 450 300 chercheLeSon 0;
#X obj 89 22 inlet;
#X obj 89 263 outlet;
#X obj 89 133 text search sonInfo;
#X msg 89 85 symbol sons/son\$1.wav;
#X connect 0 0 3 0;
#X connect 2 0 1 0;
#X connect 3 0 2 0;
#X restore 20 114 pd chercheLeSon;
#X obj 274 66 r \$1samplePos;
#N canvas 266 291 450 300 chercheLeSon 0;
#X obj 89 22 inlet;
#X obj 89 263 outlet;
#X obj 89 133 text search sonInfo;
#X msg 89 85 symbol sons/son\$1.wav;
#X connect 0 0 3 0;
#X connect 2 0 1 0;
#X connect 3 0 2 0;
#X restore 19 395 pd chercheLeSon;
#N canvas 266 291 450 300 chercheLeSon 0;
#X obj 89 22 inlet;
#X obj 89 263 outlet;
#X obj 89 133 text search sonInfo;
#X msg 89 85 symbol sons/son\$1.wav;
#X connect 0 0 3 0;
#X connect 2 0 1 0;
#X connect 3 0 2 0;
#X restore 143 381 pd chercheLeSon;
#X obj 193 570 - 50;
#X obj 19 421 text get sonInfo 1 2, f 11;
#X obj 143 404 text get sonInfo 1 2, f 11;
#X obj 19 461 /;
#X obj 19 485 * 1000;
#X obj 143 441 /;
#X obj 143 465 * 1000;
#X connect 0 0 13 0;
#X connect 1 0 4 0;
#X connect 2 0 16 0;
#X connect 2 1 8 0;
#X connect 3 0 10 0;
#X connect 3 1 11 0;
#X connect 4 0 9 0;
#X connect 4 1 3 0;
#X connect 4 2 12 0;
#X connect 5 0 20 0;
#X connect 7 0 2 0;
#X connect 8 0 9 1;
#X connect 8 0 10 1;
#X connect 9 0 18 0;
#X connect 10 0 19 0;
#X connect 11 0 5 1;
#X connect 12 0 20 0;
#X connect 13 0 1 0;
#X connect 14 0 11 1;
#X connect 14 1 15 0;
#X connect 15 1 12 1;
#X connect 16 0 0 0;
#X connect 17 0 13 1;
#X connect 17 0 14 0;
#X connect 18 0 21 0;
#X connect 19 0 22 0;
#X connect 20 0 6 0;
#X connect 21 0 23 0;
#X connect 22 0 25 0;
#X connect 23 0 24 0;
#X connect 24 0 20 0;
#X connect 25 0 26 0;
#X connect 26 0 5 0;
#X restore 177 79 pd calculFadeOut;
#X obj 57 127 f;
#X obj 75 87 dbtorms;
#X connect 2 0 4 0;
#X connect 4 0 3 0;
#X connect 5 0 2 1;
#X connect 6 0 3 0;
#X connect 7 0 6 1;
#X restore 411 197 pd autofade;
#N canvas 121 146 450 300 fadeout 0;
#X obj 62 235 outlet~;
#X obj 64 22 r \$0sonStop;
#X msg 62 130 0 \$1;
#X obj 62 187 line~;
#X obj 200 71 r \$0sonNum;
#X obj 200 95 b;
#X msg 200 119 1;
#X connect 1 0 2 0;
#X connect 2 0 3 0;
#X connect 3 0 0 0;
#X connect 4 0 5 0;
#X connect 5 0 6 0;
#X connect 6 0 3 0;
#X restore 160 438 pd fadeout;
#X obj 142 470 *~;
#N canvas 837 569 450 300 attenuation 1;
#X obj 136 119 sel;
#X obj 239 50 r \$0sonNum;
#X obj 151 167 f;
#X msg 224 167 100;
#X obj 170 221 dbtorms;
#X obj 170 245 outlet;
#X obj 136 25 r \$1attenuation;
#X obj 136 49 list split 1;
#X connect 0 0 2 0;
#X connect 1 0 0 1;
#X connect 1 0 3 0;
#X connect 2 0 4 0;
#X connect 3 0 4 0;
#X connect 4 0 5 0;
#X connect 6 0 7 0;
#X connect 7 0 0 0;
#X connect 7 1 2 1;
#X restore 46 330 pd attenuation;
#X obj 782 328 + 100;
#X text 830 303 je soupçonne le raspberry de mettre plus de temps que la valeur exacte en durée pour lire un son super long, f 30;
#X obj 46 380 line~;
#X msg 46 356 \$1 50;
#X obj 142 414 *~;
#X connect 0 0 50 1;
#X connect 0 1 34 0;
#X connect 1 0 0 0;
#X connect 2 0 1 0;
#X connect 2 1 0 0;
#X connect 3 0 32 0;
#X connect 5 0 7 0;
#X connect 6 0 35 0;
#X connect 6 0 36 1;
#X connect 6 1 5 1;
#X connect 7 0 25 0;
#X connect 8 0 4 0;
#X connect 9 1 10 0;
#X connect 10 0 26 0;
#X connect 10 1 12 0;
#X connect 11 0 6 0;
#X connect 11 1 17 0;
#X connect 11 2 22 0;
#X connect 11 2 42 0;
#X connect 12 0 33 0;
#X connect 12 1 23 0;
#X connect 15 0 16 0;
#X connect 15 1 46 0;
#X connect 16 0 14 0;
#X connect 17 0 8 1;
#X connect 18 0 11 0;
#X connect 19 0 18 1;
#X connect 20 0 21 0;
#X connect 22 0 9 0;
#X connect 23 1 15 0;
#X connect 24 0 22 1;
#X connect 26 0 17 1;
#X connect 28 0 27 0;
#X connect 29 0 30 0;
#X connect 30 0 27 0;
#X connect 32 0 18 0;
#X connect 32 1 19 0;
#X connect 32 2 31 0;
#X connect 32 3 28 0;
#X connect 32 3 20 0;
#X connect 33 0 13 0;
#X connect 34 0 5 0;
#X connect 35 0 2 0;
#X connect 36 0 35 0;
#X connect 37 0 36 0;
#X connect 39 0 5 0;
#X connect 40 0 41 0;
#X connect 41 0 0 0;
#X connect 43 0 44 1;
#X connect 44 0 8 0;
#X connect 45 0 49 0;
#X connect 46 0 16 1;
#X connect 48 0 50 0;
#X connect 49 0 48 0;
#X connect 50 0 44 0;
