#N canvas 18 289 906 530 12;
#X obj 232 415 readsf~;
#X obj 200 341 list trim;
#X obj 200 320 list prepend open;
#X obj 194 214 list split 1;
#X obj 234 237 list split 2;
#X obj 4 264 list append 0;
#X obj 200 299 list append;
#X msg 200 387 1;
#X obj 194 193 text get sonInfo;
#X obj 200 362 t b a;
#X obj 392 5 inlet;
#X obj 232 489 outlet~;
#X obj 324 446 f;
#X obj 310 127 t f f;
#X obj 324 470 list append 0;
#X obj 478 319 delay;
#X obj 390 371 line~;
#X obj 232 461 *~;
#X msg 478 341 0 50;
#N canvas 141 164 509 619 calculFadeOut 0;
#X obj 20 136 text get sonInfo;
#X obj 20 210 list length;
#X obj 20 50 t f f;
#X obj 44 294 t b b;
#X obj 20 249 route 7 8 9;
#X obj 192 536 -;
#X obj 193 591 outlet;
#X obj 20 19 inlet;
#X obj 237 152 t f;
#X obj 20 366 f;
#X obj 143 358 f;
#X obj 300 390 f;
#X obj 386 390 f;
#X obj 20 188 list append;
#X obj 274 170 list split 1;
#X obj 313 199 route bang;
#N canvas 266 291 450 300 chercheLeSon 0;
#X obj 89 22 inlet;
#X obj 89 263 outlet;
#X obj 89 133 text search sonInfo;
#X msg 89 85 symbol sons/son\$1.wav;
#X connect 0 0 3 0;
#X connect 2 0 1 0;
#X connect 3 0 2 0;
#X restore 20 114 pd chercheLeSon;
#X obj 274 66 r \$1samplePos;
#N canvas 266 291 450 300 chercheLeSon 0;
#X obj 89 22 inlet;
#X obj 89 263 outlet;
#X obj 89 133 text search sonInfo;
#X msg 89 85 symbol sons/son\$1.wav;
#X connect 0 0 3 0;
#X connect 2 0 1 0;
#X connect 3 0 2 0;
#X restore 19 395 pd chercheLeSon;
#N canvas 266 291 450 300 chercheLeSon 0;
#X obj 89 22 inlet;
#X obj 89 263 outlet;
#X obj 89 133 text search sonInfo;
#X msg 89 85 symbol sons/son\$1.wav;
#X connect 0 0 3 0;
#X connect 2 0 1 0;
#X connect 3 0 2 0;
#X restore 143 381 pd chercheLeSon;
#X obj 193 570 - 50;
#X obj 19 421 text get sonInfo 1 2, f 11;
#X obj 143 404 text get sonInfo 1 2, f 11;
#X obj 19 461 /;
#X obj 19 485 * 1000;
#X obj 143 441 /;
#X obj 143 465 * 1000;
#X connect 0 0 13 0;
#X connect 1 0 4 0;
#X connect 2 0 16 0;
#X connect 2 1 8 0;
#X connect 3 0 10 0;
#X connect 3 1 11 0;
#X connect 4 0 9 0;
#X connect 4 1 3 0;
#X connect 4 2 12 0;
#X connect 5 0 20 0;
#X connect 7 0 2 0;
#X connect 8 0 9 1;
#X connect 8 0 10 1;
#X connect 9 0 18 0;
#X connect 10 0 19 0;
#X connect 11 0 5 1;
#X connect 12 0 20 0;
#X connect 13 0 1 0;
#X connect 14 0 11 1;
#X connect 14 1 15 0;
#X connect 15 1 12 1;
#X connect 16 0 0 0;
#X connect 17 0 13 1;
#X connect 17 0 14 0;
#X connect 18 0 21 0;
#X connect 19 0 22 0;
#X connect 20 0 6 0;
#X connect 21 0 23 0;
#X connect 22 0 25 0;
#X connect 23 0 24 0;
#X connect 24 0 20 0;
#X connect 25 0 26 0;
#X connect 26 0 5 0;
#X restore 510 296 pd calculFadeOut;
#X obj 563 193 list split 1;
#X obj 603 216 list split 1;
#X obj 365 101 t f b a;
#X obj 92 154 r \$0sonOffset;
#X obj 250 363 r \$0sonStop;
#X msg 250 387 0;
#X obj 643 239 list split 1;
#X obj 644 429 s \$0sonOffset;
#X obj 750 328 s \$0sonStop;
#X obj 750 283 t b a;
#X obj 750 306 delay;
#X obj 390 344 f;
#X obj 365 79 spigot;
#X msg 397 54 \$2;
#X msg 481 66 0;
#X obj 481 90 s \$0sonOffset;
#X obj 563 171 list append;
#X obj 683 261 route bang;
#X obj 637 149 r \$1samplePos;
#X obj 324 494 s \$1noteOff;
#N canvas 266 291 450 300 chercheLeSon 0;
#X obj 89 22 inlet;
#X obj 89 263 outlet;
#X obj 89 133 text search sonInfo;
#X msg 89 85 symbol sons/son\$1.wav;
#X connect 0 0 3 0;
#X connect 2 0 1 0;
#X connect 3 0 2 0;
#X restore 194 170 pd chercheLeSon;
#X obj 408 304 dbtorms;
#X obj 119 71 r \$1clear;
#X obj 119 99 s \$0sonStop;
#X obj 728 109 switch~;
#X msg 729 79 1;
#X obj 770 52 r \$0sonStop;
#X msg 771 77 0;
#X obj 468 113 s \$0sonNum;
#X obj 392 28 t a a f b;
#N canvas 665 389 450 341 msToSamples 0;
#X obj 89 22 inlet;
#X obj 89 272 outlet;
#X obj 177 140 text search sonInfo;
#X msg 177 116 symbol sons/son\$1.wav;
#X obj 195 29 r \$0sonNum;
#X obj 89 46 t f b;
#X obj 177 93 f;
#X obj 89 213 *;
#X obj 177 163 text get sonInfo 2;
#X obj 89 175 / 1000;
#X connect 0 0 5 0;
#X connect 2 0 8 0;
#X connect 3 0 2 0;
#X connect 4 0 6 1;
#X connect 5 0 9 0;
#X connect 5 1 6 0;
#X connect 6 0 3 0;
#X connect 7 0 1 0;
#X connect 8 0 7 1;
#X connect 9 0 7 0;
#X restore 644 407 pd msToSamples;
#X connect 0 0 17 0;
#X connect 0 1 12 0;
#X connect 1 0 9 0;
#X connect 2 0 1 0;
#X connect 3 0 5 0;
#X connect 3 1 4 0;
#X connect 4 1 6 1;
#X connect 5 0 6 0;
#X connect 6 0 2 0;
#X connect 7 0 0 0;
#X connect 8 0 3 0;
#X connect 9 0 7 0;
#X connect 9 1 0 0;
#X connect 10 0 49 0;
#X connect 12 0 14 0;
#X connect 13 0 40 0;
#X connect 13 1 12 1;
#X connect 14 0 39 0;
#X connect 15 0 18 0;
#X connect 16 0 17 1;
#X connect 17 0 11 0;
#X connect 18 0 16 0;
#X connect 19 0 15 1;
#X connect 20 0 19 0;
#X connect 20 1 21 0;
#X connect 21 0 41 0;
#X connect 21 1 26 0;
#X connect 22 0 13 0;
#X connect 22 1 15 0;
#X connect 22 1 31 0;
#X connect 22 2 36 0;
#X connect 23 0 5 1;
#X connect 24 0 25 0;
#X connect 25 0 0 0;
#X connect 26 0 50 0;
#X connect 26 1 37 0;
#X connect 29 0 30 0;
#X connect 29 1 30 1;
#X connect 30 0 28 0;
#X connect 31 0 16 0;
#X connect 32 0 22 0;
#X connect 33 0 32 1;
#X connect 34 0 35 0;
#X connect 36 0 20 0;
#X connect 37 1 29 0;
#X connect 38 0 36 1;
#X connect 40 0 8 0;
#X connect 41 0 31 1;
#X connect 42 0 43 0;
#X connect 45 0 44 0;
#X connect 46 0 47 0;
#X connect 47 0 44 0;
#X connect 49 0 32 0;
#X connect 49 1 33 0;
#X connect 49 2 48 0;
#X connect 49 3 45 0;
#X connect 49 3 34 0;
#X connect 50 0 27 0;
