#N canvas 200 53 469 776 12;
#X msg 118 684 disconnect;
#X obj 29 732 netsend -u -b;
#X obj 114 639 oscformat composition;
#X msg 120 706 connect localhost 4000;
#X obj 195 520 hradio 15 1 0 15 empty empty empty 0 -8 0 10 #fcfcfc #000000 #000000 0;
#X obj 195 539 list append 100;
#X obj 194 564 hradio 16 1 0 15 empty empty empty 0 -8 0 10 #fcfcfc #000000 #000000 0;
#X obj 122 434 hradio 15 1 0 15 empty empty empty 0 -8 0 10 #fcfcfc #000000 #000000 0;
#X obj 103 389 hradio 15 1 0 15 empty empty empty 0 -8 0 10 #fcfcfc #000000 #000000 0;
#X floatatom 21 5 3 0 127 0 - - - 0;
#X obj 28 763 tgl 15 0 empty empty empty 17 7 0 10 #fcfcfc #000000 #000000 0 1;
#X obj 103 409 pack 0 100 0 30000;
#X obj 122 454 pack 0 100 20000;
#X msg 128 517 0 100;
#X msg 124 493 0 25;
#X msg 131 540 0 50;
#X obj 39 109 hradio 15 1 1 3 empty empty empty 0 -8 0 10 #fcfcfc #000000 #000000 1;
#X text 93 94 0 = no quantize \, 1 = trig on bar (default) \, 2 = trig on step, f 34;
#X obj 60 591 oscformat play;
#X msg 117 662 connect 192.168.1.28 4000;
#X obj 20 27 oscformat level;
#X obj 29 75 oscformat poly;
#X obj 39 128 oscformat quantize;
#X text 246 409 sample length (ms);
#X text 246 454 sample offset (ms);
#X floatatom 30 51 5 1 16 0 - - - 0;
#X text 81 51 entre 1 et 16;
#X obj 85 362 oscformat stop;
#X obj 86 315 hradio 15 1 0 15 empty empty empty 0 -8 0 10 #fcfcfc #000000 #000000 0;
#X obj 86 336 pack f 100;
#X floatatom 168 337 5 0 0 0 - - - 0;
#X text 210 339 fade out;
#X obj 113 618 hradio 15 1 0 15 empty empty empty 0 -8 0 10 #fcfcfc #000000 #000000 0;
#X obj 76 289 oscformat loop;
#X obj 76 269 hradio 15 1 0 15 empty empty empty 0 -8 0 10 #fcfcfc #000000 #000000 0;
#X obj 130 158 hradio 15 1 0 15 empty empty empty 0 -8 0 10 #fcfcfc #000000 #000000 0;
#X text 177 128 sur skini link seulement;
#X obj 52 248 oscformat attenuation;
#X obj 53 182 pack;
#X obj 53 206 swap;
#X obj 53 156 nbx 5 17 0 127 0 1 empty empty empty 0 -10 0 12 #fcfcfc #000000 #000000 100 256;
#X obj 52 227 pack;
#X text 105 203 pour régler le volume en cours;
#X connect 0 0 1 0;
#X connect 1 0 10 0;
#X connect 2 0 1 0;
#X connect 3 0 1 0;
#X connect 4 0 5 0;
#X connect 5 0 18 0;
#X connect 6 0 18 0;
#X connect 7 0 12 0;
#X connect 8 0 11 0;
#X connect 9 0 20 0;
#X connect 11 0 18 0;
#X connect 12 0 18 0;
#X connect 13 0 18 0;
#X connect 14 0 18 0;
#X connect 15 0 18 0;
#X connect 16 0 22 0;
#X connect 18 0 1 0;
#X connect 19 0 1 0;
#X connect 20 0 1 0;
#X connect 21 0 1 0;
#X connect 22 0 1 0;
#X connect 25 0 21 0;
#X connect 27 0 1 0;
#X connect 28 0 29 0;
#X connect 29 0 27 0;
#X connect 30 0 29 1;
#X connect 32 0 2 0;
#X connect 33 0 1 0;
#X connect 34 0 33 0;
#X connect 35 0 38 1;
#X connect 37 0 1 0;
#X connect 38 0 39 0;
#X connect 39 0 41 0;
#X connect 39 1 41 1;
#X connect 40 0 38 0;
#X connect 41 0 37 0;
