#N canvas 661 89 685 688 12;
#X msg 37 70 connect \$1;
#X floatatom 179 310 5 0 0 0 - - - 0;
#X floatatom 231 311 5 0 0 0 - - - 0;
#X msg 143 71 offset \$1;
#X floatatom 142 27 5 0 0 0 - - - 0;
#X obj 27 653 outlet;
#X obj 179 339 outlet;
#X obj 38 9 loadbang;
#X obj 39 43 tgl 15 0 empty empty empty 17 7 0 10 #fcfcfc #000000 #000000 0 1;
#X obj 10 9 bng 15 250 50 0 empty empty empty 17 7 0 10 #fcfcfc #000000 #000000;
#X text 388 4 Detecte le passage à Zéro de la phase;
#N canvas 608 142 430 385 filterEvent 0;
#X obj 77 20 inlet;
#X obj 78 262 outlet;
#X obj 78 173 sel 0;
#X obj 78 118 demux 0 1;
#X obj 141 69 r \$1quantize;
#X obj 141 93 > 1;
#X obj 138 171 b;
#X connect 0 0 3 0;
#X connect 2 0 1 0;
#X connect 3 0 2 0;
#X connect 3 1 6 0;
#X connect 4 0 5 0;
#X connect 5 0 3 1;
#X connect 6 0 1 0;
#X restore 390 98 pd filterEvent;
#X obj 547 353 outlet;
#X obj 546 321 unpack 0 0 0;
#X floatatom 77 143 5 0 0 0 - - - 0;
#X floatatom 133 140 5 0 0 0 - - - 0;
#X floatatom 189 143 5 0 0 0 - - - 0;
#X obj 231 381 send \$0offset;
#X obj 191 26 receive \$0offset;
#X obj 37 168 send \$0pulse;
#X obj 390 27 receive \$0pulse;
#X text 434 360 ?;
#X obj 334 327 send \$1poly;
#X obj 429 520 text define \$0eventBuffer;
#X obj 380 604 demux 0 1;
#N canvas 150 175 450 300 bufferize 0;
#X obj 134 22 inlet;
#X obj 134 111 text set \$0eventBuffer;
#X obj 134 46 t a b;
#X msg 173 76 1e+15;
#X obj 248 228 text delete \$0eventBuffer;
#X msg 248 195 -1;
#X obj 248 171 r \$1clear;
#X connect 0 0 2 0;
#X connect 2 0 1 0;
#X connect 2 1 3 0;
#X connect 3 0 1 1;
#X connect 5 0 4 0;
#X connect 6 0 5 0;
#X restore 440 630 pd bufferize;
#X obj 186 450 text size \$0eventBuffer;
#X obj 186 474 > 0;
#X obj 186 498 sel 1;
#X obj 226 557 bng 15 250 50 0 empty empty empty 17 7 0 10 #fcfcfc #000000 #000000;
#N canvas 237 262 450 300 FIFO 0;
#X obj 94 18 inlet;
#X obj 156 153 text delete \$0eventBuffer;
#X obj 125 208 outlet;
#X obj 125 184 text get \$0eventBuffer;
#X obj 94 78 t f f;
#X msg 94 50 0;
#X connect 0 0 5 0;
#X connect 3 0 2 0;
#X connect 4 0 1 0;
#X connect 4 1 3 0;
#X connect 5 0 4 0;
#X restore 186 584 pd FIFO;
#X obj 440 559 r \$1quantize;
#X obj 509 381 send \$1quantize;
#X obj 440 583 > 0;
#X obj 390 155 s \$0trigEvent;
#X obj 186 426 receive \$0trigEvent;
#X obj 282 350 s \$1clear;
#X obj 128 274 route play level offset clear poly quantize startDSP;
#X obj 128 247 r OSC_for_composition;
#X obj 37 103 list prepend abl_link~;
#X text 53 199 ableton link utilise trop de bande passante \, on l'a donc désactivé;
#X text 389 481 le buffer FIFO a besoin d'une commande OSC pour l'activation...;
#X connect 0 0 39 0;
#X connect 1 0 6 0;
#X connect 2 0 17 0;
#X connect 3 0 39 0;
#X connect 4 0 3 0;
#X connect 7 0 8 0;
#X connect 8 0 0 0;
#X connect 9 0 8 0;
#X connect 11 0 34 0;
#X connect 13 0 12 0;
#X connect 18 0 3 0;
#X connect 20 0 11 0;
#X connect 24 0 5 0;
#X connect 24 1 25 0;
#X connect 26 0 27 0;
#X connect 27 0 28 0;
#X connect 28 0 29 0;
#X connect 28 0 30 0;
#X connect 30 0 5 0;
#X connect 31 0 33 0;
#X connect 33 0 24 1;
#X connect 35 0 26 0;
#X connect 37 0 5 0;
#X connect 37 1 1 0;
#X connect 37 2 2 0;
#X connect 37 3 36 0;
#X connect 37 4 22 0;
#X connect 37 5 32 0;
#X connect 37 6 13 0;
#X connect 38 0 37 0;
#X connect 39 0 14 0;
#X connect 39 0 19 0;
