#N canvas 231 335 450 479 12;
#X obj 213 110 timer;
#X obj 122 87 sel 0;
#X obj 153 233 f;
#X obj 153 257 > 500;
#X obj 153 280 sel 1;
#X obj 122 56 t a b b f;
#X obj 194 313 f;
#X obj 28 265 spigot;
#X obj 68 218 timer;
#X obj 153 111 t b b b;
#X obj 68 154 t b b;
#X obj 68 132 del 250;
#X obj 67 241 > 250;
#X obj 270 63 loadbang;
#X obj 270 111 sel 0;
#X obj 270 87 \$1;
#X obj 303 134 t a a;
#X obj 335 185 * 2;
#X obj 41 380 outlet;
#X msg 28 289 0;
#X obj 122 9 inlet velocity;
#X connect 0 0 2 1;
#X connect 1 0 11 0;
#X connect 1 1 9 0;
#X connect 2 0 3 0;
#X connect 3 0 4 0;
#X connect 4 0 6 0;
#X connect 5 0 1 0;
#X connect 5 1 0 0;
#X connect 5 2 0 1;
#X connect 5 3 6 1;
#X connect 6 0 18 0;
#X connect 7 0 19 0;
#X connect 8 0 12 0;
#X connect 9 0 2 0;
#X connect 9 1 8 0;
#X connect 10 0 7 0;
#X connect 10 1 8 1;
#X connect 11 0 10 0;
#X connect 12 0 7 1;
#X connect 13 0 15 0;
#X connect 14 1 16 0;
#X connect 15 0 14 0;
#X connect 16 0 12 1;
#X connect 16 1 17 0;
#X connect 17 0 3 1;
#X connect 19 0 18 0;
#X connect 20 0 5 0;
