#N canvas 92 117 546 372 12;
#X obj 33 21 inlet;
#X obj 28 209 route 60;
#X obj 33 45 t a b;
#X obj 94 209 route 61;
#X obj 157 209 route 62;
#X obj 223 209 route 63;
#X obj 287 209 route 64;
#X obj 350 209 route 65;
#X obj 416 209 route 66;
#X obj 249 139 pdcontrol;
#X msg 250 116 args 0;
#X obj 249 163 unpack 60 61 62 63 64 65 66;
#X msg 157 294 ne \$1;
#X msg 223 294 c \$1;
#X msg 287 294 s \$1;
#X msg 350 294 no \$1;
#X msg 416 293 n \$1;
#X obj 217 346 outlet;
#X msg 94 293 se \$1;
#X msg 28 293 so \$1;
#X connect 0 0 2 0;
#X connect 1 0 19 0;
#X connect 1 1 3 0;
#X connect 2 0 1 0;
#X connect 2 1 10 0;
#X connect 3 0 18 0;
#X connect 3 1 4 0;
#X connect 4 0 12 0;
#X connect 4 1 5 0;
#X connect 5 0 13 0;
#X connect 5 1 6 0;
#X connect 6 0 14 0;
#X connect 6 1 7 0;
#X connect 7 0 15 0;
#X connect 7 1 8 0;
#X connect 8 0 16 0;
#X connect 9 0 11 0;
#X connect 10 0 9 0;
#X connect 11 0 1 1;
#X connect 11 1 3 1;
#X connect 11 2 4 1;
#X connect 11 3 5 1;
#X connect 11 4 6 1;
#X connect 11 5 7 1;
#X connect 11 6 8 1;
#X connect 12 0 17 0;
#X connect 13 0 17 0;
#X connect 14 0 17 0;
#X connect 15 0 17 0;
#X connect 16 0 17 0;
#X connect 18 0 17 0;
#X connect 19 0 17 0;
