#N canvas 680 53 593 740 12;
#N canvas 150 175 450 300 notein 0;
#X obj 47 230 outlet;
#X obj 47 20 notein;
#X obj 47 48 pack;
#X obj 47 104 list prepend;
#X obj 47 128 list trim;
#X obj 47 189 route 1;
#X obj 167 103 loadbang;
#X obj 167 125 \$1;
#X obj 167 149 route 0;
#X text 114 191 default midi channel is 1;
#X text 172 77 first argument is MIDI channel;
#X connect 1 0 2 0;
#X connect 1 1 2 1;
#X connect 1 2 3 1;
#X connect 2 0 3 0;
#X connect 3 0 4 0;
#X connect 4 0 5 0;
#X connect 5 0 0 0;
#X connect 6 0 7 0;
#X connect 7 0 8 0;
#X connect 8 1 5 1;
#X restore 17 10 pd notein;
#X obj 171 91 sel 0;
#X obj 18 207 spigot 1;
#X msg 91 219 0;
#X obj 242 286 pack f 0;
#X obj 217 309 list;
#X obj 131 69 list split 1;
#X obj 171 213 list;
#X obj 17 33 t l l l;
#X obj 171 137 t b b b;
#X obj 18 246 t a f b;
#X msg 72 183 1;
#X obj 18 382 swap;
#X obj 18 359 t a;
#X obj 18 423 change;
#X obj 229 643 swap;
#X obj 229 687 pack;
#X obj 171 115 delay 100;
#X obj 230 12 loadbang;
#X obj 230 60 sel 0;
#X obj 230 36 \$2;
#X obj 229 709 outlet;
#X obj 41 520 timer;
#X obj 18 449 sel 0;
#X obj 19 568 spigot;
#X obj 18 493 t b b b;
#X msg 19 591 0;
#X obj 150 398 loadbang;
#X obj 150 446 sel 0;
#X obj 150 422 \$2;
#X obj 41 544 > 100;
#X text 242 189 le premier filtrage force le monotouch;
#X text 213 504 le second filtrage empêche le rebond;
#X connect 0 0 8 0;
#X connect 1 0 17 0;
#X connect 2 0 10 0;
#X connect 3 0 2 1;
#X connect 4 0 5 1;
#X connect 5 0 13 0;
#X connect 6 1 1 0;
#X connect 7 0 13 0;
#X connect 8 0 2 0;
#X connect 8 1 6 0;
#X connect 8 2 7 1;
#X connect 9 0 7 0;
#X connect 9 1 11 0;
#X connect 9 2 5 0;
#X connect 10 0 13 0;
#X connect 10 1 4 0;
#X connect 10 2 3 0;
#X connect 11 0 2 1;
#X connect 12 0 14 0;
#X connect 12 1 15 1;
#X connect 13 0 12 0;
#X connect 14 0 23 0;
#X connect 15 0 16 0;
#X connect 15 1 16 1;
#X connect 16 0 21 0;
#X connect 17 0 9 0;
#X connect 18 0 20 0;
#X connect 19 1 17 1;
#X connect 20 0 19 0;
#X connect 22 0 30 0;
#X connect 23 0 25 0;
#X connect 23 1 15 0;
#X connect 24 0 26 0;
#X connect 25 0 24 0;
#X connect 25 1 22 0;
#X connect 25 2 22 1;
#X connect 26 0 15 0;
#X connect 27 0 29 0;
#X connect 28 1 30 1;
#X connect 29 0 28 0;
#X connect 30 0 24 1;
