#N canvas 639 182 628 643 12;
#X obj 18 14 loadbang;
#X text 93 95 On doit fournir le chemin où se trouve le patch pour récupérer son fichier de configuration., f 34;
#X obj 18 218 noteout;
#X msg 18 195 60 64;
#X text 63 197 calibrage;
#X msg 64 388 66 0;
#N canvas 150 175 450 300 setMessage 0;
#X obj 102 40 inlet;
#X obj 100 76 list prepend set;
#X obj 100 100 list trim;
#X obj 100 124 outlet;
#X connect 0 0 1 0;
#X connect 1 0 2 0;
#X connect 2 0 3 0;
#X restore 64 366 pd setMessage;
#X text 18 315 filtrage: qtouch <canal MIDI \, defaut=1> <temps antirebond(ms) defaut=100>, f 74;
#X obj 366 453 print QTOUCH;
#X obj 366 383 r qtouch;
#X obj 19 342 incredis/qtouch 1 250;
#X obj 366 427 spigot;
#X text 192 343 durée entre noteOn et noteOff = 2 x antirebond;
#N canvas 78 71 483 490 note2zone 1;
#X obj 18 95 incredis/note2hexagone 60 61 62 63 64 65 66;
#X text 48 31 Change les 7 notes MIDI en argument vers des positions sur l'hexagone. Par exemple la note 63 est au centre donc ça devient 'c' \, la note 60 devient 'so' car elle est au sud ouest.;
#X msg 46 145 s 0;
#N canvas 150 175 450 300 setMessage 0;
#X obj 102 40 inlet;
#X obj 100 76 list prepend set;
#X obj 100 100 list trim;
#X obj 100 124 outlet;
#X connect 0 0 1 0;
#X connect 1 0 2 0;
#X connect 2 0 3 0;
#X restore 46 123 pd setMessage;
#X obj 18 216 t a a;
#X text 72 215 on envoie la position dans un message global;
#X obj 50 238 s qtouch;
#X obj 18 375 s qtouch;
#X text 43 327 hexagone2multizone <antirebond entre les zones(ms)>;
#X obj 18 348 incredis/hexagone2multizone 300;
#X obj 18 10 inlet;
#N canvas 150 175 449 391 padOnOff 0;
#X obj 19 14 inlet;
#X obj 26 337 outlet;
#X obj 154 8 r padOnOff;
#X obj 19 128 route c n s ne no se so;
#X obj 240 132 route c n s ne no se so;
#X obj 23 196 spigot;
#X obj 74 195 spigot;
#X obj 126 196 spigot;
#X obj 177 195 spigot;
#X obj 229 196 spigot;
#X obj 281 197 spigot;
#X obj 332 196 spigot;
#X msg 23 219 c \$1;
#X msg 74 218 n \$1;
#X msg 126 219 s \$1;
#X msg 177 218 ne \$1;
#X msg 229 219 no \$1;
#X msg 281 220 se \$1;
#X msg 332 219 so \$1;
#X obj 240 59 list;
#X obj 240 83 s2l;
#X obj 240 107 list trim;
#X obj 154 30 t b a;
#X obj 154 76 s panic;
#X connect 0 0 3 0;
#X connect 2 0 22 0;
#X connect 3 0 5 0;
#X connect 3 1 6 0;
#X connect 3 2 7 0;
#X connect 3 3 8 0;
#X connect 3 4 9 0;
#X connect 3 5 10 0;
#X connect 3 6 11 0;
#X connect 4 0 5 1;
#X connect 4 1 6 1;
#X connect 4 2 7 1;
#X connect 4 3 8 1;
#X connect 4 4 9 1;
#X connect 4 5 10 1;
#X connect 4 6 11 1;
#X connect 5 0 12 0;
#X connect 6 0 13 0;
#X connect 7 0 14 0;
#X connect 8 0 15 0;
#X connect 9 0 16 0;
#X connect 10 0 17 0;
#X connect 11 0 18 0;
#X connect 12 0 1 0;
#X connect 13 0 1 0;
#X connect 14 0 1 0;
#X connect 15 0 1 0;
#X connect 16 0 1 0;
#X connect 17 0 1 0;
#X connect 18 0 1 0;
#X connect 19 0 20 0;
#X connect 20 0 21 0;
#X connect 21 0 4 0;
#X connect 22 0 23 0;
#X connect 22 1 19 0;
#X restore 18 188 pd padOnOff;
#X connect 0 0 3 0;
#X connect 0 0 11 0;
#X connect 3 0 2 0;
#X connect 4 0 9 0;
#X connect 4 1 6 0;
#X connect 9 0 7 0;
#X connect 10 0 0 0;
#X connect 11 0 4 0;
#X restore 19 491 pd note2zone;
#X obj 18 39 t b b;
#X obj 50 65 s callback;
#X text 132 64 On récupère les info de la machine.;
#X text 42 437 Transforme la note en zone \, entrer dans le sous-patch pour plus de détails, f 27;
#X text 23 538 logique:;
#N canvas 92 117 450 300 logique 0;
#X restore 125 538 pd logique;
#X text 17 575 instruments:;
#N canvas 121 146 295 367 samplers 1;
#X obj 44 51 sampler sampler1;
#X obj 43 75 sampler sampler2;
#X obj 43 100 sampler sampler3;
#X obj 42 124 sampler sampler4;
#X obj 43 150 sampler sampler5;
#X obj 43 175 sampler sampler6;
#X obj 42 199 sampler sampler7;
#X restore 166 574 pd samplers;
#N canvas 67 431 613 296 globalSettings 0;
#X obj 37 37 r globalSettings;
#X obj 37 59 json-decode;
#X obj 74 105 route maxPlayTime;
#X obj 74 129 symbol;
#X obj 74 153 float;
#X obj 74 177 s maxPlayTime;
#X obj 74 83 list trim;
#X obj 190 225 s midiDevices;
#X obj 192 188 list prepend in;
#X obj 307 188 list prepend out;
#X obj 37 240 outlet;
#X obj 190 131 route midiDeviceIn midiDeviceOut;
#X obj 464 171 route volume;
#X obj 464 196 s \$0volume;
#X connect 0 0 1 0;
#X connect 1 0 10 0;
#X connect 1 1 6 0;
#X connect 2 0 3 0;
#X connect 2 1 11 0;
#X connect 3 0 4 0;
#X connect 4 0 5 0;
#X connect 6 0 2 0;
#X connect 8 0 7 0;
#X connect 9 0 7 0;
#X connect 11 0 8 0;
#X connect 11 1 9 0;
#X connect 11 2 12 0;
#X connect 12 0 13 0;
#X restore 17 244 pd globalSettings;
#X msg 17 269 \; cue 0;
#N canvas 430 117 601 341 aconnect 0;
#X obj 234 236 shell;
#X msg 249 133 aconnect -i;
#X msg 233 106 aconnect 128:1 20;
#X msg 110 157 aconnect 20 128;
#X obj 110 17 loadbang;
#X obj 110 72 t b b;
#X obj 110 40 delay 1000;
#X obj 110 117 delay 1000;
#X connect 1 0 0 0;
#X connect 2 0 0 0;
#X connect 3 0 0 0;
#X connect 4 0 6 0;
#X connect 5 0 7 0;
#X connect 5 1 2 0;
#X connect 6 0 5 0;
#X connect 7 0 3 0;
#X restore 412 25 pd aconnect;
#X obj 489 572 *~;
#X obj 489 597 throw~ L_out;
#X obj 490 385 catch~ qtouch_out;
#N canvas 385 484 450 300 getVolume 0;
#X obj 174 235 outlet;
#X obj 174 207 f;
#X obj 174 161 symbol;
#X obj 174 114 r \$0volume;
#X connect 1 0 0 0;
#X connect 2 0 1 0;
#X connect 3 0 2 0;
#X restore 507 412 pd getVolume;
#X obj 507 498 dbtorms;
#X obj 18 119 getdir;
#X obj 444 383 tgl 20 0 empty empty empty 0 -10 0 12 #fcfcfc #000000 #000000 0 1;
#X obj 87 16 bng 20 250 50 0 empty empty empty 0 -10 0 12 #fcfcfc #000000 #000000;
#N canvas 28 439 545 293 OSC 1;
#X obj 22 11 r OSC_for_composition;
#X obj 22 234 s \$0fader;
#X obj 314 258 s sendOSC;
#X obj 314 43 r \$0fader-s;
#X obj 314 186 list prepend;
#X obj 395 151 r module_number;
#X msg 314 233 fader \$1 \$2;
#X obj 81 134 s padOnOff;
#X obj 22 61 route fader padOnOff panic;
#X obj 141 106 s panic;
#X connect 0 0 8 0;
#X connect 4 0 6 0;
#X connect 5 0 4 1;
#X connect 6 0 2 0;
#X connect 8 0 1 0;
#X connect 8 1 7 0;
#X connect 8 2 9 0;
#X restore 175 598 pd OSC;
#X obj 507 547 line~;
#X obj 507 522 pack f 50;
#X obj 519 468 r \$0fader;
#X obj 519 444 s \$0fader-s;
#N canvas 43 370 450 300 calibrate 0;
#X obj 54 245 outlet;
#X obj 54 44 r OSC_for_composition;
#X obj 54 94 route calibrateAll;
#X connect 1 0 2 0;
#X connect 2 0 0 0;
#X restore 33 169 pd calibrate;
#X obj 458 98 r computer_number;
#X obj 458 123 t a b;
#X msg 490 147 symbol _;
#X obj 458 211 list split 1;
#X obj 458 186 s2l;
#X obj 498 249 s module_number;
#X obj 18 144 init_track;
#N canvas 92 117 450 300 solo 0;
#X obj 10 9 text define solo-list;
#X obj 224 10 loadbang;
#X msg 302 107 1e+15;
#X obj 224 144 text set solo-list;
#X msg 224 34 c \, n \, ne \, se \, s \, so \, no;
#X obj 224 81 t a b;
#X obj 224 58 symbol;
#X msg 224 107 list \$1 0;
#X connect 1 0 4 0;
#X connect 2 0 3 1;
#X connect 4 0 6 0;
#X connect 5 0 7 0;
#X connect 5 1 2 0;
#X connect 6 0 5 0;
#X connect 7 0 3 0;
#X restore 318 513 pd solo;
#X connect 0 0 14 0;
#X connect 3 0 2 0;
#X connect 6 0 5 0;
#X connect 9 0 11 0;
#X connect 10 0 6 0;
#X connect 10 0 13 0;
#X connect 11 0 8 0;
#X connect 14 0 30 0;
#X connect 14 1 15 0;
#X connect 22 0 23 0;
#X connect 25 0 26 0;
#X connect 27 0 25 0;
#X connect 28 0 29 0;
#X connect 28 0 37 0;
#X connect 29 0 35 0;
#X connect 30 0 45 0;
#X connect 31 0 11 1;
#X connect 32 0 14 0;
#X connect 34 0 25 1;
#X connect 35 0 34 0;
#X connect 36 0 29 0;
#X connect 38 0 3 0;
#X connect 39 0 40 0;
#X connect 40 0 43 0;
#X connect 40 1 41 0;
#X connect 41 0 43 1;
#X connect 42 1 44 0;
#X connect 43 0 42 0;
#X connect 45 0 3 0;
