#N canvas 176 96 524 626 12;
#X obj 266 340 readsf~;
#X obj 368 20 r track_param;
#X obj 368 44 route \$1;
#X obj 368 68 s \$0param;
#X obj 139 130 sel 0;
#X obj 265 246 list;
#X msg 139 197 0;
#X obj 171 153 b, f 2;
#N canvas 681 287 450 300 getSound 0;
#X obj 165 82 r \$0param;
#X obj 165 106 route son;
#X obj 165 130 symbol;
#X obj 165 246 outlet;
#X obj 246 131 r cue_name;
#X obj 165 175 list prepend;
#X msg 165 222 symbol sons/\$1/\$2;
#X connect 0 0 1 0;
#X connect 1 0 2 0;
#X connect 2 0 5 0;
#X connect 4 0 5 1;
#X connect 5 0 6 0;
#X connect 6 0 3 0;
#X restore 290 198 pd getSound;
#N canvas 722 357 450 300 playSound 0;
#X obj 170 113 list trim;
#X obj 170 89 list prepend open;
#X msg 170 180 1;
#X obj 170 137 t b a;
#X obj 168 61 inlet;
#X obj 202 223 outlet;
#X connect 0 0 3 0;
#X connect 1 0 0 0;
#X connect 2 0 5 0;
#X connect 3 0 2 0;
#X connect 3 1 5 0;
#X connect 4 0 1 0;
#X restore 266 268 pd playSound;
#N canvas 652 272 588 405 soundParam 0;
#X obj 196 116 soundfiler;
#X obj 276 116 table \$0dummy;
#X obj 196 65 list append \$0;
#X obj 263 140 list split 1;
#X msg 196 90 read -resize \$1 \$2dummy;
#X obj 303 263 list prepend 0;
#X obj 131 6 inlet;
#X obj 80 359 outlet;
#X obj 131 30 t a a;
#X obj 80 304 list prepend;
#N canvas 385 484 450 300 getOnSet 0;
#X obj 174 114 r \$0param;
#X obj 174 235 outlet;
#X obj 174 207 f;
#X obj 174 161 symbol;
#X obj 174 138 route onset;
#X connect 0 0 4 0;
#X connect 2 0 1 0;
#X connect 3 0 2 0;
#X connect 4 0 3 0;
#X restore 397 160 pd getOnSet;
#X obj 338 187 / 1000;
#X obj 398 240 *;
#X obj 397 188 t b a;
#X obj 397 217 pack;
#X connect 0 1 3 0;
#X connect 2 0 4 0;
#X connect 3 0 11 0;
#X connect 3 1 5 0;
#X connect 4 0 0 0;
#X connect 5 0 9 0;
#X connect 6 0 8 0;
#X connect 8 0 2 0;
#X connect 8 1 9 1;
#X connect 9 0 7 0;
#X connect 10 0 13 0;
#X connect 11 0 14 0;
#X connect 12 0 5 1;
#X connect 13 0 14 0;
#X connect 13 1 14 1;
#X connect 14 0 12 0;
#X restore 290 220 pd soundParam;
#X obj 365 389 spigot;
#N canvas 734 349 450 300 getLoopMode 0;
#X obj 174 114 r \$0param;
#X obj 174 138 route loop;
#X obj 174 162 symbol;
#X obj 174 208 outlet;
#X obj 174 184 f;
#X connect 0 0 1 0;
#X connect 1 0 2 0;
#X connect 2 0 4 0;
#X connect 4 0 3 0;
#X restore 404 367 pd getLoopMode;
#N canvas 27 435 499 409 getTrigger 0;
#X obj 104 24 r qtouch;
#X obj 104 81 route symbol;
#X obj 104 285 outlet;
#X obj 232 336 s sendOSC;
#X obj 232 260 list;
#X msg 232 314 pad \$1 \$2;
#X obj 232 292 list prepend;
#X obj 313 270 r module_number;
#X obj 104 105 t a a;
#X obj 136 128 sel 0;
#X obj 169 152 b;
#X msg 137 241 symbol -;
#X obj 231 195 delay 10000;
#X obj 305 173 r maxPlayTime;
#X obj 24 182 r panic;
#X obj 299 108 s \$0trigger;
#X obj 257 236 r \$0trigger;
#X obj 299 7 r \$0param;
#X obj 299 31 route trigger;
#X obj 299 55 symbol;
#X obj 185 59 r \$0trigger;
#N canvas 757 154 427 249 padOnOff 0;
#X obj 173 32 r padOnOff;
#X obj 173 56 list;
#X obj 173 80 s2l;
#X obj 173 104 list trim;
#X obj 173 149 route symbol;
#X obj 254 104 r \$0trigger;
#X obj 173 173 sel 0;
#X obj 173 217 outlet;
#X msg 173 195 0;
#X connect 0 0 1 0;
#X connect 1 0 2 0;
#X connect 2 0 3 0;
#X connect 3 0 4 0;
#X connect 4 0 6 0;
#X connect 5 0 4 1;
#X connect 6 0 8 0;
#X connect 8 0 7 0;
#X restore 14 60 pd padOnOff;
#X obj 413 28 r init_cue;
#X msg 413 53 symbol;
#X connect 0 0 1 0;
#X connect 1 0 8 0;
#X connect 4 0 6 0;
#X connect 5 0 3 0;
#X connect 6 0 5 0;
#X connect 7 0 6 1;
#X connect 8 0 2 0;
#X connect 8 1 9 0;
#X connect 9 0 11 0;
#X connect 9 1 10 0;
#X connect 10 0 4 0;
#X connect 10 0 12 0;
#X connect 11 0 6 0;
#X connect 12 0 11 0;
#X connect 13 0 12 1;
#X connect 14 0 11 0;
#X connect 16 0 4 1;
#X connect 17 0 18 0;
#X connect 18 0 19 0;
#X connect 19 0 15 0;
#X connect 20 0 1 1;
#X connect 22 0 23 0;
#X connect 23 0 15 0;
#X restore 139 30 pd getTrigger;
#X obj 20 350 line~;
#X msg 20 221 0 \$1;
#N canvas 385 484 450 300 getFadeOut 0;
#X obj 174 114 r \$0param;
#X obj 174 235 outlet;
#X obj 174 138 route fadeOut;
#X obj 174 207 f;
#X obj 174 161 symbol;
#X connect 0 0 2 0;
#X connect 2 0 4 0;
#X connect 3 0 1 0;
#X connect 4 0 3 0;
#X restore 369 95 pd getFadeOut;
#X obj 248 407 *~;
#X obj 140 305 pipe;
#X obj 20 199 f;
#N canvas 385 484 450 300 getGain 0;
#X obj 174 114 r \$0param;
#X obj 174 235 outlet;
#X obj 174 207 f;
#X obj 174 161 symbol;
#X obj 174 138 route gain;
#X connect 0 0 4 0;
#X connect 2 0 1 0;
#X connect 3 0 2 0;
#X connect 4 0 3 0;
#X restore 278 392 pd getGain;
#X obj 248 442 *~;
#X obj 278 415 dbtorms;
#N canvas 150 175 450 408 maxPlayTime 0;
#X obj 255 148 r maxPlayTime;
#X obj 158 152 metro 100;
#X obj 53 6 inlet;
#X msg 158 129 1;
#X obj 126 207 timer;
#X obj 126 276 sel 1;
#X obj 53 337 outlet;
#X obj 53 99 t b b;
#X obj 53 307 t b b;
#X msg 118 130 0;
#X obj 126 300 bng 19 250 50 0 empty empty empty 0 -10 0 12 #fcfcfc #000000 #000000;
#X obj 53 31 > 0;
#X obj 53 55 sel 1;
#X obj 126 252 > 10000;
#X obj 323 181 -;
#X obj 357 149 r \$0fadeOut;
#X connect 0 0 14 0;
#X connect 1 0 4 1;
#X connect 2 0 11 0;
#X connect 3 0 1 0;
#X connect 4 0 13 0;
#X connect 5 0 8 0;
#X connect 5 0 10 0;
#X connect 7 0 3 0;
#X connect 7 1 4 0;
#X connect 8 0 6 0;
#X connect 8 1 9 0;
#X connect 9 0 1 0;
#X connect 11 0 12 0;
#X connect 12 0 7 0;
#X connect 12 1 9 0;
#X connect 13 0 5 0;
#X connect 14 0 13 1;
#X connect 15 0 14 1;
#X restore 183 64 pd maxPlayTime;
#X obj 171 176 s \$0play;
#X obj 265 170 r \$0play;
#X msg 183 100 0;
#X obj 248 583 throw~ qtouch_out;
#X obj 266 366 hip~ 5;
#X obj 369 117 s \$0fadeOut;
#X obj 166 282 r \$0fadeOut;
#X msg 152 259 clear;
#X obj 248 561 *~;
#X obj 265 540 line~;
#X msg 265 517 \$1 50;
#X obj 265 467 loadbang;
#X msg 265 491 1;
#X obj 295 66 r panic;
#N canvas 385 484 450 300 getFadeIn 0;
#X obj 174 114 r \$0param;
#X obj 174 235 outlet;
#X obj 174 207 f;
#X obj 174 161 symbol;
#X obj 174 138 route fadeIn;
#X connect 0 0 4 0;
#X connect 2 0 1 0;
#X connect 3 0 2 0;
#X connect 4 0 3 0;
#X restore 368 140 pd getFadeIn;
#X obj 368 162 s \$0fadeIn;
#X obj 38 102 r \$0fadeOut;
#X obj 152 235 r \$0play;
#X obj 35 253 r \$0play;
#X msg 35 319 1 \$1;
#X obj 35 296 f;
#X obj 53 275 r \$0fadeIn;
#X connect 0 0 28 0;
#X connect 0 1 11 0;
#X connect 1 0 2 0;
#X connect 2 0 3 0;
#X connect 4 0 6 0;
#X connect 4 0 19 0;
#X connect 4 1 7 0;
#X connect 5 0 9 0;
#X connect 6 0 18 0;
#X connect 7 0 24 0;
#X connect 8 0 10 0;
#X connect 9 0 0 0;
#X connect 10 0 5 1;
#X connect 11 0 5 0;
#X connect 11 0 44 0;
#X connect 12 0 11 1;
#X connect 13 0 4 0;
#X connect 13 0 23 0;
#X connect 14 0 17 0;
#X connect 15 0 14 0;
#X connect 16 0 29 0;
#X connect 17 0 21 0;
#X connect 18 0 0 0;
#X connect 19 0 15 0;
#X connect 20 0 22 0;
#X connect 21 0 32 0;
#X connect 22 0 21 1;
#X connect 23 0 26 0;
#X connect 25 0 5 0;
#X connect 26 0 4 0;
#X connect 28 0 17 1;
#X connect 30 0 18 1;
#X connect 31 0 18 0;
#X connect 32 0 27 0;
#X connect 33 0 32 1;
#X connect 34 0 33 0;
#X connect 35 0 36 0;
#X connect 36 0 34 0;
#X connect 37 0 26 0;
#X connect 38 0 39 0;
#X connect 40 0 19 1;
#X connect 41 0 31 0;
#X connect 42 0 44 0;
#X connect 43 0 14 0;
#X connect 44 0 43 0;
#X connect 45 0 44 1;
