#N canvas 799 50 981 666 12;
#X floatatom 471 400 5 0 0 0 - - - 0;
#X floatatom 436 447 5 0 0 0 - - - 0;
#X floatatom 436 498 5 0 0 0 - - - 0;
#X msg 436 400 100;
#X obj 436 352 loadbang;
#X obj 439 426 hsl 128 15 0 127 0 0 empty empty empty -2 -8 0 10 #fcfcfc #000000 #000000 0 1;
#X obj 436 469 dbtorms;
#X text 7 2 Sélection des sons avec synchronisation, f 22;
#X text 185 8 Allumage de l'audio à l'ouverture ou commande OSC startDSP, f 34;
#X text 422 326 Positionnement du niveau;
#X obj 244 104 switch~;
#X msg 258 72 1;
#X obj 258 50 loadbang;
#X obj 234 516 text define sonInfo;
#X obj 234 493 r sonInfo-r;
#X obj 70 518 throw~ L_out;
#X obj 679 34 hradio 15 1 0 8 empty empty empty 0 -8 0 10 #fcfcfc #000000 #000000 0;
#N canvas 0 330 1370 374 lisPlusieursSons 0;
#X obj 5 4 inlet;
#X obj 5 123 pack f f f;
#X obj 19 343 outlet~;
#X msg 23 67 clear;
#X obj 5 234 lisUnSon \$0;
#X obj 88 234 lisUnSon \$0;
#X obj 172 234 lisUnSon \$0;
#X obj 257 233 lisUnSon \$0;
#X obj 5 145 route 1 2 3 4 5 6 7 8 9 10 11 12 13 14 15 16;
#X obj 341 233 lisUnSon \$0;
#X obj 424 233 lisUnSon \$0;
#X obj 507 233 lisUnSon \$0;
#X obj 590 233 lisUnSon \$0;
#X obj 70 70 r \$0noteOff;
#X obj 673 233 lisUnSon \$0;
#X obj 756 233 lisUnSon \$0;
#X obj 840 233 lisUnSon \$0;
#X obj 925 232 lisUnSon \$0;
#X obj 1009 232 lisUnSon \$0;
#X obj 1092 232 lisUnSon \$0;
#X obj 1175 232 lisUnSon \$0;
#X obj 1258 232 lisUnSon \$0;
#X obj 23 42 r \$1clearPoly;
#X obj 5 99 poly 16 1;
#X connect 0 0 23 0;
#X connect 1 0 8 0;
#X connect 3 0 23 0;
#X connect 4 0 2 0;
#X connect 5 0 2 0;
#X connect 6 0 2 0;
#X connect 7 0 2 0;
#X connect 8 0 4 0;
#X connect 8 1 5 0;
#X connect 8 2 6 0;
#X connect 8 3 7 0;
#X connect 8 4 9 0;
#X connect 8 5 10 0;
#X connect 8 6 11 0;
#X connect 8 7 12 0;
#X connect 8 8 14 0;
#X connect 8 9 15 0;
#X connect 8 10 16 0;
#X connect 8 11 17 0;
#X connect 8 12 18 0;
#X connect 8 13 19 0;
#X connect 8 14 20 0;
#X connect 8 15 21 0;
#X connect 9 0 2 0;
#X connect 10 0 2 0;
#X connect 11 0 2 0;
#X connect 12 0 2 0;
#X connect 13 0 23 0;
#X connect 14 0 2 0;
#X connect 15 0 2 0;
#X connect 16 0 2 0;
#X connect 17 0 2 0;
#X connect 18 0 2 0;
#X connect 19 0 2 0;
#X connect 20 0 2 0;
#X connect 21 0 2 0;
#X connect 22 0 3 0;
#X connect 23 0 1 0;
#X connect 23 1 1 1;
#X connect 23 2 1 2;
#X restore 71 396 pd lisPlusieursSons;
#N canvas 717 469 450 300 addVelo 0;
#X obj 84 39 inlet;
#X text 36 12 Si il n'y a pas de vélocité on en rajoute une à 127;
#X obj 84 63 t a a;
#X obj 116 88 list length;
#X obj 116 111 sel 1;
#X obj 104 253 outlet;
#X obj 86 163 demux 0 1;
#X msg 114 136 0;
#X msg 149 135 1;
#X obj 40 190 pack f 100;
#X connect 0 0 2 0;
#X connect 2 0 6 0;
#X connect 2 1 3 0;
#X connect 3 0 4 0;
#X connect 4 0 7 0;
#X connect 4 1 8 0;
#X connect 6 0 9 0;
#X connect 6 1 5 0;
#X connect 7 0 6 1;
#X connect 8 0 6 1;
#X connect 9 0 5 0;
#X restore 11 262 pd addVelo;
#X floatatom 815 34 3 0 127 0 - - - 0;
#X obj 666 201 hradio 15 1 0 8 empty empty empty 0 -8 0 10 #fcfcfc #000000 #000000 0;
#X floatatom 798 198 3 0 127 0 - - - 0;
#X floatatom 828 176 5 0 1000 0 - - - 0;
#X obj 467 37 hradio 15 1 0 8 empty empty empty 0 -8 0 10 #fcfcfc #000000 #000000 0;
#X obj 384 200 hradio 15 1 0 8 empty empty empty 0 -8 0 10 #fcfcfc #000000 #000000 0;
#X floatatom 508 196 3 0 127 0 - - - 0;
#X floatatom 547 174 5 0 1000 0 - - - 0;
#X floatatom 595 173 5 0 100 0 - - - 0;
#X obj 70 496 *~;
#X obj 89 470 sig~ 1;
#X obj 11 358 demux 0 1;
#X obj 71 336 r \$0poly;
#X obj 21 46 synchroSkini \$0;
#X obj 72 94 s \$0niveau;
#X obj 471 375 r \$0niveau;
#X obj 436 527 s \$0niveauDB;
#X obj 89 446 r \$0niveauDB;
#X obj 253 197 s \$0poly;
#X obj 253 176 tgl 15 0 empty empty empty 17 7 0 10 #fcfcfc #000000 #000000 0 1;
#X obj 11 285 list split 2;
#X obj 51 307 s \$0samplePos;
#N canvas 63 88 450 300 chargementDesSons 0;
#X text 52 28 Chargement des sons;
#X obj 188 227 table buffer_son;
#X obj 60 51 bng 15 250 50 0 empty empty empty 17 7 0 10 #fcfcfc #000000 #000000;
#X obj 113 52 loadbang;
#N canvas 237 262 441 502 ajouteInfo 0;
#X obj 182 8 inlet;
#X obj 222 108 f;
#X obj 255 109 + 1;
#X obj 22 262 soundfiler;
#X msg 22 225 read -resize -maxsize 1.6e+08 \$1 buffer_son, f 22;
#X obj 22 285 list append;
#X obj 172 441 text set sonInfo;
#X obj 22 341 list prepend;
#X obj 50 152 text get sonInfo;
#X msg 182 37 0;
#X obj 22 365 t b a;
#X obj 26 459 s \$0getSoundLoop;
#X obj 283 46 r \$0getSoundLoop;
#X obj 50 176 route bang;
#X obj 266 180 t a a;
#X connect 0 0 9 0;
#X connect 1 0 2 0;
#X connect 1 0 6 1;
#X connect 1 0 8 0;
#X connect 2 0 1 1;
#X connect 3 0 5 0;
#X connect 3 1 5 1;
#X connect 4 0 3 0;
#X connect 5 0 7 0;
#X connect 7 0 10 0;
#X connect 8 0 13 0;
#X connect 9 0 1 0;
#X connect 10 0 11 0;
#X connect 10 1 6 0;
#X connect 12 0 1 0;
#X connect 13 1 14 0;
#X connect 14 0 4 0;
#X connect 14 1 7 1;
#X restore 56 199 pd ajouteInfo;
#N canvas 678 113 350 460 listeLesSons 0;
#X obj 18 50 inlet;
#X obj 64 127 text delete sonInfo;
#X msg 64 105 -1;
#X obj 41 252 t a a;
#X obj 41 207 hcs/folder_list;
#X obj 41 158 getdir;
#X obj 18 71 t b b b;
#X text 9 2 la méthode pour lister ne fonctionne pas dans l'objet shell sur macOS \, alors on utilise cyclone/fromsymbol et hcs/folder_list..., f 47;
#X obj 41 229 ggee/stripdir;
#X msg 41 182 symbol \$1/sons/*.wav;
#X msg 41 309 symbol sons/\$1;
#X obj 41 342 text insert sonInfo;
#X obj 18 410 outlet;
#X msg 156 310 1e+15;
#X connect 0 0 6 0;
#X connect 2 0 1 0;
#X connect 3 0 10 0;
#X connect 3 1 13 0;
#X connect 4 0 8 0;
#X connect 5 0 9 0;
#X connect 6 0 12 0;
#X connect 6 1 5 0;
#X connect 6 2 2 0;
#X connect 8 0 3 0;
#X connect 9 0 4 0;
#X connect 10 0 11 0;
#X connect 13 0 11 1;
#X restore 56 142 pd listeLesSons;
#X connect 2 0 5 0;
#X connect 3 0 5 0;
#X connect 5 0 4 0;
#X restore 234 457 pd chargementDesSons;
#X obj 11 420 lisUnSon \$0;
#X obj 151 177 tgl 15 0 empty empty empty 17 7 0 10 #fcfcfc #000000 #000000 0 1;
#X obj 151 198 s \$0quantize;
#X obj 252 223 r \$0poly;
#X obj 252 247 sel 0;
#X obj 252 271 s \$0clearPoly;
#X text 89 377 Polyphonie 16 voix;
#X msg 152 152 1;
#X obj 152 130 loadbang;
#X obj 39 196 s \$0clear;
#X obj 39 171 bng 19 250 50 0 empty empty empty 0 -10 0 12 #fcfcfc #000000 #000000;
#X obj 679 78 pack f 100;
#X obj 594 199 * 100;
#X obj 546 200 * 100;
#X obj 384 244 pack f 100 1000 1000;
#X obj 666 245 pack f 100 1000;
#X obj 827 202 * 100;
#X obj 686 365 display-mopidy;
#X obj 686 340 r \$0display;
#N canvas 1313 324 450 595 countSounds 0;
#X obj 51 5 inlet;
#X obj 51 76 route upLeft upRight;
#X obj 54 120 f;
#X obj 121 119 f;
#X obj 54 158 - 1;
#X obj 121 157 + 1;
#X obj 86 205 mod 10;
#X obj 51 30 t a b;
#X obj 260 77 text size sonInfo;
#X obj 118 408 list fromsymbol;
#X obj 118 284 text get sonInfo 0;
#X obj 118 434 list split 8;
#X obj 118 309 t a b;
#X msg 180 331 symbol .;
#X obj 118 357 s2l;
#X obj 118 383 list split 1;
#X obj 158 466 list tosymbol;
#X obj 158 491 f;
#X text 256 375 récupère le numéro de son;
#X text 199 489 conversion en float;
#X obj 157 557 outlet;
#X obj 86 229 t a a;
#X obj 86 522 list prepend;
#X connect 0 0 7 0;
#X connect 1 0 2 0;
#X connect 1 1 3 0;
#X connect 2 0 4 0;
#X connect 3 0 5 0;
#X connect 4 0 6 0;
#X connect 5 0 6 0;
#X connect 6 0 2 1;
#X connect 6 0 3 1;
#X connect 6 0 21 0;
#X connect 7 0 1 0;
#X connect 7 1 8 0;
#X connect 8 0 6 1;
#X connect 9 0 11 0;
#X connect 10 0 12 0;
#X connect 11 1 16 0;
#X connect 12 0 14 0;
#X connect 12 1 13 0;
#X connect 13 0 14 1;
#X connect 14 0 15 0;
#X connect 15 0 9 0;
#X connect 16 0 17 0;
#X connect 17 0 22 1;
#X connect 21 0 22 0;
#X connect 21 1 10 0;
#X connect 22 0 20 0;
#X restore 687 475 pd countSounds;
#X obj 686 390 route button;
#X obj 11 238 r \$0play;
#X obj 4 95 s \$0play;
#X obj 467 57 s \$0play;
#X obj 679 103 s \$0play;
#X obj 666 271 s \$0play;
#X obj 384 270 s \$0play;
#X text 462 10 test sound \, gain is 100;
#X text 719 10 test sound \, set gain;
#X text 386 151 test sound \, set gain \, offset \, length;
#X text 660 152 test sound \, set gain \, offset;
#X text 642 314 écran et boutons pirate audio;
#X obj 686 415 s \$0button;
#X obj 687 449 r \$0button;
#N canvas 794 347 267 470 displaySound 1;
#X obj 12 11 inlet;
#X obj 12 36 list split 1;
#X obj 86 100 text get sonInfo 0;
#X obj 86 125 t a b;
#X obj 86 180 s2l;
#X obj 86 205 list split 1;
#X msg 119 155 symbol /;
#X obj 126 232 t a b;
#X obj 126 287 s2l;
#X obj 126 312 list split 1;
#X obj 52 399 s \$0display;
#X msg 159 262 symbol .;
#X obj 52 349 pack f s;
#X obj 12 427 outlet;
#X obj 52 65 t f f;
#X msg 52 374 upMid \$1 \, midText \$2;
#X connect 0 0 1 0;
#X connect 1 0 13 0;
#X connect 1 1 14 0;
#X connect 2 0 3 0;
#X connect 3 0 4 0;
#X connect 3 1 6 0;
#X connect 4 0 5 0;
#X connect 5 1 7 0;
#X connect 6 0 4 1;
#X connect 7 0 8 0;
#X connect 7 1 11 0;
#X connect 8 0 9 0;
#X connect 9 0 12 1;
#X connect 11 0 8 1;
#X connect 12 0 15 0;
#X connect 14 0 12 0;
#X connect 14 1 2 0;
#X connect 15 0 10 0;
#X restore 687 503 pd displaySound;
#N canvas 1024 665 730 300 broadcast 0;
#X obj 217 7 inlet;
#X msg 416 129 connect 192.168.1.255 4000;
#X obj 217 32 t b a;
#X obj 213 106 f;
#X obj 52 216 sel 1;
#X msg 123 134 disconnect;
#X obj 327 174 netsend -u -b;
#X obj 213 132 oscformat pirateAudio test;
#X obj 102 47 t b b;
#X connect 0 0 2 0;
#X connect 1 0 6 0;
#X connect 2 0 1 0;
#X connect 2 1 3 1;
#X connect 3 0 7 0;
#X connect 4 0 8 0;
#X connect 5 0 6 0;
#X connect 6 0 4 0;
#X connect 7 0 6 0;
#X connect 8 0 5 0;
#X connect 8 1 3 0;
#X restore 687 585 pd broadcast;
#N canvas 181 98 450 300 displayInit 0;
#X obj 9 16 loadbang;
#X obj 9 81 s \$0display;
#X msg 9 41 title PirateAudio \, upLeft rw \, upMid 0 \, upRight fw \, midText son0 \, downLeft play \, downMid . \, downRight Stop;
#X connect 0 0 2 0;
#X connect 2 0 1 0;
#X restore 832 362 pd displayInit;
#N canvas 1015 641 450 300 playSound 0;
#X obj 89 73 inlet;
#X obj 58 9 r \$0button;
#X obj 71 125 f;
#X obj 58 34 route downLeft downRight;
#X obj 71 150 outlet;
#X msg 27 184 downMid ~;
#X obj 27 209 s \$0display;
#X obj 213 211 s \$0display;
#X obj 231 112 s \$0clear;
#X msg 213 186 downMid .;
#X connect 0 0 2 1;
#X connect 1 0 3 0;
#X connect 2 0 4 0;
#X connect 3 0 2 0;
#X connect 3 0 5 0;
#X connect 3 1 8 0;
#X connect 3 1 9 0;
#X connect 5 0 6 0;
#X connect 9 0 7 0;
#X restore 687 541 pd playSound;
#X connect 0 0 5 0;
#X connect 1 0 6 0;
#X connect 2 0 35 0;
#X connect 3 0 5 0;
#X connect 4 0 3 0;
#X connect 5 0 1 0;
#X connect 6 0 2 0;
#X connect 11 0 10 0;
#X connect 12 0 11 0;
#X connect 14 0 13 0;
#X connect 16 0 53 0;
#X connect 17 0 28 0;
#X connect 18 0 39 0;
#X connect 19 0 53 1;
#X connect 20 0 57 0;
#X connect 21 0 57 1;
#X connect 22 0 58 0;
#X connect 23 0 65 0;
#X connect 24 0 56 0;
#X connect 25 0 56 1;
#X connect 26 0 55 0;
#X connect 27 0 54 0;
#X connect 28 0 15 0;
#X connect 29 0 28 1;
#X connect 30 0 42 0;
#X connect 30 1 17 0;
#X connect 31 0 30 1;
#X connect 32 0 64 0;
#X connect 32 1 33 0;
#X connect 32 2 10 0;
#X connect 34 0 0 0;
#X connect 36 0 29 0;
#X connect 38 0 37 0;
#X connect 39 0 30 0;
#X connect 39 1 40 0;
#X connect 42 0 28 0;
#X connect 43 0 44 0;
#X connect 45 0 46 0;
#X connect 46 0 47 0;
#X connect 49 0 43 0;
#X connect 49 0 38 0;
#X connect 50 0 49 0;
#X connect 52 0 51 0;
#X connect 53 0 66 0;
#X connect 54 0 56 3;
#X connect 55 0 56 2;
#X connect 56 0 68 0;
#X connect 57 0 67 0;
#X connect 58 0 57 2;
#X connect 59 0 62 0;
#X connect 60 0 59 0;
#X connect 61 0 76 0;
#X connect 62 0 74 0;
#X connect 63 0 18 0;
#X connect 75 0 61 0;
#X connect 76 0 79 0;
#X connect 79 0 77 0;
